<?xml version="1.0" encoding="UTF-8" standalone="no"?>
<!DOCTYPE svg PUBLIC "-//W3C//DTD SVG 1.1//EN"
 "http://www.w3.org/Graphics/SVG/1.1/DTD/svg11.dtd">
<!-- Generated by graphviz version 2.38.0 (20140413.2041)
 -->
<!-- Title: Tree Pages: 1 -->
<svg width="1124pt" height="321pt"
 viewBox="0.00 0.00 1124.00 320.50" xmlns="http://www.w3.org/2000/svg" xmlns:xlink="http://www.w3.org/1999/xlink">
<g id="graph0" class="graph" transform="scale(1 1) rotate(0) translate(4 316.5)">
<title>Tree</title>
<polygon fill="white" stroke="none" points="-4,4 -4,-316.5 1120,-316.5 1120,4 -4,4"/>
<!-- 0 -->
<g id="node1" class="node"><title>0</title>
<path fill="#e58139" fill-opacity="0.568627" stroke="black" d="M609.5,-312.5C609.5,-312.5 497.5,-312.5 497.5,-312.5 491.5,-312.5 485.5,-306.5 485.5,-300.5 485.5,-300.5 485.5,-271.5 485.5,-271.5 485.5,-265.5 491.5,-259.5 497.5,-259.5 497.5,-259.5 609.5,-259.5 609.5,-259.5 615.5,-259.5 621.5,-265.5 621.5,-271.5 621.5,-271.5 621.5,-300.5 621.5,-300.5 621.5,-306.5 615.5,-312.5 609.5,-312.5"/>
<text text-anchor="middle" x="553.5" y="-297.3" font-family="Helvetica,sans-Serif" font-size="14.00">age &lt;= 58.6</text>
<text text-anchor="middle" x="553.5" y="-282.3" font-family="Helvetica,sans-Serif" font-size="14.00">samples = 100.0%</text>
<text text-anchor="middle" x="553.5" y="-267.3" font-family="Helvetica,sans-Serif" font-size="14.00">value = 6.7</text>
</g>
<!-- 1 -->
<g id="node2" class="node"><title>1</title>
<path fill="#e58139" fill-opacity="0.792157" stroke="black" d="M461.5,-223.5C461.5,-223.5 357.5,-223.5 357.5,-223.5 351.5,-223.5 345.5,-217.5 345.5,-211.5 345.5,-211.5 345.5,-182.5 345.5,-182.5 345.5,-176.5 351.5,-170.5 357.5,-170.5 357.5,-170.5 461.5,-170.5 461.5,-170.5 467.5,-170.5 473.5,-176.5 473.5,-182.5 473.5,-182.5 473.5,-211.5 473.5,-211.5 473.5,-217.5 467.5,-223.5 461.5,-223.5"/>
<text text-anchor="middle" x="409.5" y="-208.3" font-family="Helvetica,sans-Serif" font-size="14.00">age &lt;= 7.8</text>
<text text-anchor="middle" x="409.5" y="-193.3" font-family="Helvetica,sans-Serif" font-size="14.00">samples = 59.0%</text>
<text text-anchor="middle" x="409.5" y="-178.3" font-family="Helvetica,sans-Serif" font-size="14.00">value = 8.9</text>
</g>
<!-- 0&#45;&gt;1 -->
<g id="edge1" class="edge"><title>0&#45;&gt;1</title>
<path fill="none" stroke="black" d="M511.074,-259.368C495.394,-249.894 477.45,-239.053 461.049,-229.144"/>
<polygon fill="black" stroke="black" points="462.489,-225.925 452.12,-223.75 458.87,-231.917 462.489,-225.925"/>
<text text-anchor="middle" x="458.109" y="-244.322" font-family="Helvetica,sans-Serif" font-size="14.00">True</text>
</g>
<!-- 8 -->
<g id="node9" class="node"><title>8</title>
<path fill="#e58139" fill-opacity="0.247059" stroke="black" d="M749.5,-223.5C749.5,-223.5 645.5,-223.5 645.5,-223.5 639.5,-223.5 633.5,-217.5 633.5,-211.5 633.5,-211.5 633.5,-182.5 633.5,-182.5 633.5,-176.5 639.5,-170.5 645.5,-170.5 645.5,-170.5 749.5,-170.5 749.5,-170.5 755.5,-170.5 761.5,-176.5 761.5,-182.5 761.5,-182.5 761.5,-211.5 761.5,-211.5 761.5,-217.5 755.5,-223.5 749.5,-223.5"/>
<text text-anchor="middle" x="697.5" y="-208.3" font-family="Helvetica,sans-Serif" font-size="14.00">age &lt;= 76.8</text>
<text text-anchor="middle" x="697.5" y="-193.3" font-family="Helvetica,sans-Serif" font-size="14.00">samples = 41.0%</text>
<text text-anchor="middle" x="697.5" y="-178.3" font-family="Helvetica,sans-Serif" font-size="14.00">value = 3.5</text>
</g>
<!-- 0&#45;&gt;8 -->
<g id="edge8" class="edge"><title>0&#45;&gt;8</title>
<path fill="none" stroke="black" d="M595.926,-259.368C611.606,-249.894 629.55,-239.053 645.951,-229.144"/>
<polygon fill="black" stroke="black" points="648.13,-231.917 654.88,-223.75 644.511,-225.925 648.13,-231.917"/>
<text text-anchor="middle" x="648.891" y="-244.322" font-family="Helvetica,sans-Serif" font-size="14.00">False</text>
</g>
<!-- 2 -->
<g id="node3" class="node"><title>2</title>
<path fill="#e58139" fill-opacity="0.239216" stroke="black" d="M244,-134.5C244,-134.5 149,-134.5 149,-134.5 143,-134.5 137,-128.5 137,-122.5 137,-122.5 137,-93.5 137,-93.5 137,-87.5 143,-81.5 149,-81.5 149,-81.5 244,-81.5 244,-81.5 250,-81.5 256,-87.5 256,-93.5 256,-93.5 256,-122.5 256,-122.5 256,-128.5 250,-134.5 244,-134.5"/>
<text text-anchor="middle" x="196.5" y="-119.3" font-family="Helvetica,sans-Serif" font-size="14.00">age &lt;= 4.2</text>
<text text-anchor="middle" x="196.5" y="-104.3" font-family="Helvetica,sans-Serif" font-size="14.00">samples = 8.0%</text>
<text text-anchor="middle" x="196.5" y="-89.3" font-family="Helvetica,sans-Serif" font-size="14.00">value = 3.4</text>
</g>
<!-- 1&#45;&gt;2 -->
<g id="edge2" class="edge"><title>1&#45;&gt;2</title>
<path fill="none" stroke="black" d="M347.032,-170.485C321.449,-160.036 291.752,-147.906 265.529,-137.195"/>
<polygon fill="black" stroke="black" points="266.62,-133.86 256.039,-133.319 263.973,-140.34 266.62,-133.86"/>
</g>
<!-- 5 -->
<g id="node6" class="node"><title>5</title>
<path fill="#e58139" fill-opacity="0.878431" stroke="black" d="M461.5,-134.5C461.5,-134.5 357.5,-134.5 357.5,-134.5 351.5,-134.5 345.5,-128.5 345.5,-122.5 345.5,-122.5 345.5,-93.5 345.5,-93.5 345.5,-87.5 351.5,-81.5 357.5,-81.5 357.5,-81.5 461.5,-81.5 461.5,-81.5 467.5,-81.5 473.5,-87.5 473.5,-93.5 473.5,-93.5 473.5,-122.5 473.5,-122.5 473.5,-128.5 467.5,-134.5 461.5,-134.5"/>
<text text-anchor="middle" x="409.5" y="-119.3" font-family="Helvetica,sans-Serif" font-size="14.00">age &lt;= 37.0</text>
<text text-anchor="middle" x="409.5" y="-104.3" font-family="Helvetica,sans-Serif" font-size="14.00">samples = 51.0%</text>
<text text-anchor="middle" x="409.5" y="-89.3" font-family="Helvetica,sans-Serif" font-size="14.00">value = 9.7</text>
</g>
<!-- 1&#45;&gt;5 -->
<g id="edge5" class="edge"><title>1&#45;&gt;5</title>
<path fill="none" stroke="black" d="M409.5,-170.368C409.5,-162.386 409.5,-153.432 409.5,-144.884"/>
<polygon fill="black" stroke="black" points="413,-144.75 409.5,-134.75 406,-144.75 413,-144.75"/>
</g>
<!-- 3 -->
<g id="node4" class="node"><title>3</title>
<path fill="#e58139" fill-opacity="0.078431" stroke="black" d="M107,-38C107,-38 12,-38 12,-38 6,-38 -7.10543e-015,-32 -7.10543e-015,-26 -7.10543e-015,-26 -7.10543e-015,-12 -7.10543e-015,-12 -7.10543e-015,-6 6,-0 12,-0 12,-0 107,-0 107,-0 113,-0 119,-6 119,-12 119,-12 119,-26 119,-26 119,-32 113,-38 107,-38"/>
<text text-anchor="middle" x="59.5" y="-22.8" font-family="Helvetica,sans-Serif" font-size="14.00">samples = 4.2%</text>
<text text-anchor="middle" x="59.5" y="-7.8" font-family="Helvetica,sans-Serif" font-size="14.00">value = 1.9</text>
</g>
<!-- 2&#45;&gt;3 -->
<g id="edge3" class="edge"><title>2&#45;&gt;3</title>
<path fill="none" stroke="black" d="M156.136,-81.3677C137.194,-69.3386 114.777,-55.1032 96.3054,-43.3728"/>
<polygon fill="black" stroke="black" points="98.1733,-40.4129 87.8553,-38.0067 94.4207,-46.3221 98.1733,-40.4129"/>
</g>
<!-- 4 -->
<g id="node5" class="node"><title>4</title>
<path fill="#e58139" fill-opacity="0.415686" stroke="black" d="M244,-38C244,-38 149,-38 149,-38 143,-38 137,-32 137,-26 137,-26 137,-12 137,-12 137,-6 143,-0 149,-0 149,-0 244,-0 244,-0 250,-0 256,-6 256,-12 256,-12 256,-26 256,-26 256,-32 250,-38 244,-38"/>
<text text-anchor="middle" x="196.5" y="-22.8" font-family="Helvetica,sans-Serif" font-size="14.00">samples = 3.8%</text>
<text text-anchor="middle" x="196.5" y="-7.8" font-family="Helvetica,sans-Serif" font-size="14.00">value = 5.2</text>
</g>
<!-- 2&#45;&gt;4 -->
<g id="edge4" class="edge"><title>2&#45;&gt;4</title>
<path fill="none" stroke="black" d="M196.5,-81.3677C196.5,-70.9171 196.5,-58.8012 196.5,-48.1094"/>
<polygon fill="black" stroke="black" points="200,-48.0066 196.5,-38.0067 193,-48.0067 200,-48.0066"/>
</g>
<!-- 6 -->
<g id="node7" class="node"><title>6</title>
<path fill="#e58139" stroke="black" d="M390.5,-38C390.5,-38 286.5,-38 286.5,-38 280.5,-38 274.5,-32 274.5,-26 274.5,-26 274.5,-12 274.5,-12 274.5,-6 280.5,-0 286.5,-0 286.5,-0 390.5,-0 390.5,-0 396.5,-0 402.5,-6 402.5,-12 402.5,-12 402.5,-26 402.5,-26 402.5,-32 396.5,-38 390.5,-38"/>
<text text-anchor="middle" x="338.5" y="-22.8" font-family="Helvetica,sans-Serif" font-size="14.00">samples = 29.8%</text>
<text text-anchor="middle" x="338.5" y="-7.8" font-family="Helvetica,sans-Serif" font-size="14.00">value = 10.9</text>
</g>
<!-- 5&#45;&gt;6 -->
<g id="edge6" class="edge"><title>5&#45;&gt;6</title>
<path fill="none" stroke="black" d="M388.582,-81.3677C379.431,-70.1551 368.716,-57.0254 359.551,-45.7945"/>
<polygon fill="black" stroke="black" points="362.229,-43.5412 353.195,-38.0067 356.806,-47.9671 362.229,-43.5412"/>
</g>
<!-- 7 -->
<g id="node8" class="node"><title>7</title>
<path fill="#e58139" fill-opacity="0.709804" stroke="black" d="M536.5,-38C536.5,-38 432.5,-38 432.5,-38 426.5,-38 420.5,-32 420.5,-26 420.5,-26 420.5,-12 420.5,-12 420.5,-6 426.5,-0 432.5,-0 432.5,-0 536.5,-0 536.5,-0 542.5,-0 548.5,-6 548.5,-12 548.5,-12 548.5,-26 548.5,-26 548.5,-32 542.5,-38 536.5,-38"/>
<text text-anchor="middle" x="484.5" y="-22.8" font-family="Helvetica,sans-Serif" font-size="14.00">samples = 21.2%</text>
<text text-anchor="middle" x="484.5" y="-7.8" font-family="Helvetica,sans-Serif" font-size="14.00">value = 8.1</text>
</g>
<!-- 5&#45;&gt;7 -->
<g id="edge7" class="edge"><title>5&#45;&gt;7</title>
<path fill="none" stroke="black" d="M431.597,-81.3677C441.263,-70.1551 452.582,-57.0254 462.263,-45.7945"/>
<polygon fill="black" stroke="black" points="465.099,-47.8661 468.977,-38.0067 459.797,-43.2955 465.099,-47.8661"/>
</g>
<!-- 9 -->
<g id="node10" class="node"><title>9</title>
<path fill="#e58139" fill-opacity="0.427451" stroke="black" d="M749.5,-134.5C749.5,-134.5 645.5,-134.5 645.5,-134.5 639.5,-134.5 633.5,-128.5 633.5,-122.5 633.5,-122.5 633.5,-93.5 633.5,-93.5 633.5,-87.5 639.5,-81.5 645.5,-81.5 645.5,-81.5 749.5,-81.5 749.5,-81.5 755.5,-81.5 761.5,-87.5 761.5,-93.5 761.5,-93.5 761.5,-122.5 761.5,-122.5 761.5,-128.5 755.5,-134.5 749.5,-134.5"/>
<text text-anchor="middle" x="697.5" y="-119.3" font-family="Helvetica,sans-Serif" font-size="14.00">age &lt;= 58.9</text>
<text text-anchor="middle" x="697.5" y="-104.3" font-family="Helvetica,sans-Serif" font-size="14.00">samples = 18.0%</text>
<text text-anchor="middle" x="697.5" y="-89.3" font-family="Helvetica,sans-Serif" font-size="14.00">value = 5.3</text>
</g>
<!-- 8&#45;&gt;9 -->
<g id="edge9" class="edge"><title>8&#45;&gt;9</title>
<path fill="none" stroke="black" d="M697.5,-170.368C697.5,-162.386 697.5,-153.432 697.5,-144.884"/>
<polygon fill="black" stroke="black" points="701,-144.75 697.5,-134.75 694,-144.75 701,-144.75"/>
</g>
<!-- 12 -->
<g id="node13" class="node"><title>12</title>
<path fill="#e58139" fill-opacity="0.105882" stroke="black" d="M966.5,-134.5C966.5,-134.5 862.5,-134.5 862.5,-134.5 856.5,-134.5 850.5,-128.5 850.5,-122.5 850.5,-122.5 850.5,-93.5 850.5,-93.5 850.5,-87.5 856.5,-81.5 862.5,-81.5 862.5,-81.5 966.5,-81.5 966.5,-81.5 972.5,-81.5 978.5,-87.5 978.5,-93.5 978.5,-93.5 978.5,-122.5 978.5,-122.5 978.5,-128.5 972.5,-134.5 966.5,-134.5"/>
<text text-anchor="middle" x="914.5" y="-119.3" font-family="Helvetica,sans-Serif" font-size="14.00">age &lt;= 92.7</text>
<text text-anchor="middle" x="914.5" y="-104.3" font-family="Helvetica,sans-Serif" font-size="14.00">samples = 23.0%</text>
<text text-anchor="middle" x="914.5" y="-89.3" font-family="Helvetica,sans-Serif" font-size="14.00">value = 2.1</text>
</g>
<!-- 8&#45;&gt;12 -->
<g id="edge12" class="edge"><title>8&#45;&gt;12</title>
<path fill="none" stroke="black" d="M761.141,-170.485C786.313,-160.393 815.395,-148.733 841.422,-138.298"/>
<polygon fill="black" stroke="black" points="842.881,-141.485 850.86,-134.515 840.276,-134.987 842.881,-141.485"/>
</g>
<!-- 10 -->
<g id="node11" class="node"><title>10</title>
<path fill="#e58139" fill-opacity="0.180392" stroke="black" d="M674,-38C674,-38 579,-38 579,-38 573,-38 567,-32 567,-26 567,-26 567,-12 567,-12 567,-6 573,-0 579,-0 579,-0 674,-0 674,-0 680,-0 686,-6 686,-12 686,-12 686,-26 686,-26 686,-32 680,-38 674,-38"/>
<text text-anchor="middle" x="626.5" y="-22.8" font-family="Helvetica,sans-Serif" font-size="14.00">samples = 0.8%</text>
<text text-anchor="middle" x="626.5" y="-7.8" font-family="Helvetica,sans-Serif" font-size="14.00">value = 2.9</text>
</g>
<!-- 9&#45;&gt;10 -->
<g id="edge10" class="edge"><title>9&#45;&gt;10</title>
<path fill="none" stroke="black" d="M676.582,-81.3677C667.431,-70.1551 656.716,-57.0254 647.551,-45.7945"/>
<polygon fill="black" stroke="black" points="650.229,-43.5412 641.195,-38.0067 644.806,-47.9671 650.229,-43.5412"/>
</g>
<!-- 11 -->
<g id="node12" class="node"><title>11</title>
<path fill="#e58139" fill-opacity="0.439216" stroke="black" d="M820.5,-38C820.5,-38 716.5,-38 716.5,-38 710.5,-38 704.5,-32 704.5,-26 704.5,-26 704.5,-12 704.5,-12 704.5,-6 710.5,-0 716.5,-0 716.5,-0 820.5,-0 820.5,-0 826.5,-0 832.5,-6 832.5,-12 832.5,-12 832.5,-26 832.5,-26 832.5,-32 826.5,-38 820.5,-38"/>
<text text-anchor="middle" x="768.5" y="-22.8" font-family="Helvetica,sans-Serif" font-size="14.00">samples = 17.2%</text>
<text text-anchor="middle" x="768.5" y="-7.8" font-family="Helvetica,sans-Serif" font-size="14.00">value = 5.4</text>
</g>
<!-- 9&#45;&gt;11 -->
<g id="edge11" class="edge"><title>9&#45;&gt;11</title>
<path fill="none" stroke="black" d="M718.418,-81.3677C727.569,-70.1551 738.284,-57.0254 747.449,-45.7945"/>
<polygon fill="black" stroke="black" points="750.194,-47.9671 753.805,-38.0067 744.771,-43.5412 750.194,-47.9671"/>
</g>
<!-- 13 -->
<g id="node14" class="node"><title>13</title>
<path fill="#e58139" fill-opacity="0.180392" stroke="black" d="M966.5,-38C966.5,-38 862.5,-38 862.5,-38 856.5,-38 850.5,-32 850.5,-26 850.5,-26 850.5,-12 850.5,-12 850.5,-6 856.5,-0 862.5,-0 862.5,-0 966.5,-0 966.5,-0 972.5,-0 978.5,-6 978.5,-12 978.5,-12 978.5,-26 978.5,-26 978.5,-32 972.5,-38 966.5,-38"/>
<text text-anchor="middle" x="914.5" y="-22.8" font-family="Helvetica,sans-Serif" font-size="14.00">samples = 13.4%</text>
<text text-anchor="middle" x="914.5" y="-7.8" font-family="Helvetica,sans-Serif" font-size="14.00">value = 2.9</text>
</g>
<!-- 12&#45;&gt;13 -->
<g id="edge13" class="edge"><title>12&#45;&gt;13</title>
<path fill="none" stroke="black" d="M914.5,-81.3677C914.5,-70.9171 914.5,-58.8012 914.5,-48.1094"/>
<polygon fill="black" stroke="black" points="918,-48.0066 914.5,-38.0067 911,-48.0067 918,-48.0066"/>
</g>
<!-- 14 -->
<g id="node15" class="node"><title>14</title>
<path fill="none" stroke="black" d="M1104,-38C1104,-38 1009,-38 1009,-38 1003,-38 997,-32 997,-26 997,-26 997,-12 997,-12 997,-6 1003,-0 1009,-0 1009,-0 1104,-0 1104,-0 1110,-0 1116,-6 1116,-12 1116,-12 1116,-26 1116,-26 1116,-32 1110,-38 1104,-38"/>
<text text-anchor="middle" x="1056.5" y="-22.8" font-family="Helvetica,sans-Serif" font-size="14.00">samples = 9.6%</text>
<text text-anchor="middle" x="1056.5" y="-7.8" font-family="Helvetica,sans-Serif" font-size="14.00">value = 1.1</text>
</g>
<!-- 12&#45;&gt;14 -->
<g id="edge14" class="edge"><title>12&#45;&gt;14</title>
<path fill="none" stroke="black" d="M956.337,-81.3677C975.97,-69.3386 999.205,-55.1032 1018.35,-43.3728"/>
<polygon fill="black" stroke="black" points="1020.41,-46.2153 1027.11,-38.0067 1016.75,-40.2465 1020.41,-46.2153"/>
</g>
</g>
</svg>
