<?xml version="1.0" encoding="UTF-8" standalone="no"?>
<!DOCTYPE svg PUBLIC "-//W3C//DTD SVG 1.1//EN"
 "http://www.w3.org/Graphics/SVG/1.1/DTD/svg11.dtd">
<!-- Generated by graphviz version 2.38.0 (20140413.2041)
 -->
<!-- Title: Tree Pages: 1 -->
<svg width="1682pt" height="677pt"
 viewBox="0.00 0.00 1681.50 676.50" xmlns="http://www.w3.org/2000/svg" xmlns:xlink="http://www.w3.org/1999/xlink">
<g id="graph0" class="graph" transform="scale(1 1) rotate(0) translate(4 672.5)">
<title>Tree</title>
<polygon fill="white" stroke="none" points="-4,4 -4,-672.5 1677.5,-672.5 1677.5,4 -4,4"/>
<!-- 0 -->
<g id="node1" class="node"><title>0</title>
<path fill="#e58139" fill-opacity="0.023529" stroke="black" d="M666,-668.5C666,-668.5 554,-668.5 554,-668.5 548,-668.5 542,-662.5 542,-656.5 542,-656.5 542,-627.5 542,-627.5 542,-621.5 548,-615.5 554,-615.5 554,-615.5 666,-615.5 666,-615.5 672,-615.5 678,-621.5 678,-627.5 678,-627.5 678,-656.5 678,-656.5 678,-662.5 672,-668.5 666,-668.5"/>
<text text-anchor="middle" x="610" y="-653.3" font-family="Helvetica,sans-Serif" font-size="14.00">weight &lt;= 8.7</text>
<text text-anchor="middle" x="610" y="-638.3" font-family="Helvetica,sans-Serif" font-size="14.00">samples = 100.0%</text>
<text text-anchor="middle" x="610" y="-623.3" font-family="Helvetica,sans-Serif" font-size="14.00">value = [0.5, 0.5]</text>
</g>
<!-- 1 -->
<g id="node2" class="node"><title>1</title>
<path fill="#e58139" fill-opacity="0.905882" stroke="black" d="M259,-579.5C259,-579.5 155,-579.5 155,-579.5 149,-579.5 143,-573.5 143,-567.5 143,-567.5 143,-538.5 143,-538.5 143,-532.5 149,-526.5 155,-526.5 155,-526.5 259,-526.5 259,-526.5 265,-526.5 271,-532.5 271,-538.5 271,-538.5 271,-567.5 271,-567.5 271,-573.5 265,-579.5 259,-579.5"/>
<text text-anchor="middle" x="207" y="-564.3" font-family="Helvetica,sans-Serif" font-size="14.00">fur length &lt;= 3.3</text>
<text text-anchor="middle" x="207" y="-549.3" font-family="Helvetica,sans-Serif" font-size="14.00">samples = 29.1%</text>
<text text-anchor="middle" x="207" y="-534.3" font-family="Helvetica,sans-Serif" font-size="14.00">value = [0.9, 0.1]</text>
</g>
<!-- 0&#45;&gt;1 -->
<g id="edge1" class="edge"><title>0&#45;&gt;1</title>
<path fill="none" stroke="black" d="M541.637,-626.242C469.21,-610.606 355.245,-586.003 280.813,-569.935"/>
<polygon fill="black" stroke="black" points="281.547,-566.513 271.034,-567.824 280.07,-573.355 281.547,-566.513"/>
<text text-anchor="middle" x="284.583" y="-585.134" font-family="Helvetica,sans-Serif" font-size="14.00">True</text>
</g>
<!-- 4 -->
<g id="node5" class="node"><title>4</title>
<path fill="#399de5" fill-opacity="0.486275" stroke="black" d="M1066,-579.5C1066,-579.5 962,-579.5 962,-579.5 956,-579.5 950,-573.5 950,-567.5 950,-567.5 950,-538.5 950,-538.5 950,-532.5 956,-526.5 962,-526.5 962,-526.5 1066,-526.5 1066,-526.5 1072,-526.5 1078,-532.5 1078,-538.5 1078,-538.5 1078,-567.5 1078,-567.5 1078,-573.5 1072,-579.5 1066,-579.5"/>
<text text-anchor="middle" x="1014" y="-564.3" font-family="Helvetica,sans-Serif" font-size="14.00">weight &lt;= 88.7</text>
<text text-anchor="middle" x="1014" y="-549.3" font-family="Helvetica,sans-Serif" font-size="14.00">samples = 70.9%</text>
<text text-anchor="middle" x="1014" y="-534.3" font-family="Helvetica,sans-Serif" font-size="14.00">value = [0.3, 0.7]</text>
</g>
<!-- 0&#45;&gt;4 -->
<g id="edge4" class="edge"><title>0&#45;&gt;4</title>
<path fill="none" stroke="black" d="M678.076,-626.34C750.711,-610.698 865.392,-586.002 940.162,-569.901"/>
<polygon fill="black" stroke="black" points="940.946,-573.312 949.985,-567.786 939.472,-566.469 940.946,-573.312"/>
<text text-anchor="middle" x="936.425" y="-585.089" font-family="Helvetica,sans-Serif" font-size="14.00">False</text>
</g>
<!-- 2 -->
<g id="node3" class="node"><title>2</title>
<path fill="#e58139" stroke="black" d="M116,-38C116,-38 12,-38 12,-38 6,-38 0,-32 0,-26 0,-26 0,-12 0,-12 0,-6 6,-0 12,-0 12,-0 116,-0 116,-0 122,-0 128,-6 128,-12 128,-12 128,-26 128,-26 128,-32 122,-38 116,-38"/>
<text text-anchor="middle" x="64" y="-22.8" font-family="Helvetica,sans-Serif" font-size="14.00">samples = 22.8%</text>
<text text-anchor="middle" x="64" y="-7.8" font-family="Helvetica,sans-Serif" font-size="14.00">value = [1.0, 0.0]</text>
</g>
<!-- 1&#45;&gt;2 -->
<g id="edge2" class="edge"><title>1&#45;&gt;2</title>
<path fill="none" stroke="black" d="M186.207,-526.408C146.546,-477.595 64,-376 64,-376 64,-376 64,-376 64,-196 64,-196 64,-98.0426 64,-48.2881"/>
<polygon fill="black" stroke="black" points="67.5001,-48.1722 64,-38.1722 60.5001,-48.1722 67.5001,-48.1722"/>
</g>
<!-- 3 -->
<g id="node4" class="node"><title>3</title>
<path fill="#e58139" fill-opacity="0.333333" stroke="black" d="M255.5,-38C255.5,-38 158.5,-38 158.5,-38 152.5,-38 146.5,-32 146.5,-26 146.5,-26 146.5,-12 146.5,-12 146.5,-6 152.5,-0 158.5,-0 158.5,-0 255.5,-0 255.5,-0 261.5,-0 267.5,-6 267.5,-12 267.5,-12 267.5,-26 267.5,-26 267.5,-32 261.5,-38 255.5,-38"/>
<text text-anchor="middle" x="207" y="-22.8" font-family="Helvetica,sans-Serif" font-size="14.00">samples = 6.3%</text>
<text text-anchor="middle" x="207" y="-7.8" font-family="Helvetica,sans-Serif" font-size="14.00">value = [0.6, 0.4]</text>
</g>
<!-- 1&#45;&gt;3 -->
<g id="edge3" class="edge"><title>1&#45;&gt;3</title>
<path fill="none" stroke="black" d="M207,-526.408C207,-477.595 207,-376 207,-376 207,-376 207,-376 207,-196 207,-196 207,-98.0426 207,-48.2881"/>
<polygon fill="black" stroke="black" points="210.5,-48.1722 207,-38.1722 203.5,-48.1722 210.5,-48.1722"/>
</g>
<!-- 5 -->
<g id="node6" class="node"><title>5</title>
<path fill="#399de5" fill-opacity="0.615686" stroke="black" d="M1066,-490.5C1066,-490.5 962,-490.5 962,-490.5 956,-490.5 950,-484.5 950,-478.5 950,-478.5 950,-449.5 950,-449.5 950,-443.5 956,-437.5 962,-437.5 962,-437.5 1066,-437.5 1066,-437.5 1072,-437.5 1078,-443.5 1078,-449.5 1078,-449.5 1078,-478.5 1078,-478.5 1078,-484.5 1072,-490.5 1066,-490.5"/>
<text text-anchor="middle" x="1014" y="-475.3" font-family="Helvetica,sans-Serif" font-size="14.00">weight &lt;= 29.5</text>
<text text-anchor="middle" x="1014" y="-460.3" font-family="Helvetica,sans-Serif" font-size="14.00">samples = 63.9%</text>
<text text-anchor="middle" x="1014" y="-445.3" font-family="Helvetica,sans-Serif" font-size="14.00">value = [0.3, 0.7]</text>
</g>
<!-- 4&#45;&gt;5 -->
<g id="edge5" class="edge"><title>4&#45;&gt;5</title>
<path fill="none" stroke="black" d="M1014,-526.368C1014,-518.386 1014,-509.432 1014,-500.884"/>
<polygon fill="black" stroke="black" points="1017.5,-500.75 1014,-490.75 1010.5,-500.75 1017.5,-500.75"/>
</g>
<!-- 22 -->
<g id="node23" class="node"><title>22</title>
<path fill="#e58139" fill-opacity="0.901961" stroke="black" d="M1661.5,-38C1661.5,-38 1564.5,-38 1564.5,-38 1558.5,-38 1552.5,-32 1552.5,-26 1552.5,-26 1552.5,-12 1552.5,-12 1552.5,-6 1558.5,-0 1564.5,-0 1564.5,-0 1661.5,-0 1661.5,-0 1667.5,-0 1673.5,-6 1673.5,-12 1673.5,-12 1673.5,-26 1673.5,-26 1673.5,-32 1667.5,-38 1661.5,-38"/>
<text text-anchor="middle" x="1613" y="-22.8" font-family="Helvetica,sans-Serif" font-size="14.00">samples = 7.0%</text>
<text text-anchor="middle" x="1613" y="-7.8" font-family="Helvetica,sans-Serif" font-size="14.00">value = [0.9, 0.1]</text>
</g>
<!-- 4&#45;&gt;22 -->
<g id="edge22" class="edge"><title>4&#45;&gt;22</title>
<path fill="none" stroke="black" d="M1078.1,-533.165C1232.63,-487.762 1613,-376 1613,-376 1613,-376 1613,-376 1613,-196 1613,-196 1613,-98.0426 1613,-48.2881"/>
<polygon fill="black" stroke="black" points="1616.5,-48.1722 1613,-38.1722 1609.5,-48.1722 1616.5,-48.1722"/>
</g>
<!-- 6 -->
<g id="node7" class="node"><title>6</title>
<path fill="#399de5" fill-opacity="0.800000" stroke="black" d="M962,-401.5C962,-401.5 858,-401.5 858,-401.5 852,-401.5 846,-395.5 846,-389.5 846,-389.5 846,-360.5 846,-360.5 846,-354.5 852,-348.5 858,-348.5 858,-348.5 962,-348.5 962,-348.5 968,-348.5 974,-354.5 974,-360.5 974,-360.5 974,-389.5 974,-389.5 974,-395.5 968,-401.5 962,-401.5"/>
<text text-anchor="middle" x="910" y="-386.3" font-family="Helvetica,sans-Serif" font-size="14.00">fur length &lt;= 4.5</text>
<text text-anchor="middle" x="910" y="-371.3" font-family="Helvetica,sans-Serif" font-size="14.00">samples = 34.2%</text>
<text text-anchor="middle" x="910" y="-356.3" font-family="Helvetica,sans-Serif" font-size="14.00">value = [0.2, 0.8]</text>
</g>
<!-- 5&#45;&gt;6 -->
<g id="edge6" class="edge"><title>5&#45;&gt;6</title>
<path fill="none" stroke="black" d="M983.359,-437.368C972.454,-428.245 960.033,-417.854 948.55,-408.249"/>
<polygon fill="black" stroke="black" points="950.697,-405.482 940.781,-401.75 946.206,-410.851 950.697,-405.482"/>
</g>
<!-- 15 -->
<g id="node16" class="node"><title>15</title>
<path fill="#399de5" fill-opacity="0.321569" stroke="black" d="M1170,-401.5C1170,-401.5 1066,-401.5 1066,-401.5 1060,-401.5 1054,-395.5 1054,-389.5 1054,-389.5 1054,-360.5 1054,-360.5 1054,-354.5 1060,-348.5 1066,-348.5 1066,-348.5 1170,-348.5 1170,-348.5 1176,-348.5 1182,-354.5 1182,-360.5 1182,-360.5 1182,-389.5 1182,-389.5 1182,-395.5 1176,-401.5 1170,-401.5"/>
<text text-anchor="middle" x="1118" y="-386.3" font-family="Helvetica,sans-Serif" font-size="14.00">weight &lt;= 56.6</text>
<text text-anchor="middle" x="1118" y="-371.3" font-family="Helvetica,sans-Serif" font-size="14.00">samples = 29.7%</text>
<text text-anchor="middle" x="1118" y="-356.3" font-family="Helvetica,sans-Serif" font-size="14.00">value = [0.4, 0.6]</text>
</g>
<!-- 5&#45;&gt;15 -->
<g id="edge15" class="edge"><title>5&#45;&gt;15</title>
<path fill="none" stroke="black" d="M1044.64,-437.368C1055.55,-428.245 1067.97,-417.854 1079.45,-408.249"/>
<polygon fill="black" stroke="black" points="1081.79,-410.851 1087.22,-401.75 1077.3,-405.482 1081.79,-410.851"/>
</g>
<!-- 7 -->
<g id="node8" class="node"><title>7</title>
<path fill="#399de5" fill-opacity="0.956863" stroke="black" d="M823,-312.5C823,-312.5 719,-312.5 719,-312.5 713,-312.5 707,-306.5 707,-300.5 707,-300.5 707,-271.5 707,-271.5 707,-265.5 713,-259.5 719,-259.5 719,-259.5 823,-259.5 823,-259.5 829,-259.5 835,-265.5 835,-271.5 835,-271.5 835,-300.5 835,-300.5 835,-306.5 829,-312.5 823,-312.5"/>
<text text-anchor="middle" x="771" y="-297.3" font-family="Helvetica,sans-Serif" font-size="14.00">weight &lt;= 24.8</text>
<text text-anchor="middle" x="771" y="-282.3" font-family="Helvetica,sans-Serif" font-size="14.00">samples = 29.7%</text>
<text text-anchor="middle" x="771" y="-267.3" font-family="Helvetica,sans-Serif" font-size="14.00">value = [0.0, 1.0]</text>
</g>
<!-- 6&#45;&gt;7 -->
<g id="edge7" class="edge"><title>6&#45;&gt;7</title>
<path fill="none" stroke="black" d="M869.047,-348.368C853.912,-338.894 836.59,-328.053 820.759,-318.144"/>
<polygon fill="black" stroke="black" points="822.474,-315.088 812.14,-312.75 818.76,-321.022 822.474,-315.088"/>
</g>
<!-- 14 -->
<g id="node15" class="node"><title>14</title>
<path fill="#e58139" stroke="black" d="M958.5,-38C958.5,-38 861.5,-38 861.5,-38 855.5,-38 849.5,-32 849.5,-26 849.5,-26 849.5,-12 849.5,-12 849.5,-6 855.5,-0 861.5,-0 861.5,-0 958.5,-0 958.5,-0 964.5,-0 970.5,-6 970.5,-12 970.5,-12 970.5,-26 970.5,-26 970.5,-32 964.5,-38 958.5,-38"/>
<text text-anchor="middle" x="910" y="-22.8" font-family="Helvetica,sans-Serif" font-size="14.00">samples = 4.4%</text>
<text text-anchor="middle" x="910" y="-7.8" font-family="Helvetica,sans-Serif" font-size="14.00">value = [1.0, 0.0]</text>
</g>
<!-- 6&#45;&gt;14 -->
<g id="edge14" class="edge"><title>6&#45;&gt;14</title>
<path fill="none" stroke="black" d="M910,-348.256C910,-283.75 910,-115.575 910,-48.3602"/>
<polygon fill="black" stroke="black" points="913.5,-48.1086 910,-38.1086 906.5,-48.1086 913.5,-48.1086"/>
</g>
<!-- 8 -->
<g id="node9" class="node"><title>8</title>
<path fill="#399de5" fill-opacity="0.976471" stroke="black" d="M680,-223.5C680,-223.5 576,-223.5 576,-223.5 570,-223.5 564,-217.5 564,-211.5 564,-211.5 564,-182.5 564,-182.5 564,-176.5 570,-170.5 576,-170.5 576,-170.5 680,-170.5 680,-170.5 686,-170.5 692,-176.5 692,-182.5 692,-182.5 692,-211.5 692,-211.5 692,-217.5 686,-223.5 680,-223.5"/>
<text text-anchor="middle" x="628" y="-208.3" font-family="Helvetica,sans-Serif" font-size="14.00">weight &lt;= 13.1</text>
<text text-anchor="middle" x="628" y="-193.3" font-family="Helvetica,sans-Serif" font-size="14.00">samples = 25.9%</text>
<text text-anchor="middle" x="628" y="-178.3" font-family="Helvetica,sans-Serif" font-size="14.00">value = [0.0, 1.0]</text>
</g>
<!-- 7&#45;&gt;8 -->
<g id="edge8" class="edge"><title>7&#45;&gt;8</title>
<path fill="none" stroke="black" d="M728.869,-259.368C713.298,-249.894 695.478,-239.053 679.191,-229.144"/>
<polygon fill="black" stroke="black" points="680.687,-225.957 670.324,-223.75 677.048,-231.937 680.687,-225.957"/>
</g>
<!-- 13 -->
<g id="node14" class="node"><title>13</title>
<path fill="#399de5" fill-opacity="0.800000" stroke="black" d="M819.5,-38C819.5,-38 722.5,-38 722.5,-38 716.5,-38 710.5,-32 710.5,-26 710.5,-26 710.5,-12 710.5,-12 710.5,-6 716.5,-0 722.5,-0 722.5,-0 819.5,-0 819.5,-0 825.5,-0 831.5,-6 831.5,-12 831.5,-12 831.5,-26 831.5,-26 831.5,-32 825.5,-38 819.5,-38"/>
<text text-anchor="middle" x="771" y="-22.8" font-family="Helvetica,sans-Serif" font-size="14.00">samples = 3.8%</text>
<text text-anchor="middle" x="771" y="-7.8" font-family="Helvetica,sans-Serif" font-size="14.00">value = [0.2, 0.8]</text>
</g>
<!-- 7&#45;&gt;13 -->
<g id="edge13" class="edge"><title>7&#45;&gt;13</title>
<path fill="none" stroke="black" d="M771,-259.108C771,-209.257 771,-100.303 771,-48.4801"/>
<polygon fill="black" stroke="black" points="774.5,-48.3305 771,-38.3305 767.5,-48.3306 774.5,-48.3305"/>
</g>
<!-- 9 -->
<g id="node10" class="node"><title>9</title>
<path fill="#399de5" fill-opacity="0.917647" stroke="black" d="M533.5,-134.5C533.5,-134.5 436.5,-134.5 436.5,-134.5 430.5,-134.5 424.5,-128.5 424.5,-122.5 424.5,-122.5 424.5,-93.5 424.5,-93.5 424.5,-87.5 430.5,-81.5 436.5,-81.5 436.5,-81.5 533.5,-81.5 533.5,-81.5 539.5,-81.5 545.5,-87.5 545.5,-93.5 545.5,-93.5 545.5,-122.5 545.5,-122.5 545.5,-128.5 539.5,-134.5 533.5,-134.5"/>
<text text-anchor="middle" x="485" y="-119.3" font-family="Helvetica,sans-Serif" font-size="14.00">fur length &lt;= 2.0</text>
<text text-anchor="middle" x="485" y="-104.3" font-family="Helvetica,sans-Serif" font-size="14.00">samples = 8.2%</text>
<text text-anchor="middle" x="485" y="-89.3" font-family="Helvetica,sans-Serif" font-size="14.00">value = [0.1, 0.9]</text>
</g>
<!-- 8&#45;&gt;9 -->
<g id="edge9" class="edge"><title>8&#45;&gt;9</title>
<path fill="none" stroke="black" d="M585.869,-170.368C570.298,-160.894 552.478,-150.053 536.191,-140.144"/>
<polygon fill="black" stroke="black" points="537.687,-136.957 527.324,-134.75 534.048,-142.937 537.687,-136.957"/>
</g>
<!-- 12 -->
<g id="node13" class="node"><title>12</title>
<path fill="#399de5" stroke="black" d="M680,-38C680,-38 576,-38 576,-38 570,-38 564,-32 564,-26 564,-26 564,-12 564,-12 564,-6 570,-0 576,-0 576,-0 680,-0 680,-0 686,-0 692,-6 692,-12 692,-12 692,-26 692,-26 692,-32 686,-38 680,-38"/>
<text text-anchor="middle" x="628" y="-22.8" font-family="Helvetica,sans-Serif" font-size="14.00">samples = 17.7%</text>
<text text-anchor="middle" x="628" y="-7.8" font-family="Helvetica,sans-Serif" font-size="14.00">value = [0.0, 1.0]</text>
</g>
<!-- 8&#45;&gt;12 -->
<g id="edge12" class="edge"><title>8&#45;&gt;12</title>
<path fill="none" stroke="black" d="M628,-170.408C628,-137.89 628,-81.9465 628,-48.2207"/>
<polygon fill="black" stroke="black" points="631.5,-48.1092 628,-38.1093 624.5,-48.1093 631.5,-48.1092"/>
</g>
<!-- 10 -->
<g id="node11" class="node"><title>10</title>
<path fill="#399de5" stroke="black" d="M394.5,-38C394.5,-38 297.5,-38 297.5,-38 291.5,-38 285.5,-32 285.5,-26 285.5,-26 285.5,-12 285.5,-12 285.5,-6 291.5,-0 297.5,-0 297.5,-0 394.5,-0 394.5,-0 400.5,-0 406.5,-6 406.5,-12 406.5,-12 406.5,-26 406.5,-26 406.5,-32 400.5,-38 394.5,-38"/>
<text text-anchor="middle" x="346" y="-22.8" font-family="Helvetica,sans-Serif" font-size="14.00">samples = 4.4%</text>
<text text-anchor="middle" x="346" y="-7.8" font-family="Helvetica,sans-Serif" font-size="14.00">value = [0.0, 1.0]</text>
</g>
<!-- 9&#45;&gt;10 -->
<g id="edge10" class="edge"><title>9&#45;&gt;10</title>
<path fill="none" stroke="black" d="M444.047,-81.3677C424.828,-69.3386 402.084,-55.1032 383.343,-43.3728"/>
<polygon fill="black" stroke="black" points="385.103,-40.3454 374.769,-38.0067 381.389,-46.279 385.103,-40.3454"/>
</g>
<!-- 11 -->
<g id="node12" class="node"><title>11</title>
<path fill="#399de5" fill-opacity="0.800000" stroke="black" d="M533.5,-38C533.5,-38 436.5,-38 436.5,-38 430.5,-38 424.5,-32 424.5,-26 424.5,-26 424.5,-12 424.5,-12 424.5,-6 430.5,-0 436.5,-0 436.5,-0 533.5,-0 533.5,-0 539.5,-0 545.5,-6 545.5,-12 545.5,-12 545.5,-26 545.5,-26 545.5,-32 539.5,-38 533.5,-38"/>
<text text-anchor="middle" x="485" y="-22.8" font-family="Helvetica,sans-Serif" font-size="14.00">samples = 3.8%</text>
<text text-anchor="middle" x="485" y="-7.8" font-family="Helvetica,sans-Serif" font-size="14.00">value = [0.2, 0.8]</text>
</g>
<!-- 9&#45;&gt;11 -->
<g id="edge11" class="edge"><title>9&#45;&gt;11</title>
<path fill="none" stroke="black" d="M485,-81.3677C485,-70.9171 485,-58.8012 485,-48.1094"/>
<polygon fill="black" stroke="black" points="488.5,-48.0066 485,-38.0067 481.5,-48.0067 488.5,-48.0066"/>
</g>
<!-- 16 -->
<g id="node17" class="node"><title>16</title>
<path fill="#e58139" fill-opacity="0.686275" stroke="black" d="M1170,-312.5C1170,-312.5 1066,-312.5 1066,-312.5 1060,-312.5 1054,-306.5 1054,-300.5 1054,-300.5 1054,-271.5 1054,-271.5 1054,-265.5 1060,-259.5 1066,-259.5 1066,-259.5 1170,-259.5 1170,-259.5 1176,-259.5 1182,-265.5 1182,-271.5 1182,-271.5 1182,-300.5 1182,-300.5 1182,-306.5 1176,-312.5 1170,-312.5"/>
<text text-anchor="middle" x="1118" y="-297.3" font-family="Helvetica,sans-Serif" font-size="14.00">fur length &lt;= 2.8</text>
<text text-anchor="middle" x="1118" y="-282.3" font-family="Helvetica,sans-Serif" font-size="14.00">samples = 13.3%</text>
<text text-anchor="middle" x="1118" y="-267.3" font-family="Helvetica,sans-Serif" font-size="14.00">value = [0.8, 0.2]</text>
</g>
<!-- 15&#45;&gt;16 -->
<g id="edge16" class="edge"><title>15&#45;&gt;16</title>
<path fill="none" stroke="black" d="M1118,-348.368C1118,-340.386 1118,-331.432 1118,-322.884"/>
<polygon fill="black" stroke="black" points="1121.5,-322.75 1118,-312.75 1114.5,-322.75 1121.5,-322.75"/>
</g>
<!-- 19 -->
<g id="node20" class="node"><title>19</title>
<path fill="#399de5" fill-opacity="0.870588" stroke="black" d="M1379,-312.5C1379,-312.5 1275,-312.5 1275,-312.5 1269,-312.5 1263,-306.5 1263,-300.5 1263,-300.5 1263,-271.5 1263,-271.5 1263,-265.5 1269,-259.5 1275,-259.5 1275,-259.5 1379,-259.5 1379,-259.5 1385,-259.5 1391,-265.5 1391,-271.5 1391,-271.5 1391,-300.5 1391,-300.5 1391,-306.5 1385,-312.5 1379,-312.5"/>
<text text-anchor="middle" x="1327" y="-297.3" font-family="Helvetica,sans-Serif" font-size="14.00">fur length &lt;= 2.6</text>
<text text-anchor="middle" x="1327" y="-282.3" font-family="Helvetica,sans-Serif" font-size="14.00">samples = 16.5%</text>
<text text-anchor="middle" x="1327" y="-267.3" font-family="Helvetica,sans-Serif" font-size="14.00">value = [0.1, 0.9]</text>
</g>
<!-- 15&#45;&gt;19 -->
<g id="edge19" class="edge"><title>15&#45;&gt;19</title>
<path fill="none" stroke="black" d="M1179.29,-348.485C1203.43,-338.437 1231.3,-326.836 1256.29,-316.436"/>
<polygon fill="black" stroke="black" points="1257.82,-319.589 1265.71,-312.515 1255.13,-313.126 1257.82,-319.589"/>
</g>
<!-- 17 -->
<g id="node18" class="node"><title>17</title>
<path fill="#e58139" stroke="black" d="M1097.5,-38C1097.5,-38 1000.5,-38 1000.5,-38 994.5,-38 988.5,-32 988.5,-26 988.5,-26 988.5,-12 988.5,-12 988.5,-6 994.5,-0 1000.5,-0 1000.5,-0 1097.5,-0 1097.5,-0 1103.5,-0 1109.5,-6 1109.5,-12 1109.5,-12 1109.5,-26 1109.5,-26 1109.5,-32 1103.5,-38 1097.5,-38"/>
<text text-anchor="middle" x="1049" y="-22.8" font-family="Helvetica,sans-Serif" font-size="14.00">samples = 8.2%</text>
<text text-anchor="middle" x="1049" y="-7.8" font-family="Helvetica,sans-Serif" font-size="14.00">value = [1.0, 0.0]</text>
</g>
<!-- 16&#45;&gt;17 -->
<g id="edge17" class="edge"><title>16&#45;&gt;17</title>
<path fill="none" stroke="black" d="M1111.26,-259.108C1098.25,-209.153 1069.79,-99.8472 1056.33,-48.1556"/>
<polygon fill="black" stroke="black" points="1059.68,-47.1259 1053.77,-38.3305 1052.91,-48.8898 1059.68,-47.1259"/>
</g>
<!-- 18 -->
<g id="node19" class="node"><title>18</title>
<path fill="#399de5" fill-opacity="0.400000" stroke="black" d="M1236.5,-38C1236.5,-38 1139.5,-38 1139.5,-38 1133.5,-38 1127.5,-32 1127.5,-26 1127.5,-26 1127.5,-12 1127.5,-12 1127.5,-6 1133.5,-0 1139.5,-0 1139.5,-0 1236.5,-0 1236.5,-0 1242.5,-0 1248.5,-6 1248.5,-12 1248.5,-12 1248.5,-26 1248.5,-26 1248.5,-32 1242.5,-38 1236.5,-38"/>
<text text-anchor="middle" x="1188" y="-22.8" font-family="Helvetica,sans-Serif" font-size="14.00">samples = 5.1%</text>
<text text-anchor="middle" x="1188" y="-7.8" font-family="Helvetica,sans-Serif" font-size="14.00">value = [0.4, 0.6]</text>
</g>
<!-- 16&#45;&gt;18 -->
<g id="edge18" class="edge"><title>16&#45;&gt;18</title>
<path fill="none" stroke="black" d="M1124.84,-259.108C1138.04,-209.153 1166.91,-99.8472 1180.56,-48.1556"/>
<polygon fill="black" stroke="black" points="1183.99,-48.8928 1183.16,-38.3305 1177.22,-47.105 1183.99,-48.8928"/>
</g>
<!-- 20 -->
<g id="node21" class="node"><title>20</title>
<path fill="#399de5" fill-opacity="0.498039" stroke="black" d="M1375.5,-38C1375.5,-38 1278.5,-38 1278.5,-38 1272.5,-38 1266.5,-32 1266.5,-26 1266.5,-26 1266.5,-12 1266.5,-12 1266.5,-6 1272.5,-0 1278.5,-0 1278.5,-0 1375.5,-0 1375.5,-0 1381.5,-0 1387.5,-6 1387.5,-12 1387.5,-12 1387.5,-26 1387.5,-26 1387.5,-32 1381.5,-38 1375.5,-38"/>
<text text-anchor="middle" x="1327" y="-22.8" font-family="Helvetica,sans-Serif" font-size="14.00">samples = 5.7%</text>
<text text-anchor="middle" x="1327" y="-7.8" font-family="Helvetica,sans-Serif" font-size="14.00">value = [0.3, 0.7]</text>
</g>
<!-- 19&#45;&gt;20 -->
<g id="edge20" class="edge"><title>19&#45;&gt;20</title>
<path fill="none" stroke="black" d="M1327,-259.108C1327,-209.257 1327,-100.303 1327,-48.4801"/>
<polygon fill="black" stroke="black" points="1330.5,-48.3305 1327,-38.3305 1323.5,-48.3306 1330.5,-48.3305"/>
</g>
<!-- 21 -->
<g id="node22" class="node"><title>21</title>
<path fill="#399de5" stroke="black" d="M1522,-38C1522,-38 1418,-38 1418,-38 1412,-38 1406,-32 1406,-26 1406,-26 1406,-12 1406,-12 1406,-6 1412,-0 1418,-0 1418,-0 1522,-0 1522,-0 1528,-0 1534,-6 1534,-12 1534,-12 1534,-26 1534,-26 1534,-32 1528,-38 1522,-38"/>
<text text-anchor="middle" x="1470" y="-22.8" font-family="Helvetica,sans-Serif" font-size="14.00">samples = 10.8%</text>
<text text-anchor="middle" x="1470" y="-7.8" font-family="Helvetica,sans-Serif" font-size="14.00">value = [0.0, 1.0]</text>
</g>
<!-- 19&#45;&gt;21 -->
<g id="edge21" class="edge"><title>19&#45;&gt;21</title>
<path fill="none" stroke="black" d="M1340.97,-259.108C1368.1,-208.84 1427.65,-98.4757 1455.33,-47.1911"/>
<polygon fill="black" stroke="black" points="1458.44,-48.7931 1460.11,-38.3305 1452.28,-45.4688 1458.44,-48.7931"/>
</g>
</g>
</svg>
