<?xml version="1.0" encoding="UTF-8" standalone="no"?>
<!DOCTYPE svg PUBLIC "-//W3C//DTD SVG 1.1//EN"
 "http://www.w3.org/Graphics/SVG/1.1/DTD/svg11.dtd">
<!-- Generated by graphviz version 2.38.0 (20140413.2041)
 -->
<!-- Title: Tree Pages: 1 -->
<svg width="566pt" height="232pt"
 viewBox="0.00 0.00 565.50 231.50" xmlns="http://www.w3.org/2000/svg" xmlns:xlink="http://www.w3.org/1999/xlink">
<g id="graph0" class="graph" transform="scale(1 1) rotate(0) translate(4 227.5)">
<title>Tree</title>
<polygon fill="white" stroke="none" points="-4,4 -4,-227.5 561.5,-227.5 561.5,4 -4,4"/>
<!-- 0 -->
<g id="node1" class="node"><title>0</title>
<path fill="#e58139" fill-opacity="0.600000" stroke="black" d="M330.5,-223.5C330.5,-223.5 218.5,-223.5 218.5,-223.5 212.5,-223.5 206.5,-217.5 206.5,-211.5 206.5,-211.5 206.5,-182.5 206.5,-182.5 206.5,-176.5 212.5,-170.5 218.5,-170.5 218.5,-170.5 330.5,-170.5 330.5,-170.5 336.5,-170.5 342.5,-176.5 342.5,-182.5 342.5,-182.5 342.5,-211.5 342.5,-211.5 342.5,-217.5 336.5,-223.5 330.5,-223.5"/>
<text text-anchor="middle" x="274.5" y="-208.3" font-family="Helvetica,sans-Serif" font-size="14.00">age &lt;= 58.6</text>
<text text-anchor="middle" x="274.5" y="-193.3" font-family="Helvetica,sans-Serif" font-size="14.00">samples = 100.0%</text>
<text text-anchor="middle" x="274.5" y="-178.3" font-family="Helvetica,sans-Serif" font-size="14.00">value = 6.7</text>
</g>
<!-- 1 -->
<g id="node2" class="node"><title>1</title>
<path fill="#e58139" fill-opacity="0.886275" stroke="black" d="M253.5,-134.5C253.5,-134.5 149.5,-134.5 149.5,-134.5 143.5,-134.5 137.5,-128.5 137.5,-122.5 137.5,-122.5 137.5,-93.5 137.5,-93.5 137.5,-87.5 143.5,-81.5 149.5,-81.5 149.5,-81.5 253.5,-81.5 253.5,-81.5 259.5,-81.5 265.5,-87.5 265.5,-93.5 265.5,-93.5 265.5,-122.5 265.5,-122.5 265.5,-128.5 259.5,-134.5 253.5,-134.5"/>
<text text-anchor="middle" x="201.5" y="-119.3" font-family="Helvetica,sans-Serif" font-size="14.00">age &lt;= 7.8</text>
<text text-anchor="middle" x="201.5" y="-104.3" font-family="Helvetica,sans-Serif" font-size="14.00">samples = 59.0%</text>
<text text-anchor="middle" x="201.5" y="-89.3" font-family="Helvetica,sans-Serif" font-size="14.00">value = 8.9</text>
</g>
<!-- 0&#45;&gt;1 -->
<g id="edge1" class="edge"><title>0&#45;&gt;1</title>
<path fill="none" stroke="black" d="M252.992,-170.368C245.706,-161.684 237.455,-151.85 229.726,-142.639"/>
<polygon fill="black" stroke="black" points="232.215,-140.161 223.106,-134.75 226.853,-144.66 232.215,-140.161"/>
<text text-anchor="middle" x="220.927" y="-155.955" font-family="Helvetica,sans-Serif" font-size="14.00">True</text>
</g>
<!-- 4 -->
<g id="node5" class="node"><title>4</title>
<path fill="#e58139" fill-opacity="0.184314" stroke="black" d="M399.5,-134.5C399.5,-134.5 295.5,-134.5 295.5,-134.5 289.5,-134.5 283.5,-128.5 283.5,-122.5 283.5,-122.5 283.5,-93.5 283.5,-93.5 283.5,-87.5 289.5,-81.5 295.5,-81.5 295.5,-81.5 399.5,-81.5 399.5,-81.5 405.5,-81.5 411.5,-87.5 411.5,-93.5 411.5,-93.5 411.5,-122.5 411.5,-122.5 411.5,-128.5 405.5,-134.5 399.5,-134.5"/>
<text text-anchor="middle" x="347.5" y="-119.3" font-family="Helvetica,sans-Serif" font-size="14.00">age &lt;= 76.8</text>
<text text-anchor="middle" x="347.5" y="-104.3" font-family="Helvetica,sans-Serif" font-size="14.00">samples = 41.0%</text>
<text text-anchor="middle" x="347.5" y="-89.3" font-family="Helvetica,sans-Serif" font-size="14.00">value = 3.5</text>
</g>
<!-- 0&#45;&gt;4 -->
<g id="edge4" class="edge"><title>0&#45;&gt;4</title>
<path fill="none" stroke="black" d="M296.008,-170.368C303.294,-161.684 311.545,-151.85 319.274,-142.639"/>
<polygon fill="black" stroke="black" points="322.147,-144.66 325.894,-134.75 316.785,-140.161 322.147,-144.66"/>
<text text-anchor="middle" x="328.073" y="-155.955" font-family="Helvetica,sans-Serif" font-size="14.00">False</text>
</g>
<!-- 2 -->
<g id="node3" class="node"><title>2</title>
<path fill="#e58139" fill-opacity="0.172549" stroke="black" d="M107,-38C107,-38 12,-38 12,-38 6,-38 -7.10543e-015,-32 -7.10543e-015,-26 -7.10543e-015,-26 -7.10543e-015,-12 -7.10543e-015,-12 -7.10543e-015,-6 6,-0 12,-0 12,-0 107,-0 107,-0 113,-0 119,-6 119,-12 119,-12 119,-26 119,-26 119,-32 113,-38 107,-38"/>
<text text-anchor="middle" x="59.5" y="-22.8" font-family="Helvetica,sans-Serif" font-size="14.00">samples = 8.0%</text>
<text text-anchor="middle" x="59.5" y="-7.8" font-family="Helvetica,sans-Serif" font-size="14.00">value = 3.4</text>
</g>
<!-- 1&#45;&gt;2 -->
<g id="edge2" class="edge"><title>1&#45;&gt;2</title>
<path fill="none" stroke="black" d="M159.663,-81.3677C140.03,-69.3386 116.795,-55.1032 97.6486,-43.3728"/>
<polygon fill="black" stroke="black" points="99.2456,-40.2465 88.8902,-38.0067 95.5886,-46.2153 99.2456,-40.2465"/>
</g>
<!-- 3 -->
<g id="node4" class="node"><title>3</title>
<path fill="#e58139" stroke="black" d="M253.5,-38C253.5,-38 149.5,-38 149.5,-38 143.5,-38 137.5,-32 137.5,-26 137.5,-26 137.5,-12 137.5,-12 137.5,-6 143.5,-0 149.5,-0 149.5,-0 253.5,-0 253.5,-0 259.5,-0 265.5,-6 265.5,-12 265.5,-12 265.5,-26 265.5,-26 265.5,-32 259.5,-38 253.5,-38"/>
<text text-anchor="middle" x="201.5" y="-22.8" font-family="Helvetica,sans-Serif" font-size="14.00">samples = 51.0%</text>
<text text-anchor="middle" x="201.5" y="-7.8" font-family="Helvetica,sans-Serif" font-size="14.00">value = 9.7</text>
</g>
<!-- 1&#45;&gt;3 -->
<g id="edge3" class="edge"><title>1&#45;&gt;3</title>
<path fill="none" stroke="black" d="M201.5,-81.3677C201.5,-70.9171 201.5,-58.8012 201.5,-48.1094"/>
<polygon fill="black" stroke="black" points="205,-48.0066 201.5,-38.0067 198,-48.0067 205,-48.0066"/>
</g>
<!-- 5 -->
<g id="node6" class="node"><title>5</title>
<path fill="#e58139" fill-opacity="0.419608" stroke="black" d="M399.5,-38C399.5,-38 295.5,-38 295.5,-38 289.5,-38 283.5,-32 283.5,-26 283.5,-26 283.5,-12 283.5,-12 283.5,-6 289.5,-0 295.5,-0 295.5,-0 399.5,-0 399.5,-0 405.5,-0 411.5,-6 411.5,-12 411.5,-12 411.5,-26 411.5,-26 411.5,-32 405.5,-38 399.5,-38"/>
<text text-anchor="middle" x="347.5" y="-22.8" font-family="Helvetica,sans-Serif" font-size="14.00">samples = 18.0%</text>
<text text-anchor="middle" x="347.5" y="-7.8" font-family="Helvetica,sans-Serif" font-size="14.00">value = 5.3</text>
</g>
<!-- 4&#45;&gt;5 -->
<g id="edge5" class="edge"><title>4&#45;&gt;5</title>
<path fill="none" stroke="black" d="M347.5,-81.3677C347.5,-70.9171 347.5,-58.8012 347.5,-48.1094"/>
<polygon fill="black" stroke="black" points="351,-48.0066 347.5,-38.0067 344,-48.0067 351,-48.0066"/>
</g>
<!-- 6 -->
<g id="node7" class="node"><title>6</title>
<path fill="none" stroke="black" d="M545.5,-38C545.5,-38 441.5,-38 441.5,-38 435.5,-38 429.5,-32 429.5,-26 429.5,-26 429.5,-12 429.5,-12 429.5,-6 435.5,-0 441.5,-0 441.5,-0 545.5,-0 545.5,-0 551.5,-0 557.5,-6 557.5,-12 557.5,-12 557.5,-26 557.5,-26 557.5,-32 551.5,-38 545.5,-38"/>
<text text-anchor="middle" x="493.5" y="-22.8" font-family="Helvetica,sans-Serif" font-size="14.00">samples = 23.0%</text>
<text text-anchor="middle" x="493.5" y="-7.8" font-family="Helvetica,sans-Serif" font-size="14.00">value = 2.1</text>
</g>
<!-- 4&#45;&gt;6 -->
<g id="edge6" class="edge"><title>4&#45;&gt;6</title>
<path fill="none" stroke="black" d="M390.515,-81.3677C410.793,-69.2842 434.807,-54.9743 454.544,-43.2137"/>
<polygon fill="black" stroke="black" points="456.483,-46.1324 463.282,-38.0067 452.9,-40.119 456.483,-46.1324"/>
</g>
</g>
</svg>
