<?xml version="1.0" encoding="UTF-8" standalone="no"?>
<!DOCTYPE svg PUBLIC "-//W3C//DTD SVG 1.1//EN"
 "http://www.w3.org/Graphics/SVG/1.1/DTD/svg11.dtd">
<!-- Generated by graphviz version 2.38.0 (20140413.2041)
 -->
<!-- Title: Tree Pages: 1 -->
<svg width="2230pt" height="677pt"
 viewBox="0.00 0.00 2229.50 676.50" xmlns="http://www.w3.org/2000/svg" xmlns:xlink="http://www.w3.org/1999/xlink">
<g id="graph0" class="graph" transform="scale(1 1) rotate(0) translate(4 672.5)">
<title>Tree</title>
<polygon fill="white" stroke="none" points="-4,4 -4,-672.5 2225.5,-672.5 2225.5,4 -4,4"/>
<!-- 0 -->
<g id="node1" class="node"><title>0</title>
<path fill="#e58139" fill-opacity="0.078431" stroke="black" d="M733,-668.5C733,-668.5 621,-668.5 621,-668.5 615,-668.5 609,-662.5 609,-656.5 609,-656.5 609,-627.5 609,-627.5 609,-621.5 615,-615.5 621,-615.5 621,-615.5 733,-615.5 733,-615.5 739,-615.5 745,-621.5 745,-627.5 745,-627.5 745,-656.5 745,-656.5 745,-662.5 739,-668.5 733,-668.5"/>
<text text-anchor="middle" x="677" y="-653.3" font-family="Helvetica,sans-Serif" font-size="14.00">weight &lt;= 7.1</text>
<text text-anchor="middle" x="677" y="-638.3" font-family="Helvetica,sans-Serif" font-size="14.00">samples = 100.0%</text>
<text text-anchor="middle" x="677" y="-623.3" font-family="Helvetica,sans-Serif" font-size="14.00">value = [0.5, 0.5]</text>
</g>
<!-- 1 -->
<g id="node2" class="node"><title>1</title>
<path fill="#e58139" fill-opacity="0.921569" stroke="black" d="M537,-579.5C537,-579.5 433,-579.5 433,-579.5 427,-579.5 421,-573.5 421,-567.5 421,-567.5 421,-538.5 421,-538.5 421,-532.5 427,-526.5 433,-526.5 433,-526.5 537,-526.5 537,-526.5 543,-526.5 549,-532.5 549,-538.5 549,-538.5 549,-567.5 549,-567.5 549,-573.5 543,-579.5 537,-579.5"/>
<text text-anchor="middle" x="485" y="-564.3" font-family="Helvetica,sans-Serif" font-size="14.00">fur length &lt;= 4.2</text>
<text text-anchor="middle" x="485" y="-549.3" font-family="Helvetica,sans-Serif" font-size="14.00">samples = 24.6%</text>
<text text-anchor="middle" x="485" y="-534.3" font-family="Helvetica,sans-Serif" font-size="14.00">value = [0.9, 0.1]</text>
</g>
<!-- 0&#45;&gt;1 -->
<g id="edge1" class="edge"><title>0&#45;&gt;1</title>
<path fill="none" stroke="black" d="M620.691,-615.485C598.712,-605.526 573.364,-594.04 550.569,-583.711"/>
<polygon fill="black" stroke="black" points="551.861,-580.454 541.308,-579.515 548.972,-586.83 551.861,-580.454"/>
<text text-anchor="middle" x="550.114" y="-599.212" font-family="Helvetica,sans-Serif" font-size="14.00">True</text>
</g>
<!-- 8 -->
<g id="node9" class="node"><title>8</title>
<path fill="#399de5" fill-opacity="0.368627" stroke="black" d="M922,-579.5C922,-579.5 818,-579.5 818,-579.5 812,-579.5 806,-573.5 806,-567.5 806,-567.5 806,-538.5 806,-538.5 806,-532.5 812,-526.5 818,-526.5 818,-526.5 922,-526.5 922,-526.5 928,-526.5 934,-532.5 934,-538.5 934,-538.5 934,-567.5 934,-567.5 934,-573.5 928,-579.5 922,-579.5"/>
<text text-anchor="middle" x="870" y="-564.3" font-family="Helvetica,sans-Serif" font-size="14.00">weight &lt;= 93.1</text>
<text text-anchor="middle" x="870" y="-549.3" font-family="Helvetica,sans-Serif" font-size="14.00">samples = 75.4%</text>
<text text-anchor="middle" x="870" y="-534.3" font-family="Helvetica,sans-Serif" font-size="14.00">value = [0.4, 0.6]</text>
</g>
<!-- 0&#45;&gt;8 -->
<g id="edge8" class="edge"><title>0&#45;&gt;8</title>
<path fill="none" stroke="black" d="M733.602,-615.485C755.696,-605.526 781.176,-594.04 804.089,-583.711"/>
<polygon fill="black" stroke="black" points="805.721,-586.815 813.399,-579.515 802.844,-580.433 805.721,-586.815"/>
<text text-anchor="middle" x="804.547" y="-599.195" font-family="Helvetica,sans-Serif" font-size="14.00">False</text>
</g>
<!-- 2 -->
<g id="node3" class="node"><title>2</title>
<path fill="#e58139" fill-opacity="0.972549" stroke="black" d="M329,-490.5C329,-490.5 225,-490.5 225,-490.5 219,-490.5 213,-484.5 213,-478.5 213,-478.5 213,-449.5 213,-449.5 213,-443.5 219,-437.5 225,-437.5 225,-437.5 329,-437.5 329,-437.5 335,-437.5 341,-443.5 341,-449.5 341,-449.5 341,-478.5 341,-478.5 341,-484.5 335,-490.5 329,-490.5"/>
<text text-anchor="middle" x="277" y="-475.3" font-family="Helvetica,sans-Serif" font-size="14.00">weight &lt;= 5.1</text>
<text text-anchor="middle" x="277" y="-460.3" font-family="Helvetica,sans-Serif" font-size="14.00">samples = 21.1%</text>
<text text-anchor="middle" x="277" y="-445.3" font-family="Helvetica,sans-Serif" font-size="14.00">value = [1.0, 0.0]</text>
</g>
<!-- 1&#45;&gt;2 -->
<g id="edge2" class="edge"><title>1&#45;&gt;2</title>
<path fill="none" stroke="black" d="M423.999,-526.485C399.976,-516.437 372.239,-504.836 347.375,-494.436"/>
<polygon fill="black" stroke="black" points="348.576,-491.144 338,-490.515 345.875,-497.602 348.576,-491.144"/>
</g>
<!-- 7 -->
<g id="node8" class="node"><title>7</title>
<path fill="#e58139" fill-opacity="0.498039" stroke="black" d="M533.5,-38C533.5,-38 436.5,-38 436.5,-38 430.5,-38 424.5,-32 424.5,-26 424.5,-26 424.5,-12 424.5,-12 424.5,-6 430.5,-0 436.5,-0 436.5,-0 533.5,-0 533.5,-0 539.5,-0 545.5,-6 545.5,-12 545.5,-12 545.5,-26 545.5,-26 545.5,-32 539.5,-38 533.5,-38"/>
<text text-anchor="middle" x="485" y="-22.8" font-family="Helvetica,sans-Serif" font-size="14.00">samples = 3.5%</text>
<text text-anchor="middle" x="485" y="-7.8" font-family="Helvetica,sans-Serif" font-size="14.00">value = [0.7, 0.3]</text>
</g>
<!-- 1&#45;&gt;7 -->
<g id="edge7" class="edge"><title>1&#45;&gt;7</title>
<path fill="none" stroke="black" d="M485,-526.408C485,-477.595 485,-376 485,-376 485,-376 485,-376 485,-196 485,-196 485,-98.0426 485,-48.2881"/>
<polygon fill="black" stroke="black" points="488.5,-48.1722 485,-38.1722 481.5,-48.1722 488.5,-48.1722"/>
</g>
<!-- 3 -->
<g id="node4" class="node"><title>3</title>
<path fill="#e58139" stroke="black" d="M116,-38C116,-38 12,-38 12,-38 6,-38 0,-32 0,-26 0,-26 0,-12 0,-12 0,-6 6,-0 12,-0 12,-0 116,-0 116,-0 122,-0 128,-6 128,-12 128,-12 128,-26 128,-26 128,-32 122,-38 116,-38"/>
<text text-anchor="middle" x="64" y="-22.8" font-family="Helvetica,sans-Serif" font-size="14.00">samples = 11.1%</text>
<text text-anchor="middle" x="64" y="-7.8" font-family="Helvetica,sans-Serif" font-size="14.00">value = [1.0, 0.0]</text>
</g>
<!-- 2&#45;&gt;3 -->
<g id="edge3" class="edge"><title>2&#45;&gt;3</title>
<path fill="none" stroke="black" d="M246.028,-437.408C186.953,-388.595 64,-287 64,-287 64,-287 64,-287 64,-196 64,-196 64,-98.0426 64,-48.2881"/>
<polygon fill="black" stroke="black" points="67.5001,-48.1722 64,-38.1722 60.5001,-48.1722 67.5001,-48.1722"/>
</g>
<!-- 4 -->
<g id="node5" class="node"><title>4</title>
<path fill="#e58139" fill-opacity="0.937255" stroke="black" d="M325.5,-401.5C325.5,-401.5 228.5,-401.5 228.5,-401.5 222.5,-401.5 216.5,-395.5 216.5,-389.5 216.5,-389.5 216.5,-360.5 216.5,-360.5 216.5,-354.5 222.5,-348.5 228.5,-348.5 228.5,-348.5 325.5,-348.5 325.5,-348.5 331.5,-348.5 337.5,-354.5 337.5,-360.5 337.5,-360.5 337.5,-389.5 337.5,-389.5 337.5,-395.5 331.5,-401.5 325.5,-401.5"/>
<text text-anchor="middle" x="277" y="-386.3" font-family="Helvetica,sans-Serif" font-size="14.00">weight &lt;= 5.9</text>
<text text-anchor="middle" x="277" y="-371.3" font-family="Helvetica,sans-Serif" font-size="14.00">samples = 9.9%</text>
<text text-anchor="middle" x="277" y="-356.3" font-family="Helvetica,sans-Serif" font-size="14.00">value = [0.9, 0.1]</text>
</g>
<!-- 2&#45;&gt;4 -->
<g id="edge4" class="edge"><title>2&#45;&gt;4</title>
<path fill="none" stroke="black" d="M277,-437.368C277,-429.386 277,-420.432 277,-411.884"/>
<polygon fill="black" stroke="black" points="280.5,-411.75 277,-401.75 273.5,-411.75 280.5,-411.75"/>
</g>
<!-- 5 -->
<g id="node6" class="node"><title>5</title>
<path fill="#e58139" fill-opacity="0.800000" stroke="black" d="M255.5,-38C255.5,-38 158.5,-38 158.5,-38 152.5,-38 146.5,-32 146.5,-26 146.5,-26 146.5,-12 146.5,-12 146.5,-6 152.5,-0 158.5,-0 158.5,-0 255.5,-0 255.5,-0 261.5,-0 267.5,-6 267.5,-12 267.5,-12 267.5,-26 267.5,-26 267.5,-32 261.5,-38 255.5,-38"/>
<text text-anchor="middle" x="207" y="-22.8" font-family="Helvetica,sans-Serif" font-size="14.00">samples = 3.5%</text>
<text text-anchor="middle" x="207" y="-7.8" font-family="Helvetica,sans-Serif" font-size="14.00">value = [0.8, 0.2]</text>
</g>
<!-- 4&#45;&gt;5 -->
<g id="edge5" class="edge"><title>4&#45;&gt;5</title>
<path fill="none" stroke="black" d="M271.909,-348.256C259.128,-283.617 225.762,-114.881 212.526,-47.9457"/>
<polygon fill="black" stroke="black" points="215.954,-47.2397 210.581,-38.1086 209.087,-48.5976 215.954,-47.2397"/>
</g>
<!-- 6 -->
<g id="node7" class="node"><title>6</title>
<path fill="#e58139" stroke="black" d="M394.5,-38C394.5,-38 297.5,-38 297.5,-38 291.5,-38 285.5,-32 285.5,-26 285.5,-26 285.5,-12 285.5,-12 285.5,-6 291.5,-0 297.5,-0 297.5,-0 394.5,-0 394.5,-0 400.5,-0 406.5,-6 406.5,-12 406.5,-12 406.5,-26 406.5,-26 406.5,-32 400.5,-38 394.5,-38"/>
<text text-anchor="middle" x="346" y="-22.8" font-family="Helvetica,sans-Serif" font-size="14.00">samples = 6.4%</text>
<text text-anchor="middle" x="346" y="-7.8" font-family="Helvetica,sans-Serif" font-size="14.00">value = [1.0, 0.0]</text>
</g>
<!-- 4&#45;&gt;6 -->
<g id="edge6" class="edge"><title>4&#45;&gt;6</title>
<path fill="none" stroke="black" d="M282.018,-348.256C294.617,-283.617 327.506,-114.881 340.553,-47.9457"/>
<polygon fill="black" stroke="black" points="343.992,-48.5935 342.47,-38.1086 337.122,-47.2542 343.992,-48.5935"/>
</g>
<!-- 9 -->
<g id="node10" class="node"><title>9</title>
<path fill="#399de5" fill-opacity="0.564706" stroke="black" d="M922,-490.5C922,-490.5 818,-490.5 818,-490.5 812,-490.5 806,-484.5 806,-478.5 806,-478.5 806,-449.5 806,-449.5 806,-443.5 812,-437.5 818,-437.5 818,-437.5 922,-437.5 922,-437.5 928,-437.5 934,-443.5 934,-449.5 934,-449.5 934,-478.5 934,-478.5 934,-484.5 928,-490.5 922,-490.5"/>
<text text-anchor="middle" x="870" y="-475.3" font-family="Helvetica,sans-Serif" font-size="14.00">fur length &lt;= 1.5</text>
<text text-anchor="middle" x="870" y="-460.3" font-family="Helvetica,sans-Serif" font-size="14.00">samples = 65.5%</text>
<text text-anchor="middle" x="870" y="-445.3" font-family="Helvetica,sans-Serif" font-size="14.00">value = [0.3, 0.7]</text>
</g>
<!-- 8&#45;&gt;9 -->
<g id="edge9" class="edge"><title>8&#45;&gt;9</title>
<path fill="none" stroke="black" d="M870,-526.368C870,-518.386 870,-509.432 870,-500.884"/>
<polygon fill="black" stroke="black" points="873.5,-500.75 870,-490.75 866.5,-500.75 873.5,-500.75"/>
</g>
<!-- 28 -->
<g id="node29" class="node"><title>28</title>
<path fill="#e58139" fill-opacity="0.937255" stroke="black" d="M2070.5,-490.5C2070.5,-490.5 1973.5,-490.5 1973.5,-490.5 1967.5,-490.5 1961.5,-484.5 1961.5,-478.5 1961.5,-478.5 1961.5,-449.5 1961.5,-449.5 1961.5,-443.5 1967.5,-437.5 1973.5,-437.5 1973.5,-437.5 2070.5,-437.5 2070.5,-437.5 2076.5,-437.5 2082.5,-443.5 2082.5,-449.5 2082.5,-449.5 2082.5,-478.5 2082.5,-478.5 2082.5,-484.5 2076.5,-490.5 2070.5,-490.5"/>
<text text-anchor="middle" x="2022" y="-475.3" font-family="Helvetica,sans-Serif" font-size="14.00">fur length &lt;= 2.4</text>
<text text-anchor="middle" x="2022" y="-460.3" font-family="Helvetica,sans-Serif" font-size="14.00">samples = 9.9%</text>
<text text-anchor="middle" x="2022" y="-445.3" font-family="Helvetica,sans-Serif" font-size="14.00">value = [0.9, 0.1]</text>
</g>
<!-- 8&#45;&gt;28 -->
<g id="edge28" class="edge"><title>8&#45;&gt;28</title>
<path fill="none" stroke="black" d="M934.405,-547.136C1134.19,-532.048 1742.48,-486.109 1950.99,-470.363"/>
<polygon fill="black" stroke="black" points="1951.49,-473.835 1961.2,-469.591 1950.97,-466.855 1951.49,-473.835"/>
</g>
<!-- 10 -->
<g id="node11" class="node"><title>10</title>
<path fill="#e58139" fill-opacity="0.498039" stroke="black" d="M811.5,-401.5C811.5,-401.5 714.5,-401.5 714.5,-401.5 708.5,-401.5 702.5,-395.5 702.5,-389.5 702.5,-389.5 702.5,-360.5 702.5,-360.5 702.5,-354.5 708.5,-348.5 714.5,-348.5 714.5,-348.5 811.5,-348.5 811.5,-348.5 817.5,-348.5 823.5,-354.5 823.5,-360.5 823.5,-360.5 823.5,-389.5 823.5,-389.5 823.5,-395.5 817.5,-401.5 811.5,-401.5"/>
<text text-anchor="middle" x="763" y="-386.3" font-family="Helvetica,sans-Serif" font-size="14.00">weight &lt;= 36.8</text>
<text text-anchor="middle" x="763" y="-371.3" font-family="Helvetica,sans-Serif" font-size="14.00">samples = 8.8%</text>
<text text-anchor="middle" x="763" y="-356.3" font-family="Helvetica,sans-Serif" font-size="14.00">value = [0.7, 0.3]</text>
</g>
<!-- 9&#45;&gt;10 -->
<g id="edge10" class="edge"><title>9&#45;&gt;10</title>
<path fill="none" stroke="black" d="M838.475,-437.368C827.256,-428.245 814.476,-417.854 802.662,-408.249"/>
<polygon fill="black" stroke="black" points="804.636,-405.343 794.669,-401.75 800.22,-410.774 804.636,-405.343"/>
</g>
<!-- 13 -->
<g id="node14" class="node"><title>13</title>
<path fill="#399de5" fill-opacity="0.670588" stroke="black" d="M1029,-401.5C1029,-401.5 925,-401.5 925,-401.5 919,-401.5 913,-395.5 913,-389.5 913,-389.5 913,-360.5 913,-360.5 913,-354.5 919,-348.5 925,-348.5 925,-348.5 1029,-348.5 1029,-348.5 1035,-348.5 1041,-354.5 1041,-360.5 1041,-360.5 1041,-389.5 1041,-389.5 1041,-395.5 1035,-401.5 1029,-401.5"/>
<text text-anchor="middle" x="977" y="-386.3" font-family="Helvetica,sans-Serif" font-size="14.00">fur length &lt;= 3.4</text>
<text text-anchor="middle" x="977" y="-371.3" font-family="Helvetica,sans-Serif" font-size="14.00">samples = 56.7%</text>
<text text-anchor="middle" x="977" y="-356.3" font-family="Helvetica,sans-Serif" font-size="14.00">value = [0.2, 0.8]</text>
</g>
<!-- 9&#45;&gt;13 -->
<g id="edge13" class="edge"><title>9&#45;&gt;13</title>
<path fill="none" stroke="black" d="M901.525,-437.368C912.744,-428.245 925.524,-417.854 937.338,-408.249"/>
<polygon fill="black" stroke="black" points="939.78,-410.774 945.331,-401.75 935.364,-405.343 939.78,-410.774"/>
</g>
<!-- 11 -->
<g id="node12" class="node"><title>11</title>
<path fill="none" stroke="black" d="M672.5,-38C672.5,-38 575.5,-38 575.5,-38 569.5,-38 563.5,-32 563.5,-26 563.5,-26 563.5,-12 563.5,-12 563.5,-6 569.5,-0 575.5,-0 575.5,-0 672.5,-0 672.5,-0 678.5,-0 684.5,-6 684.5,-12 684.5,-12 684.5,-26 684.5,-26 684.5,-32 678.5,-38 672.5,-38"/>
<text text-anchor="middle" x="624" y="-22.8" font-family="Helvetica,sans-Serif" font-size="14.00">samples = 3.5%</text>
<text text-anchor="middle" x="624" y="-7.8" font-family="Helvetica,sans-Serif" font-size="14.00">value = [0.5, 0.5]</text>
</g>
<!-- 10&#45;&gt;11 -->
<g id="edge11" class="edge"><title>10&#45;&gt;11</title>
<path fill="none" stroke="black" d="M752.891,-348.256C727.459,-283.484 660.983,-114.186 634.811,-47.5338"/>
<polygon fill="black" stroke="black" points="638.023,-46.1375 631.11,-38.1086 631.508,-48.696 638.023,-46.1375"/>
</g>
<!-- 12 -->
<g id="node13" class="node"><title>12</title>
<path fill="#e58139" fill-opacity="0.713725" stroke="black" d="M811.5,-38C811.5,-38 714.5,-38 714.5,-38 708.5,-38 702.5,-32 702.5,-26 702.5,-26 702.5,-12 702.5,-12 702.5,-6 708.5,-0 714.5,-0 714.5,-0 811.5,-0 811.5,-0 817.5,-0 823.5,-6 823.5,-12 823.5,-12 823.5,-26 823.5,-26 823.5,-32 817.5,-38 811.5,-38"/>
<text text-anchor="middle" x="763" y="-22.8" font-family="Helvetica,sans-Serif" font-size="14.00">samples = 5.3%</text>
<text text-anchor="middle" x="763" y="-7.8" font-family="Helvetica,sans-Serif" font-size="14.00">value = [0.8, 0.2]</text>
</g>
<!-- 10&#45;&gt;12 -->
<g id="edge12" class="edge"><title>10&#45;&gt;12</title>
<path fill="none" stroke="black" d="M763,-348.256C763,-283.75 763,-115.575 763,-48.3602"/>
<polygon fill="black" stroke="black" points="766.5,-48.1086 763,-38.1086 759.5,-48.1086 766.5,-48.1086"/>
</g>
<!-- 14 -->
<g id="node15" class="node"><title>14</title>
<path fill="#399de5" fill-opacity="0.827451" stroke="black" d="M1029,-312.5C1029,-312.5 925,-312.5 925,-312.5 919,-312.5 913,-306.5 913,-300.5 913,-300.5 913,-271.5 913,-271.5 913,-265.5 919,-259.5 925,-259.5 925,-259.5 1029,-259.5 1029,-259.5 1035,-259.5 1041,-265.5 1041,-271.5 1041,-271.5 1041,-300.5 1041,-300.5 1041,-306.5 1035,-312.5 1029,-312.5"/>
<text text-anchor="middle" x="977" y="-297.3" font-family="Helvetica,sans-Serif" font-size="14.00">weight &lt;= 30.0</text>
<text text-anchor="middle" x="977" y="-282.3" font-family="Helvetica,sans-Serif" font-size="14.00">samples = 28.1%</text>
<text text-anchor="middle" x="977" y="-267.3" font-family="Helvetica,sans-Serif" font-size="14.00">value = [0.1, 0.9]</text>
</g>
<!-- 13&#45;&gt;14 -->
<g id="edge14" class="edge"><title>13&#45;&gt;14</title>
<path fill="none" stroke="black" d="M977,-348.368C977,-340.386 977,-331.432 977,-322.884"/>
<polygon fill="black" stroke="black" points="980.5,-322.75 977,-312.75 973.5,-322.75 980.5,-322.75"/>
</g>
<!-- 19 -->
<g id="node20" class="node"><title>19</title>
<path fill="#399de5" fill-opacity="0.470588" stroke="black" d="M1584,-312.5C1584,-312.5 1480,-312.5 1480,-312.5 1474,-312.5 1468,-306.5 1468,-300.5 1468,-300.5 1468,-271.5 1468,-271.5 1468,-265.5 1474,-259.5 1480,-259.5 1480,-259.5 1584,-259.5 1584,-259.5 1590,-259.5 1596,-265.5 1596,-271.5 1596,-271.5 1596,-300.5 1596,-300.5 1596,-306.5 1590,-312.5 1584,-312.5"/>
<text text-anchor="middle" x="1532" y="-297.3" font-family="Helvetica,sans-Serif" font-size="14.00">weight &lt;= 37.5</text>
<text text-anchor="middle" x="1532" y="-282.3" font-family="Helvetica,sans-Serif" font-size="14.00">samples = 28.7%</text>
<text text-anchor="middle" x="1532" y="-267.3" font-family="Helvetica,sans-Serif" font-size="14.00">value = [0.3, 0.7]</text>
</g>
<!-- 13&#45;&gt;19 -->
<g id="edge19" class="edge"><title>13&#45;&gt;19</title>
<path fill="none" stroke="black" d="M1041.21,-363.935C1144.83,-347.691 1348.38,-315.784 1457.96,-298.606"/>
<polygon fill="black" stroke="black" points="1458.6,-302.048 1467.94,-297.041 1457.52,-295.132 1458.6,-302.048"/>
</g>
<!-- 15 -->
<g id="node16" class="node"><title>15</title>
<path fill="#399de5" stroke="black" d="M958,-38C958,-38 854,-38 854,-38 848,-38 842,-32 842,-26 842,-26 842,-12 842,-12 842,-6 848,-0 854,-0 854,-0 958,-0 958,-0 964,-0 970,-6 970,-12 970,-12 970,-26 970,-26 970,-32 964,-38 958,-38"/>
<text text-anchor="middle" x="906" y="-22.8" font-family="Helvetica,sans-Serif" font-size="14.00">samples = 21.1%</text>
<text text-anchor="middle" x="906" y="-7.8" font-family="Helvetica,sans-Serif" font-size="14.00">value = [0.0, 1.0]</text>
</g>
<!-- 14&#45;&gt;15 -->
<g id="edge15" class="edge"><title>14&#45;&gt;15</title>
<path fill="none" stroke="black" d="M970.063,-259.108C956.679,-209.153 927.393,-99.8472 913.544,-48.1556"/>
<polygon fill="black" stroke="black" points="916.88,-47.084 910.911,-38.3305 910.118,-48.8957 916.88,-47.084"/>
</g>
<!-- 16 -->
<g id="node17" class="node"><title>16</title>
<path fill="#e58139" fill-opacity="0.286275" stroke="black" d="M1097.5,-223.5C1097.5,-223.5 1000.5,-223.5 1000.5,-223.5 994.5,-223.5 988.5,-217.5 988.5,-211.5 988.5,-211.5 988.5,-182.5 988.5,-182.5 988.5,-176.5 994.5,-170.5 1000.5,-170.5 1000.5,-170.5 1097.5,-170.5 1097.5,-170.5 1103.5,-170.5 1109.5,-176.5 1109.5,-182.5 1109.5,-182.5 1109.5,-211.5 1109.5,-211.5 1109.5,-217.5 1103.5,-223.5 1097.5,-223.5"/>
<text text-anchor="middle" x="1049" y="-208.3" font-family="Helvetica,sans-Serif" font-size="14.00">fur length &lt;= 2.3</text>
<text text-anchor="middle" x="1049" y="-193.3" font-family="Helvetica,sans-Serif" font-size="14.00">samples = 7.0%</text>
<text text-anchor="middle" x="1049" y="-178.3" font-family="Helvetica,sans-Serif" font-size="14.00">value = [0.6, 0.4]</text>
</g>
<!-- 14&#45;&gt;16 -->
<g id="edge16" class="edge"><title>14&#45;&gt;16</title>
<path fill="none" stroke="black" d="M998.213,-259.368C1005.4,-250.684 1013.54,-240.85 1021.16,-231.639"/>
<polygon fill="black" stroke="black" points="1024.01,-233.685 1027.69,-223.75 1018.62,-229.222 1024.01,-233.685"/>
</g>
<!-- 17 -->
<g id="node18" class="node"><title>17</title>
<path fill="#e58139" fill-opacity="0.800000" stroke="black" d="M1097.5,-38C1097.5,-38 1000.5,-38 1000.5,-38 994.5,-38 988.5,-32 988.5,-26 988.5,-26 988.5,-12 988.5,-12 988.5,-6 994.5,-0 1000.5,-0 1000.5,-0 1097.5,-0 1097.5,-0 1103.5,-0 1109.5,-6 1109.5,-12 1109.5,-12 1109.5,-26 1109.5,-26 1109.5,-32 1103.5,-38 1097.5,-38"/>
<text text-anchor="middle" x="1049" y="-22.8" font-family="Helvetica,sans-Serif" font-size="14.00">samples = 3.5%</text>
<text text-anchor="middle" x="1049" y="-7.8" font-family="Helvetica,sans-Serif" font-size="14.00">value = [0.8, 0.2]</text>
</g>
<!-- 16&#45;&gt;17 -->
<g id="edge17" class="edge"><title>16&#45;&gt;17</title>
<path fill="none" stroke="black" d="M1049,-170.408C1049,-137.89 1049,-81.9465 1049,-48.2207"/>
<polygon fill="black" stroke="black" points="1052.5,-48.1092 1049,-38.1093 1045.5,-48.1093 1052.5,-48.1092"/>
</g>
<!-- 18 -->
<g id="node19" class="node"><title>18</title>
<path fill="#399de5" fill-opacity="0.498039" stroke="black" d="M1236.5,-38C1236.5,-38 1139.5,-38 1139.5,-38 1133.5,-38 1127.5,-32 1127.5,-26 1127.5,-26 1127.5,-12 1127.5,-12 1127.5,-6 1133.5,-0 1139.5,-0 1139.5,-0 1236.5,-0 1236.5,-0 1242.5,-0 1248.5,-6 1248.5,-12 1248.5,-12 1248.5,-26 1248.5,-26 1248.5,-32 1242.5,-38 1236.5,-38"/>
<text text-anchor="middle" x="1188" y="-22.8" font-family="Helvetica,sans-Serif" font-size="14.00">samples = 3.5%</text>
<text text-anchor="middle" x="1188" y="-7.8" font-family="Helvetica,sans-Serif" font-size="14.00">value = [0.3, 0.7]</text>
</g>
<!-- 16&#45;&gt;18 -->
<g id="edge18" class="edge"><title>16&#45;&gt;18</title>
<path fill="none" stroke="black" d="M1069.21,-170.408C1095.45,-137.186 1141,-79.5137 1167.42,-46.0624"/>
<polygon fill="black" stroke="black" points="1170.25,-48.1262 1173.7,-38.1093 1164.75,-43.7877 1170.25,-48.1262"/>
</g>
<!-- 20 -->
<g id="node21" class="node"><title>20</title>
<path fill="#e58139" fill-opacity="0.498039" stroke="black" d="M1584,-223.5C1584,-223.5 1480,-223.5 1480,-223.5 1474,-223.5 1468,-217.5 1468,-211.5 1468,-211.5 1468,-182.5 1468,-182.5 1468,-176.5 1474,-170.5 1480,-170.5 1480,-170.5 1584,-170.5 1584,-170.5 1590,-170.5 1596,-176.5 1596,-182.5 1596,-182.5 1596,-211.5 1596,-211.5 1596,-217.5 1590,-223.5 1584,-223.5"/>
<text text-anchor="middle" x="1532" y="-208.3" font-family="Helvetica,sans-Serif" font-size="14.00">weight &lt;= 22.6</text>
<text text-anchor="middle" x="1532" y="-193.3" font-family="Helvetica,sans-Serif" font-size="14.00">samples = 14.0%</text>
<text text-anchor="middle" x="1532" y="-178.3" font-family="Helvetica,sans-Serif" font-size="14.00">value = [0.7, 0.3]</text>
</g>
<!-- 19&#45;&gt;20 -->
<g id="edge20" class="edge"><title>19&#45;&gt;20</title>
<path fill="none" stroke="black" d="M1532,-259.368C1532,-251.386 1532,-242.432 1532,-233.884"/>
<polygon fill="black" stroke="black" points="1535.5,-233.75 1532,-223.75 1528.5,-233.75 1535.5,-233.75"/>
</g>
<!-- 25 -->
<g id="node26" class="node"><title>25</title>
<path fill="#399de5" fill-opacity="0.956863" stroke="black" d="M1796,-223.5C1796,-223.5 1692,-223.5 1692,-223.5 1686,-223.5 1680,-217.5 1680,-211.5 1680,-211.5 1680,-182.5 1680,-182.5 1680,-176.5 1686,-170.5 1692,-170.5 1692,-170.5 1796,-170.5 1796,-170.5 1802,-170.5 1808,-176.5 1808,-182.5 1808,-182.5 1808,-211.5 1808,-211.5 1808,-217.5 1802,-223.5 1796,-223.5"/>
<text text-anchor="middle" x="1744" y="-208.3" font-family="Helvetica,sans-Serif" font-size="14.00">weight &lt;= 59.3</text>
<text text-anchor="middle" x="1744" y="-193.3" font-family="Helvetica,sans-Serif" font-size="14.00">samples = 14.6%</text>
<text text-anchor="middle" x="1744" y="-178.3" font-family="Helvetica,sans-Serif" font-size="14.00">value = [0.0, 1.0]</text>
</g>
<!-- 19&#45;&gt;25 -->
<g id="edge25" class="edge"><title>19&#45;&gt;25</title>
<path fill="none" stroke="black" d="M1594.17,-259.485C1618.66,-249.437 1646.93,-237.836 1672.27,-227.436"/>
<polygon fill="black" stroke="black" points="1673.9,-230.549 1681.83,-223.515 1671.25,-224.073 1673.9,-230.549"/>
</g>
<!-- 21 -->
<g id="node22" class="node"><title>21</title>
<path fill="#e58139" fill-opacity="0.223529" stroke="black" d="M1514.5,-134.5C1514.5,-134.5 1417.5,-134.5 1417.5,-134.5 1411.5,-134.5 1405.5,-128.5 1405.5,-122.5 1405.5,-122.5 1405.5,-93.5 1405.5,-93.5 1405.5,-87.5 1411.5,-81.5 1417.5,-81.5 1417.5,-81.5 1514.5,-81.5 1514.5,-81.5 1520.5,-81.5 1526.5,-87.5 1526.5,-93.5 1526.5,-93.5 1526.5,-122.5 1526.5,-122.5 1526.5,-128.5 1520.5,-134.5 1514.5,-134.5"/>
<text text-anchor="middle" x="1466" y="-119.3" font-family="Helvetica,sans-Serif" font-size="14.00">fur length &lt;= 4.8</text>
<text text-anchor="middle" x="1466" y="-104.3" font-family="Helvetica,sans-Serif" font-size="14.00">samples = 9.4%</text>
<text text-anchor="middle" x="1466" y="-89.3" font-family="Helvetica,sans-Serif" font-size="14.00">value = [0.6, 0.4]</text>
</g>
<!-- 20&#45;&gt;21 -->
<g id="edge21" class="edge"><title>20&#45;&gt;21</title>
<path fill="none" stroke="black" d="M1512.55,-170.368C1506.03,-161.772 1498.66,-152.049 1491.73,-142.919"/>
<polygon fill="black" stroke="black" points="1494.37,-140.601 1485.53,-134.75 1488.79,-144.832 1494.37,-140.601"/>
</g>
<!-- 24 -->
<g id="node25" class="node"><title>24</title>
<path fill="#e58139" fill-opacity="0.858824" stroke="black" d="M1653.5,-38C1653.5,-38 1556.5,-38 1556.5,-38 1550.5,-38 1544.5,-32 1544.5,-26 1544.5,-26 1544.5,-12 1544.5,-12 1544.5,-6 1550.5,-0 1556.5,-0 1556.5,-0 1653.5,-0 1653.5,-0 1659.5,-0 1665.5,-6 1665.5,-12 1665.5,-12 1665.5,-26 1665.5,-26 1665.5,-32 1659.5,-38 1653.5,-38"/>
<text text-anchor="middle" x="1605" y="-22.8" font-family="Helvetica,sans-Serif" font-size="14.00">samples = 4.7%</text>
<text text-anchor="middle" x="1605" y="-7.8" font-family="Helvetica,sans-Serif" font-size="14.00">value = [0.9, 0.1]</text>
</g>
<!-- 20&#45;&gt;24 -->
<g id="edge24" class="edge"><title>20&#45;&gt;24</title>
<path fill="none" stroke="black" d="M1542.61,-170.408C1556.22,-137.608 1579.71,-80.976 1593.66,-47.3497"/>
<polygon fill="black" stroke="black" points="1596.89,-48.6872 1597.49,-38.1093 1590.42,-46.0053 1596.89,-48.6872"/>
</g>
<!-- 22 -->
<g id="node23" class="node"><title>22</title>
<path fill="#399de5" fill-opacity="0.572549" stroke="black" d="M1375.5,-38C1375.5,-38 1278.5,-38 1278.5,-38 1272.5,-38 1266.5,-32 1266.5,-26 1266.5,-26 1266.5,-12 1266.5,-12 1266.5,-6 1272.5,-0 1278.5,-0 1278.5,-0 1375.5,-0 1375.5,-0 1381.5,-0 1387.5,-6 1387.5,-12 1387.5,-12 1387.5,-26 1387.5,-26 1387.5,-32 1381.5,-38 1375.5,-38"/>
<text text-anchor="middle" x="1327" y="-22.8" font-family="Helvetica,sans-Serif" font-size="14.00">samples = 5.8%</text>
<text text-anchor="middle" x="1327" y="-7.8" font-family="Helvetica,sans-Serif" font-size="14.00">value = [0.3, 0.7]</text>
</g>
<!-- 21&#45;&gt;22 -->
<g id="edge22" class="edge"><title>21&#45;&gt;22</title>
<path fill="none" stroke="black" d="M1425.05,-81.3677C1405.83,-69.3386 1383.08,-55.1032 1364.34,-43.3728"/>
<polygon fill="black" stroke="black" points="1366.1,-40.3454 1355.77,-38.0067 1362.39,-46.279 1366.1,-40.3454"/>
</g>
<!-- 23 -->
<g id="node24" class="node"><title>23</title>
<path fill="#e58139" stroke="black" d="M1514.5,-38C1514.5,-38 1417.5,-38 1417.5,-38 1411.5,-38 1405.5,-32 1405.5,-26 1405.5,-26 1405.5,-12 1405.5,-12 1405.5,-6 1411.5,-0 1417.5,-0 1417.5,-0 1514.5,-0 1514.5,-0 1520.5,-0 1526.5,-6 1526.5,-12 1526.5,-12 1526.5,-26 1526.5,-26 1526.5,-32 1520.5,-38 1514.5,-38"/>
<text text-anchor="middle" x="1466" y="-22.8" font-family="Helvetica,sans-Serif" font-size="14.00">samples = 3.5%</text>
<text text-anchor="middle" x="1466" y="-7.8" font-family="Helvetica,sans-Serif" font-size="14.00">value = [1.0, 0.0]</text>
</g>
<!-- 21&#45;&gt;23 -->
<g id="edge23" class="edge"><title>21&#45;&gt;23</title>
<path fill="none" stroke="black" d="M1466,-81.3677C1466,-70.9171 1466,-58.8012 1466,-48.1094"/>
<polygon fill="black" stroke="black" points="1469.5,-48.0066 1466,-38.0067 1462.5,-48.0067 1469.5,-48.0066"/>
</g>
<!-- 26 -->
<g id="node27" class="node"><title>26</title>
<path fill="#399de5" fill-opacity="0.858824" stroke="black" d="M1792.5,-38C1792.5,-38 1695.5,-38 1695.5,-38 1689.5,-38 1683.5,-32 1683.5,-26 1683.5,-26 1683.5,-12 1683.5,-12 1683.5,-6 1689.5,-0 1695.5,-0 1695.5,-0 1792.5,-0 1792.5,-0 1798.5,-0 1804.5,-6 1804.5,-12 1804.5,-12 1804.5,-26 1804.5,-26 1804.5,-32 1798.5,-38 1792.5,-38"/>
<text text-anchor="middle" x="1744" y="-22.8" font-family="Helvetica,sans-Serif" font-size="14.00">samples = 4.7%</text>
<text text-anchor="middle" x="1744" y="-7.8" font-family="Helvetica,sans-Serif" font-size="14.00">value = [0.1, 0.9]</text>
</g>
<!-- 25&#45;&gt;26 -->
<g id="edge26" class="edge"><title>25&#45;&gt;26</title>
<path fill="none" stroke="black" d="M1744,-170.408C1744,-137.89 1744,-81.9465 1744,-48.2207"/>
<polygon fill="black" stroke="black" points="1747.5,-48.1092 1744,-38.1093 1740.5,-48.1093 1747.5,-48.1092"/>
</g>
<!-- 27 -->
<g id="node28" class="node"><title>27</title>
<path fill="#399de5" stroke="black" d="M1931.5,-38C1931.5,-38 1834.5,-38 1834.5,-38 1828.5,-38 1822.5,-32 1822.5,-26 1822.5,-26 1822.5,-12 1822.5,-12 1822.5,-6 1828.5,-0 1834.5,-0 1834.5,-0 1931.5,-0 1931.5,-0 1937.5,-0 1943.5,-6 1943.5,-12 1943.5,-12 1943.5,-26 1943.5,-26 1943.5,-32 1937.5,-38 1931.5,-38"/>
<text text-anchor="middle" x="1883" y="-22.8" font-family="Helvetica,sans-Serif" font-size="14.00">samples = 9.9%</text>
<text text-anchor="middle" x="1883" y="-7.8" font-family="Helvetica,sans-Serif" font-size="14.00">value = [0.0, 1.0]</text>
</g>
<!-- 25&#45;&gt;27 -->
<g id="edge27" class="edge"><title>25&#45;&gt;27</title>
<path fill="none" stroke="black" d="M1764.21,-170.408C1790.45,-137.186 1836,-79.5137 1862.42,-46.0624"/>
<polygon fill="black" stroke="black" points="1865.25,-48.1262 1868.7,-38.1093 1859.75,-43.7877 1865.25,-48.1262"/>
</g>
<!-- 29 -->
<g id="node30" class="node"><title>29</title>
<path fill="#e58139" fill-opacity="0.800000" stroke="black" d="M2070.5,-38C2070.5,-38 1973.5,-38 1973.5,-38 1967.5,-38 1961.5,-32 1961.5,-26 1961.5,-26 1961.5,-12 1961.5,-12 1961.5,-6 1967.5,-0 1973.5,-0 1973.5,-0 2070.5,-0 2070.5,-0 2076.5,-0 2082.5,-6 2082.5,-12 2082.5,-12 2082.5,-26 2082.5,-26 2082.5,-32 2076.5,-38 2070.5,-38"/>
<text text-anchor="middle" x="2022" y="-22.8" font-family="Helvetica,sans-Serif" font-size="14.00">samples = 3.5%</text>
<text text-anchor="middle" x="2022" y="-7.8" font-family="Helvetica,sans-Serif" font-size="14.00">value = [0.8, 0.2]</text>
</g>
<!-- 28&#45;&gt;29 -->
<g id="edge29" class="edge"><title>28&#45;&gt;29</title>
<path fill="none" stroke="black" d="M2022,-437.408C2022,-388.595 2022,-287 2022,-287 2022,-287 2022,-287 2022,-196 2022,-196 2022,-98.0426 2022,-48.2881"/>
<polygon fill="black" stroke="black" points="2025.5,-48.1722 2022,-38.1722 2018.5,-48.1722 2025.5,-48.1722"/>
</g>
<!-- 30 -->
<g id="node31" class="node"><title>30</title>
<path fill="#e58139" stroke="black" d="M2209.5,-38C2209.5,-38 2112.5,-38 2112.5,-38 2106.5,-38 2100.5,-32 2100.5,-26 2100.5,-26 2100.5,-12 2100.5,-12 2100.5,-6 2106.5,-0 2112.5,-0 2112.5,-0 2209.5,-0 2209.5,-0 2215.5,-0 2221.5,-6 2221.5,-12 2221.5,-12 2221.5,-26 2221.5,-26 2221.5,-32 2215.5,-38 2209.5,-38"/>
<text text-anchor="middle" x="2161" y="-22.8" font-family="Helvetica,sans-Serif" font-size="14.00">samples = 6.4%</text>
<text text-anchor="middle" x="2161" y="-7.8" font-family="Helvetica,sans-Serif" font-size="14.00">value = [1.0, 0.0]</text>
</g>
<!-- 28&#45;&gt;30 -->
<g id="edge30" class="edge"><title>28&#45;&gt;30</title>
<path fill="none" stroke="black" d="M2042.21,-437.408C2080.76,-388.595 2161,-287 2161,-287 2161,-287 2161,-287 2161,-196 2161,-196 2161,-98.0426 2161,-48.2881"/>
<polygon fill="black" stroke="black" points="2164.5,-48.1722 2161,-38.1722 2157.5,-48.1722 2164.5,-48.1722"/>
</g>
</g>
</svg>
