<?xml version="1.0" encoding="utf-8" standalone="no"?>
<!DOCTYPE svg PUBLIC "-//W3C//DTD SVG 1.1//EN"
  "http://www.w3.org/Graphics/SVG/1.1/DTD/svg11.dtd">
<!-- Created with matplotlib (http://matplotlib.org/) -->
<svg height="360pt" version="1.1" viewBox="0 0 576 360" width="576pt" xmlns="http://www.w3.org/2000/svg" xmlns:xlink="http://www.w3.org/1999/xlink">
 <defs>
  <style type="text/css">
*{stroke-linecap:butt;stroke-linejoin:round;}
  </style>
 </defs>
 <g id="figure_1">
  <g id="patch_1">
   <path d="M 0 360
L 576 360
L 576 0
L 0 0
z
" style="fill:#ffffff; fill-opacity:0"/>
  </g>
  <g id="axes_1">
   <g id="patch_2">
    <path d="M 72 315
L 518.4 315
L 518.4 43.2
L 72 43.2
z
" style="fill:#ffffff;"/>
   </g>
   <g id="matplotlib.axis_1">
    <g id="xtick_1">
     <g id="line2d_1">
      <defs>
       <path d="M 0 0
L 0 6
" id="mbf9a7ccbe1" style="stroke:#262626;"/>
      </defs>
      <g>
       <use style="fill:#262626;stroke:#262626;" x="92.290909" xlink:href="#mbf9a7ccbe1" y="315"/>
      </g>
     </g>
     <g id="text_1">
      <!-- 0 -->
      <defs>
       <path d="M 31.78125 66.40625
Q 24.171875 66.40625 20.328125 58.90625
Q 16.5 51.421875 16.5 36.375
Q 16.5 21.390625 20.328125 13.890625
Q 24.171875 6.390625 31.78125 6.390625
Q 39.453125 6.390625 43.28125 13.890625
Q 47.125 21.390625 47.125 36.375
Q 47.125 51.421875 43.28125 58.90625
Q 39.453125 66.40625 31.78125 66.40625
z
M 31.78125 74.21875
Q 44.046875 74.21875 50.515625 64.515625
Q 56.984375 54.828125 56.984375 36.375
Q 56.984375 17.96875 50.515625 8.265625
Q 44.046875 -1.421875 31.78125 -1.421875
Q 19.53125 -1.421875 13.0625 8.265625
Q 6.59375 17.96875 6.59375 36.375
Q 6.59375 54.828125 13.0625 64.515625
Q 19.53125 74.21875 31.78125 74.21875
z
" id="DejaVuSans-30"/>
      </defs>
      <g style="fill:#262626;" transform="translate(89.109659 335.598437)scale(0.1 -0.1)">
       <use xlink:href="#DejaVuSans-30"/>
      </g>
     </g>
    </g>
    <g id="xtick_2">
     <g id="line2d_2">
      <g>
       <use style="fill:#262626;stroke:#262626;" x="173.56886" xlink:href="#mbf9a7ccbe1" y="315"/>
      </g>
     </g>
     <g id="text_2">
      <!-- 20 -->
      <defs>
       <path d="M 19.1875 8.296875
L 53.609375 8.296875
L 53.609375 0
L 7.328125 0
L 7.328125 8.296875
Q 12.9375 14.109375 22.625 23.890625
Q 32.328125 33.6875 34.8125 36.53125
Q 39.546875 41.84375 41.421875 45.53125
Q 43.3125 49.21875 43.3125 52.78125
Q 43.3125 58.59375 39.234375 62.25
Q 35.15625 65.921875 28.609375 65.921875
Q 23.96875 65.921875 18.8125 64.3125
Q 13.671875 62.703125 7.8125 59.421875
L 7.8125 69.390625
Q 13.765625 71.78125 18.9375 73
Q 24.125 74.21875 28.421875 74.21875
Q 39.75 74.21875 46.484375 68.546875
Q 53.21875 62.890625 53.21875 53.421875
Q 53.21875 48.921875 51.53125 44.890625
Q 49.859375 40.875 45.40625 35.40625
Q 44.1875 33.984375 37.640625 27.21875
Q 31.109375 20.453125 19.1875 8.296875
z
" id="DejaVuSans-32"/>
      </defs>
      <g style="fill:#262626;" transform="translate(167.20636 335.598437)scale(0.1 -0.1)">
       <use xlink:href="#DejaVuSans-32"/>
       <use x="63.623047" xlink:href="#DejaVuSans-30"/>
      </g>
     </g>
    </g>
    <g id="xtick_3">
     <g id="line2d_3">
      <g>
       <use style="fill:#262626;stroke:#262626;" x="254.846812" xlink:href="#mbf9a7ccbe1" y="315"/>
      </g>
     </g>
     <g id="text_3">
      <!-- 40 -->
      <defs>
       <path d="M 37.796875 64.3125
L 12.890625 25.390625
L 37.796875 25.390625
z
M 35.203125 72.90625
L 47.609375 72.90625
L 47.609375 25.390625
L 58.015625 25.390625
L 58.015625 17.1875
L 47.609375 17.1875
L 47.609375 0
L 37.796875 0
L 37.796875 17.1875
L 4.890625 17.1875
L 4.890625 26.703125
z
" id="DejaVuSans-34"/>
      </defs>
      <g style="fill:#262626;" transform="translate(248.484312 335.598437)scale(0.1 -0.1)">
       <use xlink:href="#DejaVuSans-34"/>
       <use x="63.623047" xlink:href="#DejaVuSans-30"/>
      </g>
     </g>
    </g>
    <g id="xtick_4">
     <g id="line2d_4">
      <g>
       <use style="fill:#262626;stroke:#262626;" x="336.124763" xlink:href="#mbf9a7ccbe1" y="315"/>
      </g>
     </g>
     <g id="text_4">
      <!-- 60 -->
      <defs>
       <path d="M 33.015625 40.375
Q 26.375 40.375 22.484375 35.828125
Q 18.609375 31.296875 18.609375 23.390625
Q 18.609375 15.53125 22.484375 10.953125
Q 26.375 6.390625 33.015625 6.390625
Q 39.65625 6.390625 43.53125 10.953125
Q 47.40625 15.53125 47.40625 23.390625
Q 47.40625 31.296875 43.53125 35.828125
Q 39.65625 40.375 33.015625 40.375
z
M 52.59375 71.296875
L 52.59375 62.3125
Q 48.875 64.0625 45.09375 64.984375
Q 41.3125 65.921875 37.59375 65.921875
Q 27.828125 65.921875 22.671875 59.328125
Q 17.53125 52.734375 16.796875 39.40625
Q 19.671875 43.65625 24.015625 45.921875
Q 28.375 48.1875 33.59375 48.1875
Q 44.578125 48.1875 50.953125 41.515625
Q 57.328125 34.859375 57.328125 23.390625
Q 57.328125 12.15625 50.6875 5.359375
Q 44.046875 -1.421875 33.015625 -1.421875
Q 20.359375 -1.421875 13.671875 8.265625
Q 6.984375 17.96875 6.984375 36.375
Q 6.984375 53.65625 15.1875 63.9375
Q 23.390625 74.21875 37.203125 74.21875
Q 40.921875 74.21875 44.703125 73.484375
Q 48.484375 72.75 52.59375 71.296875
z
" id="DejaVuSans-36"/>
      </defs>
      <g style="fill:#262626;" transform="translate(329.762263 335.598437)scale(0.1 -0.1)">
       <use xlink:href="#DejaVuSans-36"/>
       <use x="63.623047" xlink:href="#DejaVuSans-30"/>
      </g>
     </g>
    </g>
    <g id="xtick_5">
     <g id="line2d_5">
      <g>
       <use style="fill:#262626;stroke:#262626;" x="417.402714" xlink:href="#mbf9a7ccbe1" y="315"/>
      </g>
     </g>
     <g id="text_5">
      <!-- 80 -->
      <defs>
       <path d="M 31.78125 34.625
Q 24.75 34.625 20.71875 30.859375
Q 16.703125 27.09375 16.703125 20.515625
Q 16.703125 13.921875 20.71875 10.15625
Q 24.75 6.390625 31.78125 6.390625
Q 38.8125 6.390625 42.859375 10.171875
Q 46.921875 13.96875 46.921875 20.515625
Q 46.921875 27.09375 42.890625 30.859375
Q 38.875 34.625 31.78125 34.625
z
M 21.921875 38.8125
Q 15.578125 40.375 12.03125 44.71875
Q 8.5 49.078125 8.5 55.328125
Q 8.5 64.0625 14.71875 69.140625
Q 20.953125 74.21875 31.78125 74.21875
Q 42.671875 74.21875 48.875 69.140625
Q 55.078125 64.0625 55.078125 55.328125
Q 55.078125 49.078125 51.53125 44.71875
Q 48 40.375 41.703125 38.8125
Q 48.828125 37.15625 52.796875 32.3125
Q 56.78125 27.484375 56.78125 20.515625
Q 56.78125 9.90625 50.3125 4.234375
Q 43.84375 -1.421875 31.78125 -1.421875
Q 19.734375 -1.421875 13.25 4.234375
Q 6.78125 9.90625 6.78125 20.515625
Q 6.78125 27.484375 10.78125 32.3125
Q 14.796875 37.15625 21.921875 38.8125
z
M 18.3125 54.390625
Q 18.3125 48.734375 21.84375 45.5625
Q 25.390625 42.390625 31.78125 42.390625
Q 38.140625 42.390625 41.71875 45.5625
Q 45.3125 48.734375 45.3125 54.390625
Q 45.3125 60.0625 41.71875 63.234375
Q 38.140625 66.40625 31.78125 66.40625
Q 25.390625 66.40625 21.84375 63.234375
Q 18.3125 60.0625 18.3125 54.390625
z
" id="DejaVuSans-38"/>
      </defs>
      <g style="fill:#262626;" transform="translate(411.040214 335.598437)scale(0.1 -0.1)">
       <use xlink:href="#DejaVuSans-38"/>
       <use x="63.623047" xlink:href="#DejaVuSans-30"/>
      </g>
     </g>
    </g>
    <g id="xtick_6">
     <g id="line2d_6">
      <g>
       <use style="fill:#262626;stroke:#262626;" x="498.680666" xlink:href="#mbf9a7ccbe1" y="315"/>
      </g>
     </g>
     <g id="text_6">
      <!-- 100 -->
      <defs>
       <path d="M 12.40625 8.296875
L 28.515625 8.296875
L 28.515625 63.921875
L 10.984375 60.40625
L 10.984375 69.390625
L 28.421875 72.90625
L 38.28125 72.90625
L 38.28125 8.296875
L 54.390625 8.296875
L 54.390625 0
L 12.40625 0
z
" id="DejaVuSans-31"/>
      </defs>
      <g style="fill:#262626;" transform="translate(489.136916 335.598437)scale(0.1 -0.1)">
       <use xlink:href="#DejaVuSans-31"/>
       <use x="63.623047" xlink:href="#DejaVuSans-30"/>
       <use x="127.246094" xlink:href="#DejaVuSans-30"/>
      </g>
     </g>
    </g>
    <g id="text_7">
     <!-- Proportion of policies removed from the portfolio (%) -->
     <defs>
      <path d="M 19.671875 64.796875
L 19.671875 37.40625
L 32.078125 37.40625
Q 38.96875 37.40625 42.71875 40.96875
Q 46.484375 44.53125 46.484375 51.125
Q 46.484375 57.671875 42.71875 61.234375
Q 38.96875 64.796875 32.078125 64.796875
z
M 9.8125 72.90625
L 32.078125 72.90625
Q 44.34375 72.90625 50.609375 67.359375
Q 56.890625 61.8125 56.890625 51.125
Q 56.890625 40.328125 50.609375 34.8125
Q 44.34375 29.296875 32.078125 29.296875
L 19.671875 29.296875
L 19.671875 0
L 9.8125 0
z
" id="DejaVuSans-50"/>
      <path d="M 41.109375 46.296875
Q 39.59375 47.171875 37.8125 47.578125
Q 36.03125 48 33.890625 48
Q 26.265625 48 22.1875 43.046875
Q 18.109375 38.09375 18.109375 28.8125
L 18.109375 0
L 9.078125 0
L 9.078125 54.6875
L 18.109375 54.6875
L 18.109375 46.1875
Q 20.953125 51.171875 25.484375 53.578125
Q 30.03125 56 36.53125 56
Q 37.453125 56 38.578125 55.875
Q 39.703125 55.765625 41.0625 55.515625
z
" id="DejaVuSans-72"/>
      <path d="M 30.609375 48.390625
Q 23.390625 48.390625 19.1875 42.75
Q 14.984375 37.109375 14.984375 27.296875
Q 14.984375 17.484375 19.15625 11.84375
Q 23.34375 6.203125 30.609375 6.203125
Q 37.796875 6.203125 41.984375 11.859375
Q 46.1875 17.53125 46.1875 27.296875
Q 46.1875 37.015625 41.984375 42.703125
Q 37.796875 48.390625 30.609375 48.390625
z
M 30.609375 56
Q 42.328125 56 49.015625 48.375
Q 55.71875 40.765625 55.71875 27.296875
Q 55.71875 13.875 49.015625 6.21875
Q 42.328125 -1.421875 30.609375 -1.421875
Q 18.84375 -1.421875 12.171875 6.21875
Q 5.515625 13.875 5.515625 27.296875
Q 5.515625 40.765625 12.171875 48.375
Q 18.84375 56 30.609375 56
z
" id="DejaVuSans-6f"/>
      <path d="M 18.109375 8.203125
L 18.109375 -20.796875
L 9.078125 -20.796875
L 9.078125 54.6875
L 18.109375 54.6875
L 18.109375 46.390625
Q 20.953125 51.265625 25.265625 53.625
Q 29.59375 56 35.59375 56
Q 45.5625 56 51.78125 48.09375
Q 58.015625 40.1875 58.015625 27.296875
Q 58.015625 14.40625 51.78125 6.484375
Q 45.5625 -1.421875 35.59375 -1.421875
Q 29.59375 -1.421875 25.265625 0.953125
Q 20.953125 3.328125 18.109375 8.203125
z
M 48.6875 27.296875
Q 48.6875 37.203125 44.609375 42.84375
Q 40.53125 48.484375 33.40625 48.484375
Q 26.265625 48.484375 22.1875 42.84375
Q 18.109375 37.203125 18.109375 27.296875
Q 18.109375 17.390625 22.1875 11.75
Q 26.265625 6.109375 33.40625 6.109375
Q 40.53125 6.109375 44.609375 11.75
Q 48.6875 17.390625 48.6875 27.296875
z
" id="DejaVuSans-70"/>
      <path d="M 18.3125 70.21875
L 18.3125 54.6875
L 36.8125 54.6875
L 36.8125 47.703125
L 18.3125 47.703125
L 18.3125 18.015625
Q 18.3125 11.328125 20.140625 9.421875
Q 21.96875 7.515625 27.59375 7.515625
L 36.8125 7.515625
L 36.8125 0
L 27.59375 0
Q 17.1875 0 13.234375 3.875
Q 9.28125 7.765625 9.28125 18.015625
L 9.28125 47.703125
L 2.6875 47.703125
L 2.6875 54.6875
L 9.28125 54.6875
L 9.28125 70.21875
z
" id="DejaVuSans-74"/>
      <path d="M 9.421875 54.6875
L 18.40625 54.6875
L 18.40625 0
L 9.421875 0
z
M 9.421875 75.984375
L 18.40625 75.984375
L 18.40625 64.59375
L 9.421875 64.59375
z
" id="DejaVuSans-69"/>
      <path d="M 54.890625 33.015625
L 54.890625 0
L 45.90625 0
L 45.90625 32.71875
Q 45.90625 40.484375 42.875 44.328125
Q 39.84375 48.1875 33.796875 48.1875
Q 26.515625 48.1875 22.3125 43.546875
Q 18.109375 38.921875 18.109375 30.90625
L 18.109375 0
L 9.078125 0
L 9.078125 54.6875
L 18.109375 54.6875
L 18.109375 46.1875
Q 21.34375 51.125 25.703125 53.5625
Q 30.078125 56 35.796875 56
Q 45.21875 56 50.046875 50.171875
Q 54.890625 44.34375 54.890625 33.015625
z
" id="DejaVuSans-6e"/>
      <path id="DejaVuSans-20"/>
      <path d="M 37.109375 75.984375
L 37.109375 68.5
L 28.515625 68.5
Q 23.6875 68.5 21.796875 66.546875
Q 19.921875 64.59375 19.921875 59.515625
L 19.921875 54.6875
L 34.71875 54.6875
L 34.71875 47.703125
L 19.921875 47.703125
L 19.921875 0
L 10.890625 0
L 10.890625 47.703125
L 2.296875 47.703125
L 2.296875 54.6875
L 10.890625 54.6875
L 10.890625 58.5
Q 10.890625 67.625 15.140625 71.796875
Q 19.390625 75.984375 28.609375 75.984375
z
" id="DejaVuSans-66"/>
      <path d="M 9.421875 75.984375
L 18.40625 75.984375
L 18.40625 0
L 9.421875 0
z
" id="DejaVuSans-6c"/>
      <path d="M 48.78125 52.59375
L 48.78125 44.1875
Q 44.96875 46.296875 41.140625 47.34375
Q 37.3125 48.390625 33.40625 48.390625
Q 24.65625 48.390625 19.8125 42.84375
Q 14.984375 37.3125 14.984375 27.296875
Q 14.984375 17.28125 19.8125 11.734375
Q 24.65625 6.203125 33.40625 6.203125
Q 37.3125 6.203125 41.140625 7.25
Q 44.96875 8.296875 48.78125 10.40625
L 48.78125 2.09375
Q 45.015625 0.34375 40.984375 -0.53125
Q 36.96875 -1.421875 32.421875 -1.421875
Q 20.0625 -1.421875 12.78125 6.34375
Q 5.515625 14.109375 5.515625 27.296875
Q 5.515625 40.671875 12.859375 48.328125
Q 20.21875 56 33.015625 56
Q 37.15625 56 41.109375 55.140625
Q 45.0625 54.296875 48.78125 52.59375
z
" id="DejaVuSans-63"/>
      <path d="M 56.203125 29.59375
L 56.203125 25.203125
L 14.890625 25.203125
Q 15.484375 15.921875 20.484375 11.0625
Q 25.484375 6.203125 34.421875 6.203125
Q 39.59375 6.203125 44.453125 7.46875
Q 49.3125 8.734375 54.109375 11.28125
L 54.109375 2.78125
Q 49.265625 0.734375 44.1875 -0.34375
Q 39.109375 -1.421875 33.890625 -1.421875
Q 20.796875 -1.421875 13.15625 6.1875
Q 5.515625 13.8125 5.515625 26.8125
Q 5.515625 40.234375 12.765625 48.109375
Q 20.015625 56 32.328125 56
Q 43.359375 56 49.78125 48.890625
Q 56.203125 41.796875 56.203125 29.59375
z
M 47.21875 32.234375
Q 47.125 39.59375 43.09375 43.984375
Q 39.0625 48.390625 32.421875 48.390625
Q 24.90625 48.390625 20.390625 44.140625
Q 15.875 39.890625 15.1875 32.171875
z
" id="DejaVuSans-65"/>
      <path d="M 44.28125 53.078125
L 44.28125 44.578125
Q 40.484375 46.53125 36.375 47.5
Q 32.28125 48.484375 27.875 48.484375
Q 21.1875 48.484375 17.84375 46.4375
Q 14.5 44.390625 14.5 40.28125
Q 14.5 37.15625 16.890625 35.375
Q 19.28125 33.59375 26.515625 31.984375
L 29.59375 31.296875
Q 39.15625 29.25 43.1875 25.515625
Q 47.21875 21.78125 47.21875 15.09375
Q 47.21875 7.46875 41.1875 3.015625
Q 35.15625 -1.421875 24.609375 -1.421875
Q 20.21875 -1.421875 15.453125 -0.5625
Q 10.6875 0.296875 5.421875 2
L 5.421875 11.28125
Q 10.40625 8.6875 15.234375 7.390625
Q 20.0625 6.109375 24.8125 6.109375
Q 31.15625 6.109375 34.5625 8.28125
Q 37.984375 10.453125 37.984375 14.40625
Q 37.984375 18.0625 35.515625 20.015625
Q 33.0625 21.96875 24.703125 23.78125
L 21.578125 24.515625
Q 13.234375 26.265625 9.515625 29.90625
Q 5.8125 33.546875 5.8125 39.890625
Q 5.8125 47.609375 11.28125 51.796875
Q 16.75 56 26.8125 56
Q 31.78125 56 36.171875 55.265625
Q 40.578125 54.546875 44.28125 53.078125
z
" id="DejaVuSans-73"/>
      <path d="M 52 44.1875
Q 55.375 50.25 60.0625 53.125
Q 64.75 56 71.09375 56
Q 79.640625 56 84.28125 50.015625
Q 88.921875 44.046875 88.921875 33.015625
L 88.921875 0
L 79.890625 0
L 79.890625 32.71875
Q 79.890625 40.578125 77.09375 44.375
Q 74.3125 48.1875 68.609375 48.1875
Q 61.625 48.1875 57.5625 43.546875
Q 53.515625 38.921875 53.515625 30.90625
L 53.515625 0
L 44.484375 0
L 44.484375 32.71875
Q 44.484375 40.625 41.703125 44.40625
Q 38.921875 48.1875 33.109375 48.1875
Q 26.21875 48.1875 22.15625 43.53125
Q 18.109375 38.875 18.109375 30.90625
L 18.109375 0
L 9.078125 0
L 9.078125 54.6875
L 18.109375 54.6875
L 18.109375 46.1875
Q 21.1875 51.21875 25.484375 53.609375
Q 29.78125 56 35.6875 56
Q 41.65625 56 45.828125 52.96875
Q 50 49.953125 52 44.1875
z
" id="DejaVuSans-6d"/>
      <path d="M 2.984375 54.6875
L 12.5 54.6875
L 29.59375 8.796875
L 46.6875 54.6875
L 56.203125 54.6875
L 35.6875 0
L 23.484375 0
z
" id="DejaVuSans-76"/>
      <path d="M 45.40625 46.390625
L 45.40625 75.984375
L 54.390625 75.984375
L 54.390625 0
L 45.40625 0
L 45.40625 8.203125
Q 42.578125 3.328125 38.25 0.953125
Q 33.9375 -1.421875 27.875 -1.421875
Q 17.96875 -1.421875 11.734375 6.484375
Q 5.515625 14.40625 5.515625 27.296875
Q 5.515625 40.1875 11.734375 48.09375
Q 17.96875 56 27.875 56
Q 33.9375 56 38.25 53.625
Q 42.578125 51.265625 45.40625 46.390625
z
M 14.796875 27.296875
Q 14.796875 17.390625 18.875 11.75
Q 22.953125 6.109375 30.078125 6.109375
Q 37.203125 6.109375 41.296875 11.75
Q 45.40625 17.390625 45.40625 27.296875
Q 45.40625 37.203125 41.296875 42.84375
Q 37.203125 48.484375 30.078125 48.484375
Q 22.953125 48.484375 18.875 42.84375
Q 14.796875 37.203125 14.796875 27.296875
z
" id="DejaVuSans-64"/>
      <path d="M 54.890625 33.015625
L 54.890625 0
L 45.90625 0
L 45.90625 32.71875
Q 45.90625 40.484375 42.875 44.328125
Q 39.84375 48.1875 33.796875 48.1875
Q 26.515625 48.1875 22.3125 43.546875
Q 18.109375 38.921875 18.109375 30.90625
L 18.109375 0
L 9.078125 0
L 9.078125 75.984375
L 18.109375 75.984375
L 18.109375 46.1875
Q 21.34375 51.125 25.703125 53.5625
Q 30.078125 56 35.796875 56
Q 45.21875 56 50.046875 50.171875
Q 54.890625 44.34375 54.890625 33.015625
z
" id="DejaVuSans-68"/>
      <path d="M 31 75.875
Q 24.46875 64.65625 21.28125 53.65625
Q 18.109375 42.671875 18.109375 31.390625
Q 18.109375 20.125 21.3125 9.0625
Q 24.515625 -2 31 -13.1875
L 23.1875 -13.1875
Q 15.875 -1.703125 12.234375 9.375
Q 8.59375 20.453125 8.59375 31.390625
Q 8.59375 42.28125 12.203125 53.3125
Q 15.828125 64.359375 23.1875 75.875
z
" id="DejaVuSans-28"/>
      <path d="M 72.703125 32.078125
Q 68.453125 32.078125 66.03125 28.46875
Q 63.625 24.859375 63.625 18.40625
Q 63.625 12.0625 66.03125 8.421875
Q 68.453125 4.78125 72.703125 4.78125
Q 76.859375 4.78125 79.265625 8.421875
Q 81.6875 12.0625 81.6875 18.40625
Q 81.6875 24.8125 79.265625 28.4375
Q 76.859375 32.078125 72.703125 32.078125
z
M 72.703125 38.28125
Q 80.421875 38.28125 84.953125 32.90625
Q 89.5 27.546875 89.5 18.40625
Q 89.5 9.28125 84.9375 3.921875
Q 80.375 -1.421875 72.703125 -1.421875
Q 64.890625 -1.421875 60.34375 3.921875
Q 55.8125 9.28125 55.8125 18.40625
Q 55.8125 27.59375 60.375 32.9375
Q 64.9375 38.28125 72.703125 38.28125
z
M 22.3125 68.015625
Q 18.109375 68.015625 15.6875 64.375
Q 13.28125 60.75 13.28125 54.390625
Q 13.28125 47.953125 15.671875 44.328125
Q 18.0625 40.71875 22.3125 40.71875
Q 26.5625 40.71875 28.96875 44.328125
Q 31.390625 47.953125 31.390625 54.390625
Q 31.390625 60.6875 28.953125 64.34375
Q 26.515625 68.015625 22.3125 68.015625
z
M 66.40625 74.21875
L 74.21875 74.21875
L 28.609375 -1.421875
L 20.796875 -1.421875
z
M 22.3125 74.21875
Q 30.03125 74.21875 34.609375 68.875
Q 39.203125 63.53125 39.203125 54.390625
Q 39.203125 45.171875 34.640625 39.84375
Q 30.078125 34.515625 22.3125 34.515625
Q 14.546875 34.515625 10.03125 39.859375
Q 5.515625 45.21875 5.515625 54.390625
Q 5.515625 63.484375 10.046875 68.84375
Q 14.59375 74.21875 22.3125 74.21875
z
" id="DejaVuSans-25"/>
      <path d="M 8.015625 75.875
L 15.828125 75.875
Q 23.140625 64.359375 26.78125 53.3125
Q 30.421875 42.28125 30.421875 31.390625
Q 30.421875 20.453125 26.78125 9.375
Q 23.140625 -1.703125 15.828125 -13.1875
L 8.015625 -13.1875
Q 14.5 -2 17.703125 9.0625
Q 20.90625 20.125 20.90625 31.390625
Q 20.90625 42.671875 17.703125 53.65625
Q 14.5 64.65625 8.015625 75.875
z
" id="DejaVuSans-29"/>
     </defs>
     <g style="fill:#262626;" transform="translate(149.399297 350.036406)scale(0.11 -0.11)">
      <use xlink:href="#DejaVuSans-50"/>
      <use x="60.287109" xlink:href="#DejaVuSans-72"/>
      <use x="101.369141" xlink:href="#DejaVuSans-6f"/>
      <use x="162.550781" xlink:href="#DejaVuSans-70"/>
      <use x="226.027344" xlink:href="#DejaVuSans-6f"/>
      <use x="287.208984" xlink:href="#DejaVuSans-72"/>
      <use x="328.322266" xlink:href="#DejaVuSans-74"/>
      <use x="367.53125" xlink:href="#DejaVuSans-69"/>
      <use x="395.314453" xlink:href="#DejaVuSans-6f"/>
      <use x="456.496094" xlink:href="#DejaVuSans-6e"/>
      <use x="519.875" xlink:href="#DejaVuSans-20"/>
      <use x="551.662109" xlink:href="#DejaVuSans-6f"/>
      <use x="612.84375" xlink:href="#DejaVuSans-66"/>
      <use x="648.048828" xlink:href="#DejaVuSans-20"/>
      <use x="679.835938" xlink:href="#DejaVuSans-70"/>
      <use x="743.3125" xlink:href="#DejaVuSans-6f"/>
      <use x="804.494141" xlink:href="#DejaVuSans-6c"/>
      <use x="832.277344" xlink:href="#DejaVuSans-69"/>
      <use x="860.060547" xlink:href="#DejaVuSans-63"/>
      <use x="915.041016" xlink:href="#DejaVuSans-69"/>
      <use x="942.824219" xlink:href="#DejaVuSans-65"/>
      <use x="1004.347656" xlink:href="#DejaVuSans-73"/>
      <use x="1056.447266" xlink:href="#DejaVuSans-20"/>
      <use x="1088.234375" xlink:href="#DejaVuSans-72"/>
      <use x="1129.316406" xlink:href="#DejaVuSans-65"/>
      <use x="1190.839844" xlink:href="#DejaVuSans-6d"/>
      <use x="1288.251953" xlink:href="#DejaVuSans-6f"/>
      <use x="1349.433594" xlink:href="#DejaVuSans-76"/>
      <use x="1408.613281" xlink:href="#DejaVuSans-65"/>
      <use x="1470.136719" xlink:href="#DejaVuSans-64"/>
      <use x="1533.613281" xlink:href="#DejaVuSans-20"/>
      <use x="1565.400391" xlink:href="#DejaVuSans-66"/>
      <use x="1600.605469" xlink:href="#DejaVuSans-72"/>
      <use x="1641.6875" xlink:href="#DejaVuSans-6f"/>
      <use x="1702.869141" xlink:href="#DejaVuSans-6d"/>
      <use x="1800.28125" xlink:href="#DejaVuSans-20"/>
      <use x="1832.068359" xlink:href="#DejaVuSans-74"/>
      <use x="1871.277344" xlink:href="#DejaVuSans-68"/>
      <use x="1934.65625" xlink:href="#DejaVuSans-65"/>
      <use x="1996.179688" xlink:href="#DejaVuSans-20"/>
      <use x="2027.966797" xlink:href="#DejaVuSans-70"/>
      <use x="2091.443359" xlink:href="#DejaVuSans-6f"/>
      <use x="2152.625" xlink:href="#DejaVuSans-72"/>
      <use x="2193.738281" xlink:href="#DejaVuSans-74"/>
      <use x="2232.947266" xlink:href="#DejaVuSans-66"/>
      <use x="2268.152344" xlink:href="#DejaVuSans-6f"/>
      <use x="2329.333984" xlink:href="#DejaVuSans-6c"/>
      <use x="2357.117188" xlink:href="#DejaVuSans-69"/>
      <use x="2384.900391" xlink:href="#DejaVuSans-6f"/>
      <use x="2446.082031" xlink:href="#DejaVuSans-20"/>
      <use x="2477.869141" xlink:href="#DejaVuSans-28"/>
      <use x="2516.882812" xlink:href="#DejaVuSans-25"/>
      <use x="2611.902344" xlink:href="#DejaVuSans-29"/>
     </g>
    </g>
   </g>
   <g id="matplotlib.axis_2">
    <g id="ytick_1">
     <g id="line2d_7">
      <defs>
       <path d="M 0 0
L -6 0
" id="m7eed657afc" style="stroke:#262626;"/>
      </defs>
      <g>
       <use style="fill:#262626;stroke:#262626;" x="72" xlink:href="#m7eed657afc" y="315"/>
      </g>
     </g>
     <g id="text_8">
      <!-- 0 -->
      <g style="fill:#262626;" transform="translate(52.6375 318.799219)scale(0.1 -0.1)">
       <use xlink:href="#DejaVuSans-30"/>
      </g>
     </g>
    </g>
    <g id="ytick_2">
     <g id="line2d_8">
      <g>
       <use style="fill:#262626;stroke:#262626;" x="72" xlink:href="#m7eed657afc" y="260.64"/>
      </g>
     </g>
     <g id="text_9">
      <!-- 20 -->
      <g style="fill:#262626;" transform="translate(46.275 264.439219)scale(0.1 -0.1)">
       <use xlink:href="#DejaVuSans-32"/>
       <use x="63.623047" xlink:href="#DejaVuSans-30"/>
      </g>
     </g>
    </g>
    <g id="ytick_3">
     <g id="line2d_9">
      <g>
       <use style="fill:#262626;stroke:#262626;" x="72" xlink:href="#m7eed657afc" y="206.28"/>
      </g>
     </g>
     <g id="text_10">
      <!-- 40 -->
      <g style="fill:#262626;" transform="translate(46.275 210.079219)scale(0.1 -0.1)">
       <use xlink:href="#DejaVuSans-34"/>
       <use x="63.623047" xlink:href="#DejaVuSans-30"/>
      </g>
     </g>
    </g>
    <g id="ytick_4">
     <g id="line2d_10">
      <g>
       <use style="fill:#262626;stroke:#262626;" x="72" xlink:href="#m7eed657afc" y="151.92"/>
      </g>
     </g>
     <g id="text_11">
      <!-- 60 -->
      <g style="fill:#262626;" transform="translate(46.275 155.719219)scale(0.1 -0.1)">
       <use xlink:href="#DejaVuSans-36"/>
       <use x="63.623047" xlink:href="#DejaVuSans-30"/>
      </g>
     </g>
    </g>
    <g id="ytick_5">
     <g id="line2d_11">
      <g>
       <use style="fill:#262626;stroke:#262626;" x="72" xlink:href="#m7eed657afc" y="97.56"/>
      </g>
     </g>
     <g id="text_12">
      <!-- 80 -->
      <g style="fill:#262626;" transform="translate(46.275 101.359219)scale(0.1 -0.1)">
       <use xlink:href="#DejaVuSans-38"/>
       <use x="63.623047" xlink:href="#DejaVuSans-30"/>
      </g>
     </g>
    </g>
    <g id="ytick_6">
     <g id="line2d_12">
      <g>
       <use style="fill:#262626;stroke:#262626;" x="72" xlink:href="#m7eed657afc" y="43.2"/>
      </g>
     </g>
     <g id="text_13">
      <!-- 100 -->
      <g style="fill:#262626;" transform="translate(39.9125 46.999219)scale(0.1 -0.1)">
       <use xlink:href="#DejaVuSans-31"/>
       <use x="63.623047" xlink:href="#DejaVuSans-30"/>
       <use x="127.246094" xlink:href="#DejaVuSans-30"/>
      </g>
     </g>
    </g>
    <g id="text_14">
     <!-- Gross loss ratio (%) -->
     <defs>
      <path d="M 59.515625 10.40625
L 59.515625 29.984375
L 43.40625 29.984375
L 43.40625 38.09375
L 69.28125 38.09375
L 69.28125 6.78125
Q 63.578125 2.734375 56.6875 0.65625
Q 49.8125 -1.421875 42 -1.421875
Q 24.90625 -1.421875 15.25 8.5625
Q 5.609375 18.5625 5.609375 36.375
Q 5.609375 54.25 15.25 64.234375
Q 24.90625 74.21875 42 74.21875
Q 49.125 74.21875 55.546875 72.453125
Q 61.96875 70.703125 67.390625 67.28125
L 67.390625 56.78125
Q 61.921875 61.421875 55.765625 63.765625
Q 49.609375 66.109375 42.828125 66.109375
Q 29.4375 66.109375 22.71875 58.640625
Q 16.015625 51.171875 16.015625 36.375
Q 16.015625 21.625 22.71875 14.15625
Q 29.4375 6.6875 42.828125 6.6875
Q 48.046875 6.6875 52.140625 7.59375
Q 56.25 8.5 59.515625 10.40625
z
" id="DejaVuSans-47"/>
      <path d="M 34.28125 27.484375
Q 23.390625 27.484375 19.1875 25
Q 14.984375 22.515625 14.984375 16.5
Q 14.984375 11.71875 18.140625 8.90625
Q 21.296875 6.109375 26.703125 6.109375
Q 34.1875 6.109375 38.703125 11.40625
Q 43.21875 16.703125 43.21875 25.484375
L 43.21875 27.484375
z
M 52.203125 31.203125
L 52.203125 0
L 43.21875 0
L 43.21875 8.296875
Q 40.140625 3.328125 35.546875 0.953125
Q 30.953125 -1.421875 24.3125 -1.421875
Q 15.921875 -1.421875 10.953125 3.296875
Q 6 8.015625 6 15.921875
Q 6 25.140625 12.171875 29.828125
Q 18.359375 34.515625 30.609375 34.515625
L 43.21875 34.515625
L 43.21875 35.40625
Q 43.21875 41.609375 39.140625 45
Q 35.0625 48.390625 27.6875 48.390625
Q 23 48.390625 18.546875 47.265625
Q 14.109375 46.140625 10.015625 43.890625
L 10.015625 52.203125
Q 14.9375 54.109375 19.578125 55.046875
Q 24.21875 56 28.609375 56
Q 40.484375 56 46.34375 49.84375
Q 52.203125 43.703125 52.203125 31.203125
z
" id="DejaVuSans-61"/>
     </defs>
     <g style="fill:#262626;" transform="translate(33.624844 232.782578)rotate(-90)scale(0.11 -0.11)">
      <use xlink:href="#DejaVuSans-47"/>
      <use x="77.490234" xlink:href="#DejaVuSans-72"/>
      <use x="118.572266" xlink:href="#DejaVuSans-6f"/>
      <use x="179.753906" xlink:href="#DejaVuSans-73"/>
      <use x="231.853516" xlink:href="#DejaVuSans-73"/>
      <use x="283.953125" xlink:href="#DejaVuSans-20"/>
      <use x="315.740234" xlink:href="#DejaVuSans-6c"/>
      <use x="343.523438" xlink:href="#DejaVuSans-6f"/>
      <use x="404.705078" xlink:href="#DejaVuSans-73"/>
      <use x="456.804688" xlink:href="#DejaVuSans-73"/>
      <use x="508.904297" xlink:href="#DejaVuSans-20"/>
      <use x="540.691406" xlink:href="#DejaVuSans-72"/>
      <use x="581.804688" xlink:href="#DejaVuSans-61"/>
      <use x="643.083984" xlink:href="#DejaVuSans-74"/>
      <use x="682.292969" xlink:href="#DejaVuSans-69"/>
      <use x="710.076172" xlink:href="#DejaVuSans-6f"/>
      <use x="771.257812" xlink:href="#DejaVuSans-20"/>
      <use x="803.044922" xlink:href="#DejaVuSans-28"/>
      <use x="842.058594" xlink:href="#DejaVuSans-25"/>
      <use x="937.078125" xlink:href="#DejaVuSans-29"/>
     </g>
    </g>
   </g>
   <g id="line2d_13">
    <path clip-path="url(#p66aefb7319)" d="M 92.290909 122.981866
L 93.434059 122.698971
L 94.005634 123.64305
L 94.577209 124.101555
L 95.148784 124.154803
L 95.720359 123.877969
L 96.291933 123.854085
L 96.863508 124.3474
L 102.579257 124.281107
L 103.150832 124.393443
L 103.722407 124.204079
L 104.865557 124.202975
L 106.580282 123.704924
L 107.151857 124.555178
L 108.295006 124.470158
L 108.866581 124.647333
L 109.438156 124.585682
L 110.009731 124.668532
L 111.724456 124.629843
L 112.296031 124.946283
L 112.867606 125.117721
L 113.439181 124.388773
L 114.010755 124.304718
L 114.58233 123.999579
L 115.153905 124.254046
L 115.72548 123.952223
L 116.297055 124.163377
L 118.583355 123.901513
L 119.15493 125.854973
L 119.726504 126.030892
L 120.298079 125.037862
L 120.869654 124.875464
L 122.012804 124.90379
L 122.584379 125.085843
L 123.155954 125.392976
L 123.727529 125.156693
L 124.299104 125.136463
L 127.156978 123.065728
L 127.728553 123.004401
L 128.300128 122.521041
L 129.443278 122.362997
L 130.014853 122.45059
L 130.586428 122.741633
L 131.158003 122.685989
L 131.729577 123.143859
L 132.872727 122.99269
L 133.444302 123.176177
L 134.015877 122.768946
L 136.302177 122.575786
L 136.873752 122.68173
L 137.445327 122.026805
L 138.588476 122.065905
L 139.160051 122.096667
L 139.731626 122.239121
L 144.304225 121.973763
L 144.8758 121.671313
L 146.01895 121.499105
L 146.590525 122.166559
L 149.448399 121.993606
L 151.734699 121.832761
L 152.306274 121.49961
L 152.877849 121.562913
L 154.020999 121.429796
L 154.592574 121.132735
L 155.164149 121.23608
L 158.022023 120.965604
L 158.593598 120.903015
L 159.736748 121.116842
L 160.308323 120.591625
L 161.451472 120.164524
L 162.023047 120.847767
L 162.594622 120.894464
L 163.166197 121.247343
L 163.737772 121.050761
L 164.309347 120.99242
L 164.880922 121.33697
L 166.024072 121.179705
L 166.595647 121.133911
L 168.881946 121.337809
L 169.453521 121.329877
L 170.025096 122.021454
L 171.168246 121.95631
L 171.739821 121.585242
L 172.311396 121.525837
L 172.882971 121.269773
L 177.45557 120.84133
L 178.027145 120.885902
L 178.59872 120.716716
L 179.170294 121.25714
L 179.741869 121.271561
L 180.313444 122.332683
L 181.456594 122.261776
L 182.599744 122.161602
L 183.171319 122.329944
L 185.457618 122.111623
L 187.172343 122.512569
L 187.743918 122.419501
L 188.887068 122.09852
L 190.030218 122.11086
L 190.601793 123.857955
L 191.173367 123.057607
L 192.888092 123.039006
L 193.459667 122.638974
L 194.031242 122.917521
L 195.745967 122.802575
L 196.889117 122.787428
L 197.460691 122.729786
L 198.032266 121.973328
L 198.603841 122.487899
L 199.175416 122.400904
L 199.746991 122.862764
L 200.890141 122.82051
L 201.461716 123.703918
L 202.033291 126.072578
L 202.604866 125.881128
L 203.748015 125.825468
L 204.31959 126.120723
L 206.034315 125.755079
L 206.60589 126.095347
L 207.177465 125.887024
L 207.74904 126.035298
L 208.89219 125.969143
L 209.463764 125.796215
L 210.035339 125.827938
L 210.606914 124.486513
L 211.178489 124.240792
L 211.750064 124.116443
L 212.321639 124.10703
L 212.893214 124.396686
L 213.464789 124.381009
L 214.036364 124.135063
L 214.607939 124.412424
L 216.322663 124.178615
L 216.894238 125.533883
L 220.323688 125.524162
L 220.895262 125.397336
L 221.466837 125.666435
L 223.181562 125.666103
L 223.753137 125.985325
L 224.896287 125.879502
L 225.467862 125.906165
L 226.611012 125.816054
L 227.754161 125.812591
L 228.325736 126.173011
L 228.897311 126.825386
L 229.468886 126.809346
L 230.040461 126.930293
L 230.612036 126.932321
L 231.183611 126.751952
L 232.326761 126.744354
L 233.46991 126.579937
L 234.041485 126.795964
L 234.61306 126.767787
L 235.184635 126.916344
L 235.75621 127.367996
L 236.89936 127.160171
L 237.470935 127.45064
L 238.04251 127.13744
L 240.328809 126.763992
L 241.471959 126.755276
L 242.043534 125.995064
L 244.329834 125.56807
L 244.901408 125.587413
L 245.472983 125.774228
L 246.044558 126.24615
L 247.187708 126.219996
L 247.759283 125.928296
L 248.902433 125.853406
L 250.045583 125.368878
L 250.617157 125.361386
L 251.760307 128.513365
L 252.331882 128.248452
L 254.618182 128.002947
L 255.189757 128.165584
L 255.761332 129.468394
L 256.904481 129.464041
L 257.476056 129.759691
L 258.619206 129.588187
L 259.190781 129.185369
L 262.048656 128.77832
L 262.62023 129.200449
L 264.334955 128.8148
L 264.90653 127.807158
L 265.478105 127.972314
L 266.04968 128.265781
L 266.621255 128.048916
L 268.907554 127.91843
L 269.479129 128.012635
L 270.050704 127.925121
L 270.622279 127.980732
L 271.193854 127.623462
L 272.337004 128.03404
L 272.908579 128.93073
L 273.480154 130.936333
L 274.623303 130.872853
L 275.194878 130.692583
L 275.766453 131.445302
L 276.909603 131.401219
L 277.481178 131.242797
L 278.052753 131.904184
L 278.624328 131.833627
L 279.195903 133.344976
L 280.339052 133.104899
L 280.910627 133.197073
L 281.482202 133.143955
L 282.053777 133.470806
L 282.625352 133.320237
L 283.196927 132.268796
L 285.483227 132.007601
L 286.054802 131.364603
L 286.626376 130.485324
L 287.769526 130.746115
L 288.912676 130.549232
L 290.055826 129.938736
L 290.627401 129.915031
L 291.198976 129.465298
L 291.770551 129.802403
L 292.9137 129.627705
L 293.485275 129.353351
L 294.05685 129.484702
L 294.628425 129.30796
L 295.2 129.472553
L 295.771575 129.509866
L 296.34315 129.334675
L 296.914725 128.873875
L 297.4863 128.774078
L 298.057875 128.924926
L 298.629449 128.220944
L 299.772599 129.890884
L 300.915749 129.440866
L 301.487324 129.696213
L 302.058899 129.36882
L 302.630474 129.26243
L 303.202049 128.892068
L 306.631498 128.51342
L 307.203073 129.24158
L 308.346223 128.486985
L 308.917798 128.395215
L 309.489373 128.420512
L 310.060948 127.721824
L 311.204097 127.221945
L 312.347247 127.168744
L 313.490397 126.969999
L 314.061972 126.147436
L 314.633547 126.420266
L 315.205122 125.938015
L 315.776697 127.090945
L 316.348271 126.974851
L 318.062996 126.288002
L 318.634571 126.363149
L 319.206146 127.444495
L 320.349296 127.072931
L 320.920871 126.649605
L 321.492446 127.121072
L 322.06402 128.671106
L 322.635595 128.647966
L 323.20717 128.2163
L 324.35032 127.923875
L 324.921895 128.014284
L 325.49347 127.328758
L 326.065045 127.499047
L 327.208195 127.509365
L 327.77977 127.686514
L 329.494494 127.388132
L 330.066069 127.210821
L 330.637644 126.79311
L 331.780794 126.644521
L 332.352369 126.344986
L 334.067093 125.928485
L 334.638668 125.889596
L 335.210243 125.474761
L 336.353393 125.571634
L 336.924968 125.444113
L 338.639693 124.236548
L 340.925992 123.797714
L 341.497567 124.401375
L 342.069142 124.709937
L 343.212292 124.588717
L 343.783867 124.465907
L 344.355442 124.16821
L 345.498592 121.89515
L 346.070166 121.381203
L 346.641741 121.325761
L 347.213316 120.607521
L 347.784891 120.864489
L 348.356466 122.842174
L 348.928041 122.842445
L 349.499616 123.061004
L 350.071191 125.865599
L 350.642766 126.517022
L 353.50064 125.180795
L 354.072215 123.586884
L 354.64379 123.545289
L 356.358515 123.028312
L 356.93009 122.33893
L 357.501665 122.427941
L 358.073239 128.782998
L 358.644814 128.960288
L 359.216389 128.269354
L 359.787964 128.330742
L 360.359539 129.048018
L 360.931114 128.751519
L 361.502689 128.231957
L 362.074264 128.120571
L 363.217414 128.227358
L 363.788988 128.558199
L 364.360563 128.238286
L 366.075288 128.143154
L 366.646863 127.859999
L 367.218438 128.00748
L 367.790013 129.002106
L 370.076312 128.993962
L 370.647887 128.781521
L 371.219462 127.858649
L 371.791037 127.788162
L 372.934187 127.33991
L 373.505762 127.069684
L 374.077337 126.444318
L 374.648912 126.719957
L 375.220487 126.45503
L 376.363636 127.570534
L 376.935211 128.710052
L 377.506786 128.605996
L 378.078361 128.312323
L 378.649936 128.580502
L 379.221511 129.543851
L 380.936236 129.485936
L 382.079385 129.24551
L 382.65096 128.756021
L 383.222535 131.357378
L 383.79411 131.233652
L 384.365685 130.947707
L 384.93726 131.099734
L 387.22356 130.815783
L 387.795134 130.322504
L 388.366709 131.376573
L 390.081434 130.908264
L 390.653009 131.641783
L 391.224584 130.928457
L 391.796159 130.954218
L 392.367734 129.08882
L 393.510883 128.814289
L 394.082458 127.96706
L 394.654033 126.8991
L 395.797183 126.689103
L 396.368758 127.392516
L 396.940333 127.285992
L 397.511908 126.607784
L 398.083483 124.829262
L 398.655058 124.234273
L 399.226633 125.97197
L 399.798207 125.161697
L 400.369782 123.246549
L 402.656082 122.435353
L 403.227657 123.744076
L 403.799232 123.287487
L 404.370807 123.127346
L 404.942382 122.232211
L 405.513956 120.004922
L 406.085531 120.029531
L 407.228681 121.150467
L 407.800256 119.567003
L 408.371831 118.953485
L 408.943406 121.050107
L 409.514981 120.915305
L 410.086556 121.124846
L 410.658131 121.088779
L 413.516005 120.207463
L 414.659155 121.097103
L 415.23073 123.647821
L 415.802305 123.325964
L 416.37388 123.792056
L 416.945455 123.667393
L 417.517029 125.63939
L 418.088604 125.504897
L 418.660179 134.100039
L 419.231754 134.522526
L 419.803329 135.225933
L 420.374904 135.129221
L 420.946479 134.858385
L 422.089629 132.767153
L 422.661204 133.450639
L 423.232778 133.149874
L 423.804353 132.412331
L 424.375928 132.145769
L 424.947503 147.374817
L 425.519078 148.077492
L 426.090653 147.850394
L 426.662228 148.196745
L 427.233803 148.746325
L 427.805378 146.911156
L 428.376953 146.492264
L 428.948528 146.424874
L 429.520102 146.115334
L 430.091677 146.654668
L 430.663252 146.776542
L 431.234827 146.339007
L 431.806402 146.154806
L 432.377977 145.10334
L 432.949552 144.949406
L 433.521127 144.310557
L 434.092702 145.116549
L 434.664277 144.232273
L 435.807426 145.15304
L 436.379001 145.021873
L 436.950576 147.771763
L 437.522151 147.612427
L 438.093726 146.592284
L 438.665301 149.290715
L 439.236876 143.971981
L 439.808451 143.889025
L 440.380026 143.5489
L 440.951601 142.811712
L 441.523175 141.24715
L 442.09475 141.597861
L 442.666325 143.207598
L 443.2379 143.645386
L 443.809475 143.621908
L 444.38105 145.485719
L 444.952625 144.910452
L 445.5242 144.546677
L 446.095775 143.550624
L 446.66735 141.832427
L 447.238924 141.048573
L 447.810499 141.848462
L 448.382074 143.938444
L 448.953649 139.352619
L 449.525224 139.644003
L 450.096799 139.162422
L 450.668374 142.75001
L 451.239949 140.799025
L 451.811524 162.185955
L 452.383099 168.159979
L 452.954673 168.000666
L 453.526248 168.889507
L 454.097823 171.01743
L 454.669398 170.137163
L 455.240973 170.404634
L 455.812548 168.17798
L 456.384123 167.485873
L 456.955698 168.18915
L 458.098848 166.575119
L 458.670423 165.752106
L 459.241997 165.359805
L 459.813572 164.476233
L 460.385147 160.054811
L 460.956722 159.756358
L 461.528297 158.006777
L 462.099872 157.166892
L 462.671447 155.368459
L 463.243022 156.440154
L 463.814597 155.483639
L 464.386172 159.266423
L 464.957746 161.581251
L 465.529321 160.570323
L 466.100896 155.086565
L 466.672471 154.580013
L 467.244046 153.878724
L 467.815621 152.834607
L 468.387196 152.262072
L 468.958771 151.167403
L 469.530346 150.953684
L 470.101921 151.708931
L 470.673496 157.839795
L 471.24507 156.500745
L 471.816645 174.710199
L 472.959795 173.73118
L 473.53137 174.16997
L 474.102945 168.555497
L 474.67452 168.121287
L 475.246095 163.00634
L 475.81767 164.345135
L 476.389245 162.712761
L 476.960819 160.09868
L 477.532394 161.787999
L 478.675544 155.218973
L 479.247119 153.227151
L 479.818694 151.661945
L 480.390269 146.958424
L 480.961844 157.576109
L 481.533419 147.787952
L 482.104994 154.749156
L 482.676569 167.053873
L 483.248143 164.920859
L 483.819718 159.587448
L 484.391293 171.337949
L 484.962868 169.177878
L 485.534443 191.347068
L 487.249168 186.721522
L 487.820743 231.050231
L 488.392318 223.638792
L 488.963892 262.291622
L 489.535467 264.55163
L 490.107042 258.176593
L 490.678617 253.607572
L 491.250192 272.47932
L 491.821767 273.827972
L 492.393342 291.959609
L 492.964917 303.006575
L 493.536492 302.258213
L 494.108067 301.703103
L 494.679641 304.633742
L 495.251216 303.24246
L 495.822791 302.857478
L 496.394366 310.773525
L 496.965941 315
L 498.109091 315
L 498.109091 315
" style="fill:none;stroke:#9b59b6;stroke-linecap:round;stroke-width:1.75;"/>
   </g>
   <g id="line2d_14">
    <path clip-path="url(#p66aefb7319)" d="M 92.290909 124.327996
L 92.862484 123.698112
L 93.434059 124.447624
L 94.577209 125.12737
L 95.148784 125.629877
L 95.720359 125.649263
L 96.291933 126.324626
L 96.863508 125.897484
L 98.578233 125.810413
L 99.149808 125.600472
L 100.292958 125.767236
L 100.864533 126.871363
L 102.579257 126.613565
L 103.150832 127.184991
L 104.293982 126.076625
L 104.865557 125.94525
L 105.437132 126.182261
L 107.151857 125.886071
L 107.723431 126.109269
L 109.438156 125.899284
L 110.009731 126.560066
L 110.581306 126.868706
L 111.152881 126.620184
L 111.724456 126.91629
L 112.296031 126.837805
L 112.867606 126.596364
L 113.439181 126.833526
L 114.010755 126.775962
L 114.58233 126.594315
L 115.153905 126.61328
L 115.72548 126.436995
L 116.86863 126.414554
L 117.440205 127.393972
L 118.01178 127.216608
L 118.583355 129.106822
L 119.726504 129.06129
L 120.298079 128.963137
L 120.869654 129.526067
L 121.441229 129.701703
L 123.727529 129.557934
L 124.299104 129.808825
L 128.300128 129.631512
L 128.871703 129.66984
L 130.014853 129.505746
L 130.586428 129.507051
L 131.158003 129.751581
L 133.444302 129.510997
L 134.015877 128.87491
L 134.587452 128.849451
L 136.873752 127.071042
L 137.445327 127.284456
L 139.160051 127.225513
L 142.589501 127.024826
L 143.161076 126.847747
L 143.73265 127.569661
L 144.304225 127.818356
L 144.8758 127.839764
L 146.01895 127.47655
L 146.590525 127.064992
L 147.733675 127.398676
L 148.876825 127.390714
L 149.448399 128.553018
L 150.019974 128.405053
L 150.591549 128.519323
L 151.163124 128.448758
L 151.734699 128.823858
L 152.306274 128.635575
L 152.877849 130.011382
L 153.449424 128.745335
L 155.164149 128.624227
L 155.735723 129.944394
L 156.878873 129.32498
L 159.165173 129.022962
L 159.736748 128.137665
L 160.308323 128.509405
L 162.023047 128.369179
L 162.594622 128.265534
L 163.166197 129.02616
L 163.737772 129.009956
L 164.309347 129.268457
L 164.880922 129.121115
L 166.024072 128.427901
L 166.595647 128.043721
L 167.738796 127.678596
L 168.881946 127.60565
L 169.453521 128.318606
L 170.596671 127.898405
L 171.168246 127.139375
L 171.739821 127.00348
L 172.882971 126.518391
L 173.454545 126.703728
L 174.02612 127.371323
L 174.597695 126.913851
L 175.16927 126.962821
L 175.740845 126.298465
L 176.31242 126.282045
L 176.883995 126.106966
L 177.45557 126.383528
L 178.59872 125.575055
L 179.170294 125.592139
L 179.741869 127.25136
L 181.456594 127.463422
L 182.028169 127.17247
L 182.599744 127.074918
L 183.171319 126.661166
L 183.742894 126.619218
L 184.314469 127.320504
L 184.886044 127.413049
L 185.457618 127.923063
L 186.029193 127.290133
L 186.600768 127.099854
L 187.172343 127.082242
L 187.743918 126.321657
L 188.887068 125.870119
L 189.458643 125.369603
L 190.030218 125.884025
L 191.173367 125.664181
L 191.744942 126.707762
L 192.888092 126.610743
L 193.459667 125.674072
L 194.031242 125.731129
L 195.745967 125.014911
L 196.317542 124.617968
L 197.460691 124.538136
L 198.032266 123.8636
L 198.603841 123.728099
L 199.175416 123.307934
L 199.746991 123.282182
L 200.318566 123.010013
L 200.890141 123.488019
L 201.461716 123.379437
L 202.033291 123.585631
L 202.604866 123.436082
L 203.17644 123.070838
L 203.748015 123.05499
L 204.31959 122.894249
L 204.891165 122.09323
L 205.46274 122.269614
L 206.60589 121.942246
L 207.177465 122.249526
L 208.89219 121.837017
L 209.463764 121.888064
L 210.035339 121.338867
L 211.178489 122.152232
L 211.750064 122.255973
L 212.321639 121.499762
L 212.893214 121.013767
L 213.464789 121.029194
L 214.607939 121.402841
L 215.179513 121.319221
L 215.751088 121.369331
L 216.322663 120.776981
L 216.894238 121.020099
L 218.037388 120.786054
L 218.608963 120.380723
L 219.180538 120.419062
L 219.752113 120.713478
L 220.323688 120.576527
L 220.895262 120.560179
L 221.466837 120.161969
L 222.038412 119.932506
L 222.609987 119.991234
L 223.753137 121.618001
L 224.896287 120.976124
L 225.467862 120.017583
L 226.039437 119.905482
L 226.611012 123.890737
L 227.182586 123.553265
L 227.754161 124.295088
L 228.325736 124.277283
L 228.897311 123.980487
L 229.468886 123.538508
L 230.040461 123.481777
L 231.755186 123.04559
L 232.326761 122.95247
L 232.898335 124.813026
L 234.61306 124.260502
L 235.184635 124.633082
L 236.327785 124.793054
L 236.89936 124.788402
L 237.470935 124.589459
L 238.04251 123.305879
L 238.614085 123.200489
L 239.185659 123.470506
L 239.757234 124.118126
L 240.328809 124.567762
L 240.900384 123.898082
L 241.471959 123.823962
L 242.043534 123.950549
L 242.615109 124.829679
L 243.186684 124.402751
L 243.758259 124.618982
L 244.329834 124.235596
L 244.901408 124.462998
L 246.044558 124.113432
L 246.616133 123.964331
L 247.187708 124.159599
L 247.759283 123.741171
L 248.330858 124.952007
L 248.902433 125.074097
L 250.045583 123.849614
L 250.617157 123.671274
L 251.760307 124.115078
L 252.331882 127.915809
L 252.903457 127.573592
L 253.475032 127.460729
L 254.046607 127.748304
L 254.618182 127.66425
L 255.189757 127.763293
L 255.761332 129.561373
L 256.332907 129.436527
L 256.904481 129.452788
L 257.476056 129.730243
L 258.047631 129.66506
L 258.619206 129.8021
L 259.190781 128.99078
L 259.762356 130.060908
L 260.905506 129.881698
L 261.477081 132.867937
L 262.048656 132.472495
L 262.62023 132.393343
L 263.191805 132.696009
L 263.76338 132.557439
L 264.334955 132.615165
L 264.90653 132.048155
L 266.04968 131.865634
L 266.621255 131.792498
L 267.19283 132.271645
L 267.764405 132.465019
L 268.33598 132.032222
L 268.907554 131.846511
L 269.479129 131.420748
L 270.622279 131.058108
L 271.193854 131.049734
L 272.337004 132.01546
L 272.908579 131.591426
L 273.480154 130.938198
L 274.051729 129.239319
L 274.623303 129.049332
L 275.194878 129.025232
L 275.766453 129.184851
L 276.909603 129.143049
L 277.481178 128.891165
L 278.052753 129.080108
L 278.624328 128.844302
L 279.195903 128.969986
L 280.910627 128.707379
L 281.482202 128.2656
L 282.625352 128.12571
L 283.196927 128.651993
L 283.768502 128.22696
L 284.340077 128.335166
L 284.911652 133.826228
L 285.483227 133.680716
L 286.054802 134.603226
L 287.197951 134.602956
L 288.341101 134.254581
L 288.912676 135.157127
L 289.484251 135.04733
L 290.055826 135.464282
L 290.627401 135.567288
L 291.770551 135.342526
L 292.342125 134.987671
L 292.9137 133.157231
L 293.485275 133.329219
L 294.05685 132.014086
L 294.628425 131.884073
L 295.2 131.919054
L 295.771575 131.473389
L 296.914725 131.130594
L 297.4863 130.599636
L 298.057875 131.425907
L 298.629449 130.818286
L 299.201024 130.670665
L 300.344174 131.197529
L 300.915749 130.910871
L 301.487324 129.833363
L 302.058899 130.626181
L 302.630474 130.809496
L 303.202049 130.210241
L 303.773624 129.895033
L 304.345198 131.046266
L 304.916773 130.717211
L 305.488348 128.227677
L 306.059923 128.105585
L 306.631498 128.232199
L 307.203073 128.211132
L 307.774648 127.561791
L 308.917798 127.248719
L 309.489373 125.762489
L 310.060948 125.774981
L 310.632522 125.389314
L 311.204097 123.518637
L 311.775672 123.175931
L 312.347247 123.263749
L 312.918822 122.526992
L 313.490397 122.820093
L 314.633547 122.467178
L 315.205122 122.978231
L 315.776697 122.893281
L 316.348271 122.197046
L 316.919846 121.269898
L 317.491421 120.872563
L 318.062996 120.886425
L 318.634571 120.61155
L 319.206146 120.163611
L 320.349296 120.06926
L 320.920871 119.731093
L 322.06402 119.352217
L 322.635595 119.47498
L 323.20717 119.860107
L 323.778745 119.659408
L 324.35032 118.90216
L 324.921895 119.913129
L 325.49347 119.953691
L 326.065045 119.744096
L 326.63662 117.877964
L 327.208195 118.643012
L 327.77977 119.838203
L 328.922919 120.143513
L 329.494494 120.453796
L 330.066069 126.589362
L 331.780794 126.009355
L 332.352369 124.716824
L 333.495519 123.894932
L 334.067093 124.239182
L 334.638668 124.039869
L 335.210243 128.568729
L 335.781818 128.47803
L 336.353393 127.75017
L 337.496543 130.816731
L 338.068118 130.787401
L 338.639693 131.203698
L 339.211268 131.299639
L 340.354417 130.702047
L 340.925992 130.45075
L 341.497567 132.83708
L 342.069142 132.267928
L 342.640717 132.332917
L 343.212292 132.241713
L 344.355442 132.63972
L 344.927017 129.99742
L 345.498592 129.234492
L 346.070166 128.883242
L 347.213316 128.589292
L 347.784891 128.267235
L 348.356466 127.413935
L 348.928041 127.325845
L 349.499616 127.09487
L 350.071191 127.198005
L 350.642766 126.808028
L 352.929065 126.483591
L 353.50064 125.705669
L 354.072215 125.651501
L 355.78694 125.182652
L 357.501665 125.035536
L 358.073239 126.036298
L 358.644814 120.477177
L 359.216389 120.204527
L 359.787964 120.564449
L 360.359539 121.5791
L 360.931114 121.450329
L 361.502689 122.238185
L 362.074264 123.299617
L 363.217414 122.969328
L 363.788988 122.20203
L 364.932138 121.962178
L 365.503713 122.210374
L 367.218438 121.464469
L 367.790013 122.566438
L 368.361588 126.14536
L 369.504738 125.679915
L 370.076312 125.49436
L 370.647887 124.884416
L 371.791037 124.117302
L 372.934187 123.70671
L 373.505762 123.588311
L 374.648912 124.047611
L 375.220487 123.793746
L 375.792061 124.0285
L 376.935211 122.993189
L 377.506786 122.158326
L 378.078361 121.957824
L 378.649936 122.527831
L 379.221511 122.806271
L 379.793086 122.542315
L 380.936236 121.323076
L 381.50781 120.786557
L 382.079385 119.773084
L 382.65096 120.394206
L 383.222535 121.927175
L 383.79411 122.661823
L 384.93726 121.480399
L 385.508835 122.418052
L 386.08041 121.412324
L 386.651985 121.036962
L 387.22356 119.939559
L 387.795134 119.810825
L 388.366709 121.09476
L 388.938284 120.867316
L 389.509859 118.280045
L 390.081434 117.894341
L 390.653009 117.049511
L 391.224584 116.710645
L 391.796159 115.881814
L 392.367734 115.663084
L 392.939309 121.768951
L 393.510883 120.64388
L 394.082458 119.986858
L 394.654033 119.696745
L 395.225608 116.601343
L 395.797183 115.948291
L 396.368758 115.576019
L 396.940333 113.6891
L 397.511908 113.250882
L 399.226633 112.585791
L 399.798207 112.548002
L 400.369782 111.301999
L 400.941357 111.545001
L 402.084507 111.151741
L 402.656082 111.875153
L 403.227657 110.581066
L 403.799232 111.603041
L 404.370807 111.247241
L 404.942382 111.113788
L 405.513956 110.516502
L 406.085531 109.278273
L 406.657106 108.920804
L 407.228681 108.038027
L 407.800256 104.620963
L 408.371831 103.683063
L 408.943406 105.606852
L 409.514981 105.081411
L 410.086556 104.300331
L 410.658131 105.249434
L 411.80128 104.28875
L 412.372855 104.250569
L 412.94443 108.393637
L 413.516005 107.966205
L 414.08758 104.201218
L 414.659155 103.422632
L 415.23073 103.227269
L 415.802305 102.564659
L 416.37388 102.129765
L 416.945455 102.735743
L 417.517029 102.238095
L 418.088604 100.344574
L 418.660179 96.364866
L 419.231754 99.005416
L 419.803329 102.661846
L 420.374904 102.837644
L 420.946479 102.547874
L 421.518054 101.399886
L 422.661204 98.45731
L 423.232778 97.915908
L 423.804353 102.819979
L 424.375928 102.458261
L 424.947503 102.316461
L 426.090653 104.525366
L 426.662228 99.901344
L 427.233803 98.554713
L 427.805378 97.514203
L 428.376953 97.013843
L 428.948528 106.310512
L 429.520102 105.754039
L 430.091677 105.01636
L 430.663252 104.885885
L 431.234827 106.474471
L 431.806402 105.914522
L 432.377977 107.955567
L 432.949552 110.714412
L 433.521127 108.377731
L 434.092702 108.460503
L 434.664277 107.628782
L 435.235851 114.161761
L 435.807426 111.417007
L 436.379001 115.902163
L 436.950576 111.559639
L 437.522151 110.710725
L 438.093726 111.109321
L 438.665301 110.88502
L 439.236876 112.095604
L 439.808451 112.309192
L 440.380026 112.964964
L 441.523175 110.870138
L 442.09475 109.24484
L 442.666325 108.86006
L 443.2379 109.995392
L 443.809475 108.927257
L 444.38105 111.208432
L 446.66735 108.302007
L 447.238924 106.754897
L 447.810499 104.467852
L 448.382074 104.346024
L 448.953649 101.878371
L 450.096799 99.229427
L 450.668374 97.195965
L 451.239949 92.61475
L 451.811524 146.638383
L 452.383099 145.094413
L 452.954673 144.681861
L 453.526248 143.58802
L 454.097823 143.159031
L 454.669398 141.823188
L 455.240973 140.845424
L 455.812548 140.78906
L 456.384123 139.291608
L 456.955698 137.03916
L 457.527273 140.036403
L 458.098848 138.61761
L 459.241997 134.922225
L 459.813572 145.550805
L 460.956722 141.414253
L 461.528297 140.973035
L 462.671447 139.034144
L 463.243022 147.059358
L 464.386172 144.929426
L 464.957746 144.098419
L 465.529321 142.443282
L 466.100896 148.885555
L 466.672471 143.173457
L 467.244046 142.701436
L 468.387196 151.747923
L 468.958771 150.42349
L 469.530346 148.110105
L 470.101921 146.543034
L 470.673496 149.416882
L 471.24507 147.156108
L 471.816645 148.973114
L 472.38822 140.784132
L 472.959795 128.738431
L 473.53137 126.123939
L 474.102945 127.588254
L 474.67452 148.960795
L 475.246095 141.636275
L 475.81767 123.617608
L 476.389245 121.110768
L 476.960819 119.838543
L 477.532394 118.063824
L 478.103969 117.592254
L 478.675544 126.711151
L 479.247119 123.689343
L 479.818694 146.021388
L 480.390269 154.717931
L 481.533419 135.743048
L 482.676569 119.496638
L 483.248143 114.579056
L 483.819718 120.258769
L 484.391293 99.525304
L 484.962868 177.353463
L 485.534443 189.036795
L 486.106018 187.243367
L 486.677593 246.110521
L 487.249168 241.937677
L 487.820743 264.855793
L 488.392318 264.288614
L 488.963892 263.276797
L 489.535467 265.278835
L 490.107042 263.99129
L 490.678617 261.205223
L 491.250192 255.695658
L 491.821767 254.330536
L 492.393342 251.520771
L 492.964917 247.213644
L 493.536492 244.435777
L 494.108067 252.986737
L 494.679641 252.440433
L 496.394366 246.851232
L 496.965941 247.636122
L 498.109091 182.023287
L 498.109091 182.023287
" style="fill:none;stroke:#3498db;stroke-dasharray:11.2,2.8,1.75,2.8;stroke-dashoffset:0;stroke-width:1.75;"/>
   </g>
   <g id="line2d_15">
    <path clip-path="url(#p66aefb7319)" d="M 92.290909 122.981866
L 93.434059 122.979795
L 94.005634 123.422885
L 96.291933 123.458734
L 96.863508 123.548379
L 97.435083 124.4971
L 98.006658 124.609613
L 98.578233 124.461028
L 99.149808 124.677256
L 100.864533 124.242535
L 102.007682 124.259224
L 102.579257 124.188575
L 103.150832 124.291558
L 103.722407 124.28051
L 104.293982 124.541837
L 104.865557 124.624858
L 105.437132 125.568938
L 106.008707 125.735219
L 106.580282 125.63696
L 107.151857 125.747422
L 111.152881 125.562632
L 111.724456 125.379375
L 112.296031 125.579932
L 112.867606 125.993604
L 115.153905 125.844843
L 115.72548 125.656831
L 116.86863 125.643755
L 117.440205 125.613204
L 118.01178 125.962378
L 118.583355 126.522724
L 120.298079 126.339205
L 121.441229 126.333289
L 122.012804 125.892258
L 122.584379 126.066725
L 123.155954 125.735786
L 123.727529 125.716915
L 124.299104 126.014797
L 124.870679 127.067065
L 125.442254 127.317443
L 126.013828 127.325876
L 126.585403 127.117709
L 127.156978 127.328465
L 127.728553 127.358365
L 128.300128 127.129151
L 128.871703 128.022132
L 131.158003 128.263627
L 132.301152 128.242617
L 135.159027 128.50258
L 135.730602 129.040303
L 137.445327 128.923498
L 138.016901 128.71483
L 139.731626 128.499194
L 140.303201 128.787079
L 140.874776 131.12326
L 143.161076 129.562809
L 143.73265 129.354722
L 144.304225 128.830471
L 144.8758 128.584469
L 145.447375 130.22869
L 146.01895 130.145405
L 146.590525 129.730416
L 147.1621 129.570408
L 147.733675 130.073844
L 148.30525 131.209363
L 149.448399 130.979297
L 150.019974 131.168735
L 150.591549 131.781676
L 151.163124 131.446797
L 152.306274 131.362121
L 152.877849 131.603104
L 153.449424 131.41846
L 154.020999 130.278725
L 154.592574 130.291288
L 155.735723 129.919822
L 156.307298 128.726904
L 156.878873 128.608605
L 157.450448 129.287155
L 158.022023 130.320947
L 158.593598 130.724566
L 160.308323 130.54396
L 160.879898 130.681933
L 161.451472 130.549995
L 163.166197 130.428709
L 164.309347 130.343605
L 164.880922 131.517901
L 165.452497 132.234505
L 167.738796 132.051248
L 168.310371 132.240345
L 168.881946 131.917089
L 169.453521 132.339692
L 172.882971 132.134214
L 173.454545 133.133214
L 174.02612 132.983725
L 174.597695 132.646264
L 175.16927 132.610683
L 175.740845 132.41873
L 176.31242 132.454036
L 177.45557 133.680694
L 178.027145 132.990903
L 179.170294 132.948145
L 179.741869 133.364055
L 181.456594 133.565463
L 182.028169 133.29896
L 182.599744 133.680927
L 183.171319 133.767392
L 183.742894 133.084495
L 184.314469 133.491523
L 184.886044 134.476294
L 185.457618 135.218004
L 186.029193 135.059279
L 187.172343 135.03374
L 187.743918 134.637348
L 188.315493 134.524356
L 189.458643 134.714198
L 190.030218 134.766552
L 190.601793 134.606355
L 191.173367 134.611826
L 191.744942 134.486564
L 192.316517 134.732768
L 192.888092 136.103436
L 194.602817 135.947608
L 195.174392 136.243633
L 196.317542 136.134864
L 196.889117 135.898449
L 199.175416 135.552388
L 199.746991 136.053971
L 200.318566 136.173942
L 200.890141 136.478117
L 201.461716 136.425888
L 202.033291 136.193041
L 203.17644 136.000197
L 203.748015 136.602056
L 204.891165 136.478177
L 206.034315 136.631616
L 206.60589 136.444532
L 207.177465 136.977111
L 208.320615 136.603696
L 208.89219 136.319055
L 209.463764 136.617133
L 210.035339 136.717817
L 210.606914 136.541416
L 211.178489 136.684009
L 211.750064 136.490404
L 212.321639 136.736015
L 212.893214 137.173273
L 213.464789 137.131547
L 214.036364 140.423707
L 215.179513 140.051463
L 215.751088 140.123754
L 216.322663 140.465917
L 216.894238 140.515347
L 217.465813 140.767183
L 218.037388 141.305101
L 218.608963 141.298501
L 219.180538 141.476921
L 219.752113 141.360084
L 220.323688 142.703283
L 220.895262 145.82531
L 221.466837 145.625566
L 222.038412 145.787348
L 224.324712 145.543475
L 224.896287 144.915996
L 225.467862 150.025336
L 226.039437 150.166767
L 226.611012 149.484184
L 227.182586 149.647905
L 227.754161 149.596135
L 228.325736 149.354102
L 229.468886 149.347753
L 230.040461 151.851674
L 231.755186 153.085565
L 232.326761 152.873063
L 232.898335 152.103435
L 233.46991 151.981837
L 234.041485 152.490611
L 234.61306 152.467078
L 235.75621 151.655802
L 236.89936 151.215205
L 237.470935 151.867689
L 238.04251 151.697175
L 238.614085 152.217199
L 239.185659 153.003294
L 239.757234 151.989917
L 240.328809 151.5104
L 240.900384 151.416312
L 241.471959 150.662532
L 242.043534 151.154659
L 242.615109 151.231729
L 243.186684 152.704716
L 244.329834 152.290292
L 244.901408 151.812824
L 245.472983 151.724109
L 246.044558 152.266468
L 246.616133 152.222776
L 247.759283 151.947147
L 248.330858 152.495927
L 249.474008 152.445017
L 250.045583 152.046694
L 250.617157 152.366976
L 251.760307 151.308771
L 252.331882 151.203037
L 252.903457 150.382024
L 253.475032 150.400124
L 254.618182 150.081652
L 255.189757 149.432855
L 255.761332 150.190914
L 256.904481 150.025436
L 257.476056 149.201107
L 258.619206 149.059296
L 259.190781 149.931682
L 260.333931 149.163032
L 260.905506 148.992899
L 261.477081 148.623321
L 262.048656 148.542257
L 262.62023 147.230547
L 263.191805 147.108245
L 263.76338 147.447373
L 264.90653 147.645178
L 265.478105 147.913218
L 266.04968 151.322168
L 266.621255 152.026232
L 267.19283 150.335491
L 267.764405 150.630677
L 268.33598 150.211472
L 268.907554 149.033547
L 270.050704 152.149238
L 272.337004 152.80592
L 272.908579 153.080938
L 273.480154 152.301649
L 274.051729 152.33674
L 274.623303 153.455813
L 275.194878 153.414217
L 275.766453 153.202972
L 276.338028 152.757245
L 276.909603 151.855095
L 277.481178 150.316325
L 278.052753 150.289722
L 278.624328 150.406016
L 280.339052 150.254311
L 280.910627 149.871997
L 282.053777 149.943076
L 283.196927 149.651157
L 283.768502 150.284899
L 284.340077 150.06719
L 284.911652 149.986232
L 285.483227 149.582369
L 286.054802 151.248062
L 287.197951 150.950279
L 287.769526 150.557737
L 288.341101 149.367263
L 288.912676 149.159544
L 290.055826 149.751269
L 290.627401 150.000104
L 291.198976 149.848523
L 291.770551 150.426597
L 292.342125 150.70905
L 292.9137 150.085311
L 293.485275 149.899143
L 294.05685 149.923919
L 294.628425 150.672021
L 295.771575 150.335475
L 296.34315 150.358421
L 296.914725 149.327035
L 297.4863 157.454784
L 298.057875 157.925674
L 298.629449 157.447253
L 299.201024 160.719066
L 299.772599 160.473383
L 300.915749 164.724742
L 301.487324 164.854034
L 302.058899 164.79012
L 304.916773 163.236499
L 305.488348 162.849728
L 306.059923 163.240628
L 306.631498 166.447281
L 307.203073 166.383286
L 307.774648 167.360126
L 308.917798 166.628736
L 309.489373 167.565081
L 310.060948 166.75511
L 310.632522 165.682182
L 311.775672 165.331023
L 312.347247 165.53995
L 312.918822 165.374779
L 313.490397 166.75753
L 314.061972 166.057909
L 314.633547 165.904154
L 315.205122 165.479229
L 316.348271 165.179616
L 317.491421 166.575255
L 318.062996 166.221484
L 318.634571 166.532075
L 319.206146 165.098332
L 319.777721 164.876709
L 320.349296 165.783779
L 320.920871 165.145395
L 321.492446 163.776197
L 322.06402 163.353615
L 322.635595 163.305967
L 323.20717 163.405547
L 324.35032 162.087027
L 324.921895 161.821016
L 325.49347 161.212387
L 326.63662 161.85462
L 327.208195 161.748745
L 327.77977 161.998281
L 328.351344 161.476768
L 328.922919 161.402511
L 329.494494 162.227555
L 330.066069 162.030199
L 330.637644 162.123648
L 331.209219 161.887379
L 331.780794 162.721492
L 332.923944 162.272836
L 333.495519 162.594525
L 334.067093 162.36215
L 334.638668 164.424132
L 335.210243 163.936528
L 335.781818 163.627347
L 336.353393 163.086087
L 336.924968 162.851537
L 338.068118 164.43791
L 339.211268 165.138203
L 339.782843 165.645743
L 340.354417 168.441157
L 340.925992 168.154734
L 341.497567 168.348744
L 342.069142 168.213399
L 342.640717 168.869241
L 343.212292 168.464035
L 343.783867 169.087329
L 344.355442 169.969861
L 344.927017 169.490704
L 345.498592 169.369371
L 346.070166 170.497662
L 346.641741 171.182132
L 347.213316 172.618468
L 347.784891 172.552822
L 348.356466 171.57044
L 348.928041 171.701674
L 349.499616 172.417275
L 350.071191 170.320075
L 350.642766 170.548054
L 351.214341 171.812973
L 351.785915 171.594194
L 352.35749 171.634251
L 352.929065 170.60946
L 353.50064 169.850228
L 354.072215 169.281379
L 354.64379 169.084097
L 355.78694 168.508253
L 356.93009 168.170089
L 357.501665 166.965717
L 358.073239 166.421777
L 358.644814 163.948861
L 359.787964 163.165026
L 360.359539 163.741076
L 360.931114 163.475118
L 361.502689 176.579855
L 362.074264 176.549802
L 362.645839 176.677281
L 363.217414 176.297194
L 363.788988 175.66231
L 364.932138 174.682517
L 365.503713 175.785646
L 366.075288 175.059508
L 366.646863 177.939251
L 367.790013 176.849855
L 368.361588 176.283508
L 368.933163 177.231253
L 369.504738 177.155473
L 370.076312 176.326601
L 370.647887 174.934249
L 371.219462 174.703634
L 371.791037 175.56409
L 372.362612 174.544807
L 372.934187 175.810641
L 373.505762 175.376205
L 374.077337 175.636748
L 374.648912 176.431038
L 375.220487 183.341144
L 375.792061 183.127914
L 376.363636 183.23645
L 377.506786 182.141412
L 378.078361 189.348994
L 379.221511 188.52576
L 379.793086 189.139547
L 380.364661 189.052068
L 380.936236 191.262294
L 381.50781 191.852571
L 382.079385 190.875575
L 382.65096 192.221338
L 383.222535 191.228469
L 383.79411 194.100006
L 384.365685 195.418823
L 385.508835 194.164473
L 386.08041 192.886185
L 386.651985 198.382313
L 387.22356 198.436748
L 387.795134 197.987629
L 388.366709 196.376668
L 388.938284 196.106915
L 389.509859 196.214802
L 390.081434 195.798346
L 390.653009 194.420359
L 391.224584 193.801985
L 391.796159 193.654388
L 392.367734 197.369587
L 392.939309 198.226015
L 393.510883 196.051451
L 394.082458 195.320758
L 394.654033 196.76039
L 395.225608 197.585967
L 395.797183 196.366772
L 396.368758 195.608084
L 396.940333 194.152358
L 397.511908 194.197213
L 398.083483 196.272258
L 398.655058 193.507159
L 399.226633 192.041707
L 399.798207 196.470978
L 400.941357 200.704917
L 401.512932 199.986259
L 402.084507 197.246196
L 402.656082 197.505192
L 403.227657 200.562178
L 403.799232 195.781421
L 404.370807 193.837365
L 404.942382 185.952217
L 405.513956 186.424937
L 406.085531 186.154203
L 406.657106 189.732349
L 407.228681 190.514738
L 407.800256 190.271727
L 408.371831 189.457233
L 408.943406 188.871463
L 409.514981 187.668663
L 410.086556 187.489275
L 410.658131 186.933283
L 411.229706 188.47456
L 411.80128 188.455983
L 412.372855 188.28217
L 412.94443 187.933106
L 413.516005 187.334939
L 414.08758 187.171781
L 416.37388 186.136875
L 417.517029 185.885396
L 418.088604 185.208282
L 419.803329 183.840675
L 420.374904 183.565498
L 420.946479 182.785334
L 421.518054 182.386356
L 422.089629 181.706065
L 422.661204 185.982068
L 423.232778 184.540158
L 423.804353 184.694906
L 424.375928 184.016051
L 424.947503 182.240348
L 425.519078 181.572874
L 426.090653 181.346618
L 428.376953 179.516939
L 429.520102 178.116144
L 430.091677 177.652374
L 430.663252 177.005041
L 431.234827 176.60058
L 431.806402 176.805793
L 432.377977 175.452883
L 432.949552 173.661266
L 433.521127 172.687669
L 434.092702 170.575852
L 434.664277 164.501283
L 435.235851 163.480314
L 435.807426 162.098792
L 436.950576 157.202435
L 437.522151 155.674694
L 438.093726 153.629188
L 438.665301 153.044019
L 439.236876 153.412535
L 439.808451 162.431161
L 440.380026 161.501854
L 440.951601 161.451892
L 442.666325 158.013298
L 443.2379 156.333978
L 443.809475 153.778993
L 444.38105 152.421732
L 444.952625 153.4353
L 445.5242 151.724184
L 446.095775 147.795019
L 446.66735 148.601721
L 447.238924 150.927107
L 447.810499 151.721449
L 448.382074 150.204256
L 448.953649 178.305494
L 449.525224 177.281631
L 450.096799 174.374831
L 450.668374 175.692038
L 451.239949 174.903137
L 452.383099 172.744673
L 452.954673 175.222249
L 454.097823 173.967602
L 454.669398 177.21469
L 455.240973 175.271551
L 455.812548 167.736995
L 456.384123 165.448826
L 456.955698 162.379805
L 457.527273 164.77693
L 458.098848 162.006033
L 458.670423 165.172291
L 459.241997 164.767523
L 459.813572 166.99256
L 460.385147 166.668717
L 460.956722 165.630676
L 461.528297 163.999354
L 462.099872 178.620022
L 462.671447 176.150808
L 463.243022 176.349601
L 463.814597 168.451065
L 464.386172 165.99127
L 464.957746 161.839844
L 465.529321 160.214108
L 466.100896 159.123423
L 467.244046 154.968665
L 468.387196 148.468462
L 469.530346 134.032559
L 470.101921 135.191343
L 470.673496 133.673008
L 471.816645 129.711149
L 472.38822 132.855955
L 472.959795 146.013918
L 473.53137 146.85971
L 474.102945 138.687133
L 474.67452 136.595855
L 475.246095 132.062621
L 475.81767 132.296115
L 476.960819 122.195157
L 477.532394 120.112432
L 478.103969 112.731662
L 478.675544 97.687071
L 479.247119 99.70281
L 479.818694 96.035248
L 480.390269 89.205671
L 480.961844 102.977908
L 481.533419 97.101817
L 482.104994 126.399939
L 482.676569 120.076398
L 483.248143 115.606855
L 483.819718 105.577082
L 484.391293 101.45206
L 485.534443 97.255948
L 486.106018 96.185432
L 486.677593 92.230461
L 487.249168 90.921965
L 487.820743 99.76741
L 488.392318 89.157871
L 488.963892 81.639202
L 489.535467 67.003775
L 490.107042 45.920051
L 490.678617 29.132842
L 491.250192 88.764568
L 492.393342 39.140375
L 492.964917 26.404809
L 493.536492 39.214383
L 494.679641 68.595813
L 495.251216 43.700826
L 495.822791 24.871561
L 495.888015 -1
L 495.888015 -1
" style="fill:none;stroke:#e74c3c;stroke-dasharray:6.475,2.8;stroke-dashoffset:0;stroke-width:1.75;"/>
   </g>
   <g id="line2d_16">
    <path clip-path="url(#p66aefb7319)" d="M 92.290909 123.612999
L 93.434059 125.161644
L 94.005634 125.367103
L 94.577209 126.833048
L 96.291933 127.601682
L 96.863508 128.085733
L 97.435083 128.881954
L 98.006658 129.282924
L 99.149808 129.693399
L 99.721383 129.886609
L 100.292958 131.697851
L 103.150832 133.077909
L 106.008707 133.895762
L 106.580282 134.352434
L 107.151857 134.559786
L 107.723431 134.590457
L 108.866581 134.985284
L 111.724456 135.620396
L 112.296031 136.181976
L 113.439181 136.554475
L 114.58233 136.683189
L 115.153905 137.027488
L 115.72548 137.988451
L 116.297055 138.178801
L 117.440205 138.726206
L 118.583355 138.895934
L 119.15493 140.038642
L 121.441229 140.671559
L 123.155954 141.337839
L 123.727529 141.934534
L 124.299104 142.094416
L 124.870679 142.836279
L 125.442254 143.146936
L 126.013828 144.12846
L 127.156978 144.528759
L 127.728553 144.668146
L 128.300128 145.076652
L 130.014853 145.902898
L 130.586428 148.173415
L 132.301152 148.553109
L 132.872727 149.513111
L 134.587452 149.662505
L 135.159027 149.863886
L 135.730602 151.002469
L 136.302177 151.096625
L 136.873752 153.137451
L 138.016901 153.299341
L 138.588476 155.176013
L 139.160051 155.219215
L 139.731626 155.431951
L 140.874776 156.51363
L 142.017926 156.646919
L 142.589501 158.403114
L 143.161076 158.452237
L 143.73265 158.819972
L 144.8758 159.120134
L 145.447375 159.698559
L 146.590525 160.106446
L 147.733675 160.384027
L 148.30525 160.738453
L 148.876825 160.795051
L 149.448399 160.967076
L 150.591549 161.065016
L 151.163124 161.31407
L 151.734699 161.360686
L 152.306274 161.766645
L 153.449424 161.897602
L 154.020999 161.945418
L 154.592574 162.362213
L 155.164149 162.521062
L 156.307298 162.657994
L 156.878873 162.765601
L 157.450448 163.456055
L 158.022023 163.594624
L 158.593598 165.020695
L 159.736748 165.172482
L 160.308323 165.52291
L 160.879898 166.411225
L 161.451472 166.420848
L 162.023047 166.831477
L 162.594622 166.91241
L 163.166197 168.491036
L 164.880922 168.8097
L 166.595647 169.224433
L 167.167222 169.254469
L 167.738796 169.418901
L 168.310371 169.437707
L 168.881946 170.273806
L 169.453521 170.306028
L 170.025096 170.5096
L 170.596671 170.579445
L 171.739821 172.165256
L 172.311396 172.572289
L 173.454545 172.693693
L 175.16927 173.087832
L 175.740845 173.559774
L 176.31242 174.993768
L 176.883995 175.903936
L 177.45557 176.04224
L 178.027145 176.442135
L 178.59872 177.728149
L 179.170294 178.161554
L 181.456594 178.704742
L 182.028169 179.015951
L 182.599744 179.717241
L 183.171319 179.846317
L 183.742894 180.158869
L 184.314469 180.758016
L 185.457618 181.035864
L 186.029193 181.855279
L 187.743918 182.074875
L 188.315493 182.285842
L 188.887068 183.77862
L 189.458643 183.896762
L 190.030218 184.271839
L 190.601793 185.383596
L 191.173367 185.947856
L 191.744942 186.202594
L 192.316517 187.560951
L 195.174392 188.007941
L 195.745967 188.580365
L 196.889117 188.735536
L 198.032266 189.618569
L 198.603841 189.693895
L 199.175416 190.474026
L 199.746991 190.787791
L 200.318566 198.010866
L 200.890141 198.075642
L 201.461716 198.724234
L 202.033291 199.72902
L 202.604866 199.98112
L 203.17644 200.085557
L 203.748015 202.446328
L 205.46274 202.862942
L 206.034315 203.17293
L 207.177465 203.34328
L 207.74904 204.150072
L 208.320615 204.467567
L 208.89219 204.53398
L 210.606914 205.189567
L 211.178489 205.287832
L 211.750064 205.815366
L 212.321639 206.064671
L 212.893214 207.246001
L 213.464789 208.119341
L 214.036364 208.543182
L 214.607939 209.406324
L 215.179513 209.661277
L 215.751088 209.689548
L 216.322663 210.007508
L 216.894238 210.131014
L 217.465813 212.203706
L 219.180538 212.487634
L 219.752113 213.188977
L 220.323688 213.256604
L 220.895262 214.264541
L 221.466837 214.592073
L 222.038412 215.443083
L 223.181562 215.639391
L 223.753137 216.442794
L 224.324712 216.836401
L 225.467862 217.063672
L 226.611012 217.399314
L 227.754161 217.483979
L 228.897311 218.052504
L 229.468886 218.838151
L 230.040461 219.137935
L 230.612036 219.291458
L 231.183611 220.796912
L 231.755186 221.465409
L 232.898335 222.172982
L 234.041485 222.358443
L 234.61306 222.807623
L 235.75621 224.442849
L 237.470935 226.747234
L 238.614085 227.087165
L 239.185659 227.658457
L 239.757234 227.844343
L 240.328809 228.269967
L 240.900384 228.427494
L 241.471959 228.923702
L 242.615109 229.304627
L 243.186684 229.782607
L 243.758259 229.82307
L 244.901408 230.194228
L 246.044558 230.326681
L 246.616133 230.778125
L 247.187708 231.021359
L 247.759283 231.58989
L 248.330858 231.649387
L 248.902433 232.050383
L 250.045583 232.185619
L 250.617157 235.000728
L 251.188732 235.439103
L 252.903457 236.251887
L 253.475032 238.315841
L 254.046607 238.523515
L 254.618182 239.343092
L 255.189757 239.467542
L 255.761332 239.911171
L 256.332907 240.063682
L 256.904481 240.418305
L 257.476056 240.512996
L 258.047631 240.9143
L 259.190781 241.019302
L 262.048656 241.914013
L 262.62023 242.424858
L 263.191805 242.61097
L 264.334955 243.726212
L 264.90653 243.789278
L 265.478105 244.318203
L 266.04968 244.408472
L 266.621255 244.950907
L 267.764405 245.126244
L 269.479129 245.442794
L 270.050704 245.775511
L 270.622279 245.968698
L 271.193854 246.307075
L 271.765429 246.893976
L 272.337004 247.665438
L 272.908579 248.065698
L 274.051729 248.161844
L 275.194878 251.226813
L 275.766453 251.379663
L 276.338028 252.02042
L 277.481178 252.529329
L 278.052753 252.781574
L 278.624328 253.252962
L 279.195903 253.502935
L 280.910627 253.850815
L 283.196927 254.470566
L 284.340077 254.724611
L 284.911652 255.077032
L 285.483227 255.152218
L 286.054802 255.503206
L 286.626376 256.227018
L 287.197951 256.312415
L 287.769526 257.040809
L 288.341101 257.093489
L 289.484251 258.287922
L 291.198976 258.531314
L 291.770551 259.713976
L 292.342125 259.862466
L 292.9137 260.391922
L 294.628425 260.948053
L 296.914725 261.488607
L 297.4863 262.471537
L 298.629449 262.655348
L 299.772599 264.489868
L 300.344174 264.51311
L 300.915749 265.69067
L 302.058899 266.343001
L 302.630474 266.409555
L 303.202049 267.24278
L 304.345198 267.372165
L 305.488348 268.384254
L 307.774648 271.368262
L 308.346223 271.384335
L 309.489373 271.568691
L 310.060948 271.992533
L 310.632522 272.715936
L 311.204097 273.033913
L 311.775672 273.161634
L 312.347247 273.487071
L 312.918822 273.943176
L 313.490397 274.251219
L 314.633547 274.454976
L 315.205122 274.708079
L 316.348271 274.862414
L 316.919846 275.127164
L 318.062996 275.307834
L 318.634571 276.234316
L 319.206146 276.285209
L 320.349296 276.950089
L 320.920871 277.724101
L 322.06402 278.531712
L 324.35032 279.564601
L 324.921895 279.701062
L 325.49347 280.121599
L 326.065045 280.192796
L 326.63662 280.419489
L 327.77977 281.298585
L 328.351344 281.58129
L 330.637644 281.8965
L 331.209219 283.50193
L 332.923944 283.849216
L 333.495519 284.062936
L 334.067093 284.810424
L 334.638668 284.871894
L 335.210243 285.621124
L 335.781818 286.020384
L 337.496543 286.340314
L 339.782843 287.144539
L 340.925992 287.88674
L 341.497567 287.967337
L 343.212292 288.898754
L 343.783867 289.051255
L 344.355442 289.865897
L 346.070166 290.608268
L 346.641741 291.223356
L 348.356466 291.866235
L 349.499616 292.613674
L 350.071191 294.324282
L 351.214341 294.488912
L 351.785915 294.584111
L 352.35749 294.875104
L 353.50064 295.078751
L 354.072215 295.370317
L 354.64379 295.418508
L 355.215365 295.622876
L 355.78694 295.973828
L 356.358515 296.14827
L 356.93009 296.614668
L 358.073239 296.719409
L 359.216389 298.107293
L 359.787964 299.249126
L 360.931114 299.756445
L 361.502689 299.77197
L 362.074264 300.128393
L 363.217414 300.355131
L 363.788988 301.283034
L 364.360563 301.380464
L 364.932138 301.902156
L 365.503713 301.976592
L 366.075288 302.793942
L 367.790013 303.076388
L 368.933163 303.404862
L 369.504738 303.802209
L 371.219462 304.147639
L 371.791037 305.571773
L 372.934187 305.968405
L 373.505762 306.566011
L 375.220487 306.820111
L 376.363636 307.119636
L 377.506786 307.732529
L 378.078361 307.76961
L 378.649936 307.975828
L 379.793086 308.11442
L 380.364661 308.433716
L 380.936236 308.905305
L 381.50781 308.960821
L 384.365685 309.801486
L 384.93726 310.270937
L 386.08041 310.402132
L 390.081434 310.840231
L 391.224584 311.127126
L 391.796159 311.161709
L 392.367734 311.436436
L 393.510883 311.55327
L 394.082458 311.893238
L 395.797183 312.093011
L 396.368758 312.816417
L 397.511908 312.880154
L 398.083483 313.098167
L 400.369782 313.284618
L 400.941357 313.543946
L 401.512932 313.939683
L 404.370807 314.307892
L 404.942382 314.508289
L 410.658131 314.955694
L 423.232778 315
L 498.109091 315
L 498.109091 315
" style="fill:none;stroke:#95a5a6;stroke-dasharray:1.75,2.8875;stroke-dashoffset:0;stroke-width:1.75;"/>
   </g>
   <g id="patch_3">
    <path d="M 72 315
L 72 43.2
" style="fill:none;stroke:#262626;stroke-linecap:square;stroke-linejoin:miter;stroke-width:1.25;"/>
   </g>
   <g id="patch_4">
    <path d="M 518.4 315
L 518.4 43.2
" style="fill:none;stroke:#262626;stroke-linecap:square;stroke-linejoin:miter;stroke-width:1.25;"/>
   </g>
   <g id="patch_5">
    <path d="M 72 315
L 518.4 315
" style="fill:none;stroke:#262626;stroke-linecap:square;stroke-linejoin:miter;stroke-width:1.25;"/>
   </g>
   <g id="patch_6">
    <path d="M 72 43.2
L 518.4 43.2
" style="fill:none;stroke:#262626;stroke-linecap:square;stroke-linejoin:miter;stroke-width:1.25;"/>
   </g>
   <g id="legend_1">
    <g id="line2d_17">
     <path d="M 81 56.298437
L 101 56.298437
" style="fill:none;stroke:#9b59b6;stroke-linecap:round;stroke-width:1.75;"/>
    </g>
    <g id="line2d_18"/>
    <g id="text_15">
     <!-- Factor 1 (area related) -->
     <defs>
      <path d="M 9.8125 72.90625
L 51.703125 72.90625
L 51.703125 64.59375
L 19.671875 64.59375
L 19.671875 43.109375
L 48.578125 43.109375
L 48.578125 34.8125
L 19.671875 34.8125
L 19.671875 0
L 9.8125 0
z
" id="DejaVuSans-46"/>
     </defs>
     <g style="fill:#262626;" transform="translate(109 59.798437)scale(0.1 -0.1)">
      <use xlink:href="#DejaVuSans-46"/>
      <use x="57.378906" xlink:href="#DejaVuSans-61"/>
      <use x="118.658203" xlink:href="#DejaVuSans-63"/>
      <use x="173.638672" xlink:href="#DejaVuSans-74"/>
      <use x="212.847656" xlink:href="#DejaVuSans-6f"/>
      <use x="274.029297" xlink:href="#DejaVuSans-72"/>
      <use x="315.142578" xlink:href="#DejaVuSans-20"/>
      <use x="346.929688" xlink:href="#DejaVuSans-31"/>
      <use x="410.552734" xlink:href="#DejaVuSans-20"/>
      <use x="442.339844" xlink:href="#DejaVuSans-28"/>
      <use x="481.353516" xlink:href="#DejaVuSans-61"/>
      <use x="542.632812" xlink:href="#DejaVuSans-72"/>
      <use x="583.714844" xlink:href="#DejaVuSans-65"/>
      <use x="645.238281" xlink:href="#DejaVuSans-61"/>
      <use x="706.517578" xlink:href="#DejaVuSans-20"/>
      <use x="738.304688" xlink:href="#DejaVuSans-72"/>
      <use x="779.386719" xlink:href="#DejaVuSans-65"/>
      <use x="840.910156" xlink:href="#DejaVuSans-6c"/>
      <use x="868.693359" xlink:href="#DejaVuSans-61"/>
      <use x="929.972656" xlink:href="#DejaVuSans-74"/>
      <use x="969.181641" xlink:href="#DejaVuSans-65"/>
      <use x="1030.705078" xlink:href="#DejaVuSans-64"/>
      <use x="1094.181641" xlink:href="#DejaVuSans-29"/>
     </g>
    </g>
    <g id="line2d_19">
     <path d="M 81 70.976562
L 101 70.976562
" style="fill:none;stroke:#3498db;stroke-dasharray:11.2,2.8,1.75,2.8;stroke-dashoffset:0;stroke-width:1.75;"/>
    </g>
    <g id="line2d_20"/>
    <g id="text_16">
     <!-- Factor 2 (fleet related) -->
     <g style="fill:#262626;" transform="translate(109 74.476562)scale(0.1 -0.1)">
      <use xlink:href="#DejaVuSans-46"/>
      <use x="57.378906" xlink:href="#DejaVuSans-61"/>
      <use x="118.658203" xlink:href="#DejaVuSans-63"/>
      <use x="173.638672" xlink:href="#DejaVuSans-74"/>
      <use x="212.847656" xlink:href="#DejaVuSans-6f"/>
      <use x="274.029297" xlink:href="#DejaVuSans-72"/>
      <use x="315.142578" xlink:href="#DejaVuSans-20"/>
      <use x="346.929688" xlink:href="#DejaVuSans-32"/>
      <use x="410.552734" xlink:href="#DejaVuSans-20"/>
      <use x="442.339844" xlink:href="#DejaVuSans-28"/>
      <use x="481.353516" xlink:href="#DejaVuSans-66"/>
      <use x="516.558594" xlink:href="#DejaVuSans-6c"/>
      <use x="544.341797" xlink:href="#DejaVuSans-65"/>
      <use x="605.865234" xlink:href="#DejaVuSans-65"/>
      <use x="667.388672" xlink:href="#DejaVuSans-74"/>
      <use x="706.597656" xlink:href="#DejaVuSans-20"/>
      <use x="738.384766" xlink:href="#DejaVuSans-72"/>
      <use x="779.466797" xlink:href="#DejaVuSans-65"/>
      <use x="840.990234" xlink:href="#DejaVuSans-6c"/>
      <use x="868.773438" xlink:href="#DejaVuSans-61"/>
      <use x="930.052734" xlink:href="#DejaVuSans-74"/>
      <use x="969.261719" xlink:href="#DejaVuSans-65"/>
      <use x="1030.785156" xlink:href="#DejaVuSans-64"/>
      <use x="1094.261719" xlink:href="#DejaVuSans-29"/>
     </g>
    </g>
    <g id="line2d_21">
     <path d="M 81 85.654687
L 101 85.654687
" style="fill:none;stroke:#e74c3c;stroke-dasharray:6.475,2.8;stroke-dashoffset:0;stroke-width:1.75;"/>
    </g>
    <g id="line2d_22"/>
    <g id="text_17">
     <!-- Factor 3 (past performance) -->
     <defs>
      <path d="M 40.578125 39.3125
Q 47.65625 37.796875 51.625 33
Q 55.609375 28.21875 55.609375 21.1875
Q 55.609375 10.40625 48.1875 4.484375
Q 40.765625 -1.421875 27.09375 -1.421875
Q 22.515625 -1.421875 17.65625 -0.515625
Q 12.796875 0.390625 7.625 2.203125
L 7.625 11.71875
Q 11.71875 9.328125 16.59375 8.109375
Q 21.484375 6.890625 26.8125 6.890625
Q 36.078125 6.890625 40.9375 10.546875
Q 45.796875 14.203125 45.796875 21.1875
Q 45.796875 27.640625 41.28125 31.265625
Q 36.765625 34.90625 28.71875 34.90625
L 20.21875 34.90625
L 20.21875 43.015625
L 29.109375 43.015625
Q 36.375 43.015625 40.234375 45.921875
Q 44.09375 48.828125 44.09375 54.296875
Q 44.09375 59.90625 40.109375 62.90625
Q 36.140625 65.921875 28.71875 65.921875
Q 24.65625 65.921875 20.015625 65.03125
Q 15.375 64.15625 9.8125 62.3125
L 9.8125 71.09375
Q 15.4375 72.65625 20.34375 73.4375
Q 25.25 74.21875 29.59375 74.21875
Q 40.828125 74.21875 47.359375 69.109375
Q 53.90625 64.015625 53.90625 55.328125
Q 53.90625 49.265625 50.4375 45.09375
Q 46.96875 40.921875 40.578125 39.3125
z
" id="DejaVuSans-33"/>
     </defs>
     <g style="fill:#262626;" transform="translate(109 89.154687)scale(0.1 -0.1)">
      <use xlink:href="#DejaVuSans-46"/>
      <use x="57.378906" xlink:href="#DejaVuSans-61"/>
      <use x="118.658203" xlink:href="#DejaVuSans-63"/>
      <use x="173.638672" xlink:href="#DejaVuSans-74"/>
      <use x="212.847656" xlink:href="#DejaVuSans-6f"/>
      <use x="274.029297" xlink:href="#DejaVuSans-72"/>
      <use x="315.142578" xlink:href="#DejaVuSans-20"/>
      <use x="346.929688" xlink:href="#DejaVuSans-33"/>
      <use x="410.552734" xlink:href="#DejaVuSans-20"/>
      <use x="442.339844" xlink:href="#DejaVuSans-28"/>
      <use x="481.353516" xlink:href="#DejaVuSans-70"/>
      <use x="544.830078" xlink:href="#DejaVuSans-61"/>
      <use x="606.109375" xlink:href="#DejaVuSans-73"/>
      <use x="658.208984" xlink:href="#DejaVuSans-74"/>
      <use x="697.417969" xlink:href="#DejaVuSans-20"/>
      <use x="729.205078" xlink:href="#DejaVuSans-70"/>
      <use x="792.681641" xlink:href="#DejaVuSans-65"/>
      <use x="854.205078" xlink:href="#DejaVuSans-72"/>
      <use x="895.318359" xlink:href="#DejaVuSans-66"/>
      <use x="930.523438" xlink:href="#DejaVuSans-6f"/>
      <use x="991.705078" xlink:href="#DejaVuSans-72"/>
      <use x="1032.802734" xlink:href="#DejaVuSans-6d"/>
      <use x="1130.214844" xlink:href="#DejaVuSans-61"/>
      <use x="1191.494141" xlink:href="#DejaVuSans-6e"/>
      <use x="1254.873047" xlink:href="#DejaVuSans-63"/>
      <use x="1309.853516" xlink:href="#DejaVuSans-65"/>
      <use x="1371.376953" xlink:href="#DejaVuSans-29"/>
     </g>
    </g>
    <g id="line2d_23">
     <path d="M 81 100.332812
L 101 100.332812
" style="fill:none;stroke:#95a5a6;stroke-dasharray:1.75,2.8875;stroke-dashoffset:0;stroke-width:1.75;"/>
    </g>
    <g id="line2d_24"/>
    <g id="text_18">
     <!-- Ideal -->
     <defs>
      <path d="M 9.8125 72.90625
L 19.671875 72.90625
L 19.671875 0
L 9.8125 0
z
" id="DejaVuSans-49"/>
     </defs>
     <g style="fill:#262626;" transform="translate(109 103.832812)scale(0.1 -0.1)">
      <use xlink:href="#DejaVuSans-49"/>
      <use x="29.492188" xlink:href="#DejaVuSans-64"/>
      <use x="92.96875" xlink:href="#DejaVuSans-65"/>
      <use x="154.492188" xlink:href="#DejaVuSans-61"/>
      <use x="215.771484" xlink:href="#DejaVuSans-6c"/>
     </g>
    </g>
   </g>
  </g>
 </g>
 <defs>
  <clipPath id="p66aefb7319">
   <rect height="271.8" width="446.4" x="72" y="43.2"/>
  </clipPath>
 </defs>
</svg>
