<?xml version="1.0" encoding="UTF-8" standalone="no"?>
<svg width="223px" height="65px" viewBox="0 0 223 65" version="1.1" xmlns="http://www.w3.org/2000/svg" xmlns:xlink="http://www.w3.org/1999/xlink">
    <!-- Generator: Sketch 39.1 (31720) - http://www.bohemiancoding.com/sketch -->
    <title>QBE_logo_colour</title>
    <desc>Created with Sketch.</desc>
    <defs></defs>
    <g id="Page-1" stroke="none" stroke-width="1" fill="none" fill-rule="evenodd">
        <g id="QBE_logo_colour" fill="#FFFFFF">
            <path d="M52.55,46.87 C56.2740162,46.8644829 59.2900041,43.8440203 59.29,40.12 C59.2838846,38.8962618 58.9376589,37.698321 58.29,36.66 L44.45,12.57 C43.7675198,8.0110206 41.169375,3.96097137 37.31,1.44 C43.0878711,0.34122519 48.9286489,3.01691115 51.87,8.11 L66.08,32.71 C69.9296933,39.2663008 67.7651849,47.7006622 61.2340752,51.5929397 C54.7029655,55.4852172 46.2546969,53.3756421 42.32,46.87 L52.55,46.87 L52.55,46.87 Z M52.55,35.76 L35.17,35.76 L30.17,44.44 L52.5,44.44 C54.8969158,44.44 56.84,42.4969158 56.84,40.1 C56.84,37.7030842 54.8969158,35.76 52.5,35.76 L52.5,35.76 L52.55,35.76 Z M35.46,12.76 L40.57,21.63 C44.3006833,14.9528774 41.9121224,6.51568368 35.2349999,2.78500025 C28.5578773,-0.945683175 20.1206836,1.44287755 16.39,8.12 L2.18,32.71 C-0.763775325,37.8044492 -0.161964135,44.2037082 3.68,48.66 C3.94991709,44.0591819 6.16429513,39.7904137 9.77,36.92 L23.65,12.83 C24.2585501,11.7780706 25.1304793,10.902695 26.18,10.29 C27.7382503,9.38770552 29.592755,9.14643986 31.33,9.62 C33.0549372,10.0668399 34.5283903,11.1872407 35.42,12.73 L35.42,12.73 L35.46,12.76 Z M25.86,18.35 L34.53,33.35 L44.53,33.35 L33.32,14 C32.1243035,11.9261709 29.4738293,11.2143037 27.4000001,12.4100001 C25.3261709,13.6056966 24.6143036,16.2561708 25.81,18.33 L25.81,18.33 L25.86,18.35 Z M14.41,44.64 L19.53,35.77 C11.8863791,35.8776956 5.77730468,42.1613791 5.88500021,49.805 C5.99269573,57.4486209 12.2763791,63.5576954 19.92,63.45 L48.33,63.45 C54.2098059,63.4481387 59.4485495,59.736527 61.4,54.19 C57.2686229,56.2522014 52.4558813,56.4630315 48.16,54.77 L20.39,54.77 C17.9576763,54.8122291 15.6896984,53.5461982 14.4490537,51.4536441 C13.2084089,49.36109 13.185865,46.7637741 14.39,44.65 L14.39,44.65 L14.41,44.64 Z M24,50.18 L32.68,35.18 L27.68,26.51 L16.54,45.83 C15.6181186,47.8574639 16.3805838,50.2536582 18.30459,51.3755653 C20.2285961,52.4974723 22.6895371,51.9808782 24,50.18 L24,50.18 L24,50.18 Z" id="Shape"></path>
            <path d="M121.22,53.59 C118.243109,50.8182151 114.80472,48.5879997 111.06,47 C107.583103,45.5107534 103.842384,44.7354043 100.06,44.72 C99.0224131,44.7202327 97.9862606,44.7971085 96.96,44.95 C95.9659538,45.1034258 94.9860498,45.3375325 94.03,45.65 C96.085598,48.709664 98.846466,51.2304565 102.08,53 C105.271967,54.7182326 108.845041,55.6054829 112.47,55.58 C113.879553,55.5753094 115.284438,55.4177209 116.66,55.11 C118.220115,54.7544832 119.745981,54.2625922 121.22,53.64 L121.22,53.64 L121.22,53.59 Z M127.98,48.59 C130.053538,46.3355201 131.700273,43.7231076 132.84,40.88 C133.900512,37.9999855 134.419235,34.9486714 134.37,31.88 C134.390162,26.211159 132.243844,20.7487798 128.37,16.61 C126.275235,14.2476405 123.719561,12.3385421 120.86,11 C118.063781,9.79626137 115.043896,9.19978286 112,9.25 C106.250795,9.21542081 100.738821,11.5394861 96.75,15.68 C94.5938474,17.8857583 92.8946565,20.4957156 91.75,23.36 C90.5937273,26.2196662 89.9995537,29.2754162 90,32.36 C90.0041975,33.3646229 90.0844266,34.3674872 90.24,35.36 C90.4016474,36.5028426 90.6320656,37.6348972 90.93,38.75 C92.3411538,38.0230732 93.8501499,37.5043558 95.41,37.21 C97.2759419,36.8607853 99.1718047,36.6966558 101.07,36.72 C105.838255,36.7492449 110.548194,37.7709237 114.9,39.72 C119.72705,41.9277446 124.153939,44.921809 128,48.58 L128,48.58 L127.98,48.59 Z M129.17,59.34 C120.997185,64.5871194 110.870484,65.7995229 101.69,62.63 C98.3958061,61.4897868 95.3188447,59.7991487 92.59,57.63 C88.8257816,54.6048184 85.8108213,50.7514185 83.78,46.37 C81.7102286,41.8647577 80.6618883,36.9577058 80.71,32 C80.6914697,27.8093242 81.5250134,23.658617 83.16,19.8 C84.8508587,15.865153 87.2892682,12.2958377 90.34,9.29 C93.2107755,6.44108118 96.606802,4.17593155 100.34,2.62 C104.075632,1.09692967 108.075931,0.328817852 112.11,0.36 C124.9023,0.364183359 136.425091,8.09476345 141.28,19.93 C142.908899,24.0022891 143.724253,28.3542398 143.68,32.74 C143.718428,36.544495 143.071437,40.3248189 141.77,43.9 C140.440397,47.4137026 138.477967,50.6539156 135.98,53.46 C137.062218,53.9608802 138.19549,54.3431078 139.36,54.6 C140.583104,54.8576619 141.830061,54.9850393 143.08,54.98 L144.21,54.98 L144.21,63.59 L143.42,63.59 C141.047848,63.5845429 138.689355,63.2307689 136.42,62.54 C133.896559,61.7680452 131.470539,60.7077101 129.19,59.38 L129.19,59.38 L129.17,59.34 Z M158.17,27.34 L161.04,27.34 C165.69,27.34 169.04,26.64 171.04,25.22 C173.04,23.8 174.04,21.48 174.04,18.22 C174.04,15.3333333 173.14,13.1966667 171.34,11.81 C169.54,10.4233333 166.76,9.74333333 163,9.77 L158.2,9.77 L158.2,27.38 L158.2,27.38 L158.17,27.34 Z M158.12,55.1 L165.23,55.1 C169.376667,55.1 172.43,54.3233333 174.39,52.77 C176.35,51.2166667 177.33,48.8166667 177.33,45.57 C177.33,42.0366667 176.306667,39.37 174.26,37.57 C172.213333,35.77 169.213333,34.8566667 165.26,34.83 L158.15,34.83 L158.15,55.1 L158.15,55.1 L158.12,55.1 Z M162.65,1.29 C169.316667,1.29 174.363333,2.74666667 177.79,5.66 C181.216667,8.57333333 182.953333,12.8033333 183,18.35 C183.05088,20.7253148 182.471192,23.0716677 181.32,25.15 C180.106368,27.1840358 178.382912,28.8661284 176.32,30.03 C179.276301,30.8675149 181.836576,32.7327566 183.54,35.29 C185.358986,38.0328733 186.287859,41.269963 186.2,44.56 C186.224142,47.3686729 185.672815,50.1525336 184.58,52.74 C183.585927,55.1652584 182.054075,57.3331031 180.1,59.08 C178.238305,60.6627078 176.059546,61.8288041 173.71,62.5 C170.415487,63.2758015 167.032769,63.6120557 163.65,63.5 L149.29,63.5 L149.29,1.3 L162.65,1.3 L162.65,1.29 Z M222.42,63.52 L190.1,63.52 L190.1,1.3 L222.42,1.3 L222.42,9.61 L199.12,9.61 L199.12,28.2 L222.42,28.2 L222.42,36.29 L199.12,36.29 L199.12,54.94 L222.42,54.94 L222.42,63.53 L222.42,63.53 L222.42,63.52 Z" id="Shape"></path>
        </g>
    </g>
</svg>