<?xml version="1.0" encoding="UTF-8" standalone="no"?>
<!-- Created with Inkscape (http://www.inkscape.org/) -->

<svg
   xmlns:dc="http://purl.org/dc/elements/1.1/"
   xmlns:cc="http://creativecommons.org/ns#"
   xmlns:rdf="http://www.w3.org/1999/02/22-rdf-syntax-ns#"
   xmlns:svg="http://www.w3.org/2000/svg"
   xmlns="http://www.w3.org/2000/svg"
   xmlns:sodipodi="http://sodipodi.sourceforge.net/DTD/sodipodi-0.dtd"
   xmlns:inkscape="http://www.inkscape.org/namespaces/inkscape"
   width="400"
   height="100"
   viewBox="0 0 400 100"
   id="svg4593"
   version="1.1"
   inkscape:version="0.91 r13725"
   sodipodi:docname="qbe_circle.svg">
  <defs
     id="defs4595" />
  <sodipodi:namedview
     id="base"
     pagecolor="#ffffff"
     bordercolor="#666666"
     borderopacity="1.0"
     inkscape:pageopacity="0.0"
     inkscape:pageshadow="2"
     inkscape:zoom="1.979899"
     inkscape:cx="153.40117"
     inkscape:cy="79.917131"
     inkscape:document-units="px"
     inkscape:current-layer="layer1"
     showgrid="false"
     units="px"
     inkscape:window-width="1829"
     inkscape:window-height="966"
     inkscape:window-x="-8"
     inkscape:window-y="-8"
     inkscape:window-maximized="1" />
  <metadata
     id="metadata4598">
    <rdf:RDF>
      <cc:Work
         rdf:about="">
        <dc:format>image/svg+xml</dc:format>
        <dc:type
           rdf:resource="http://purl.org/dc/dcmitype/StillImage" />
        <dc:title></dc:title>
      </cc:Work>
    </rdf:RDF>
  </metadata>
  <g
     inkscape:label="Layer 1"
     inkscape:groupmode="layer"
     id="layer1"
     transform="translate(0,-952.36216)">
    <g
       id="g5269"
       transform="matrix(1.7415666,0,0,1.7415666,-235.78142,612.73817)"
       style="fill:#ffffff">
      <path
         style="fill-opacity:1;fill:#ffffff"
         d="m 142.0027,238.3829 c -1.02958,-0.38148 -2.35137,-1.5894 -2.93733,-2.68426 C 138.47942,234.60377 138,232.85683 138,231.81655 c 0,-1.04029 1.0415,-2.86987 2.31445,-4.06575 1.27295,-1.19587 2.6345,-2.17431 3.02568,-2.17431 0.39118,0 -0.008,1.39092 -0.88715,3.09093 -1.4719,2.84634 -1.46717,3.23591 0.0599,4.92325 1.22396,1.35246 2.53848,1.68947 5.01944,1.28687 1.84867,-0.3 6.36493,-0.22378 10.03614,0.16937 5.97221,0.63957 6.5149,0.87484 5.15496,2.23478 -1.10078,1.10078 -3.90942,1.55785 -10.18433,1.65738 -4.76541,0.0756 -9.50676,-0.1747 -10.53634,-0.55617 z m 40.05137,-0.98553 c -1.89527,-1.28022 -4.34431,-3.8659 -5.44231,-5.74594 -1.23338,-2.11184 -1.99638,-5.22929 -1.99638,-8.15681 0,-3.43041 0.71861,-5.82444 2.60307,-8.67205 1.43169,-2.16343 4.17374,-4.67883 6.09344,-5.58979 1.9197,-0.91096 4.92935,-1.65629 6.68811,-1.65629 1.75876,0 4.76841,0.74533 6.68811,1.65629 1.9197,0.91096 4.54495,3.27346 5.83389,5.25 1.28893,1.97654 2.64021,5.23514 3.00284,7.24133 0.47459,2.62561 0.0889,4.93713 -1.37653,8.25 -2.00225,4.52642 -2.00377,4.60238 -0.0921,4.60238 1.42823,0 1.94377,0.69182 1.94377,2.60841 0,2.3672 -0.2543,2.53657 -2.75,1.83153 -1.5125,-0.42728 -3.65,-0.69919 -4.75,-0.60425 -1.1,0.0949 -4.475,0.42919 -7.5,0.74276 -4.67561,0.48466 -6.01651,0.22122 -8.94593,-1.75757 z m 10.43931,-2.73963 c 1.84155,-0.7189 1.76538,-0.89605 -1,-2.32571 -1.64636,-0.85114 -4.21013,-1.70684 -5.69726,-1.90154 -1.48714,-0.1947 -2.83714,0.096 -3,0.646 -0.16287,0.55 1.27888,1.7868 3.20388,2.74845 1.925,0.96164 3.725,1.71751 4,1.67971 0.275,-0.0378 1.39702,-0.41891 2.49338,-0.84691 z m 8.09458,-8.6984 c 0.36945,-1.96936 0.11157,-4.69404 -0.6089,-6.43341 -0.68738,-1.65948 -2.37455,-3.90197 -3.74928,-4.98333 -1.44613,-1.13753 -4.03463,-1.96611 -6.14213,-1.96611 -2.00345,0 -4.6903,0.73381 -5.97078,1.63069 -1.28047,0.89688 -2.9556,3.13243 -3.7225,4.96788 -0.76691,1.83546 -1.39437,4.22335 -1.39437,5.30644 0,1.69307 0.49215,1.88938 3.50922,1.39978 2.16973,-0.3521 5.1933,0.0737 7.92123,1.1155 2.4266,0.92673 4.95716,2.34183 5.62346,3.14467 0.90688,1.09272 1.54855,1.17993 2.55231,0.34689 0.73747,-0.61205 1.62925,-2.6501 1.98174,-4.529 z M 208,224.07649 l 0,-15.5 6.04545,0 c 5.0853,0 6.4353,0.38984 8.5,2.45454 1.51734,1.51735 2.45455,3.60233 2.45455,5.46058 0,1.65331 -0.63532,3.58627 -1.41183,4.29545 -1.20646,1.10187 -1.10948,1.61553 0.66667,3.53129 1.14855,1.23882 2.07849,3.58967 2.07849,5.25432 0,1.65686 -0.57444,4.08581 -1.27653,5.39768 -0.70209,1.31188 -2.37326,2.88493 -3.71372,3.49568 -1.34045,0.61075 -4.89101,1.11046 -7.89013,1.11046 l -5.45295,0 0,-15.5 z m 12.8,9.3 c 0.66,-0.66 1.2,-2.145 1.2,-3.3 0,-1.155 -0.54,-2.64 -1.2,-3.3 -0.66,-0.66 -2.685,-1.2 -4.5,-1.2 -3.24444,0 -3.3,0.0758 -3.3,4.5 0,4.42424 0.0556,4.5 3.3,4.5 1.815,0 3.84,-0.54 4.5,-1.2 z m -0.97324,-15.60504 c 0.17972,-1.26777 -0.21288,-2.95527 -0.87244,-3.75 -0.65957,-0.79473 -2.26911,-1.44496 -3.57677,-1.44496 -2.11332,0 -2.37755,0.45158 -2.37755,4.06336 0,3.98191 0.0651,4.05708 3.25,3.75 2.51673,-0.24266 3.32372,-0.83343 3.57676,-2.6184 z m 8.17324,6.30504 0,-15.5 8,0 c 7.33333,0 8,0.16667 8,2 0,1.75758 -0.66667,2 -5.5,2 -5.5,0 -5.5,0 -5.5,4.5 0,4.5 0,4.5 5.5,4.5 4.83333,0 5.5,0.24242 5.5,2 0,1.75758 -0.66667,2 -5.5,2 -5.5,0 -5.5,0 -5.5,4.5 0,4.5 0,4.5 5.5,4.5 5.2,0 5.5,0.13636 5.5,2.5 0,2.45833 -0.13333,2.5 -8,2.5 l -8,0 0,-15.5 z m 42.25616,14.50038 c -1.78411,-0.40989 -3.95128,-1.33239 -4.81593,-2.04999 -0.86466,-0.7176 -2.25483,-2.62497 -3.08928,-4.23861 -0.83444,-1.61364 -1.53815,-5.26837 -1.56378,-8.12164 -0.0268,-2.98719 0.66527,-6.56439 1.63165,-8.43316 0.92305,-1.78499 3.11893,-4.12384 4.87973,-5.19746 1.7608,-1.07363 4.86778,-1.95373 6.9044,-1.95578 2.03662,-0.002 4.84912,0.51849 6.25,1.15677 1.46582,0.66788 2.54705,1.9909 2.54705,3.11664 0,1.57824 -0.43465,1.81506 -2.25,1.22596 -1.2375,-0.40158 -3.84068,-0.9421 -5.78484,-1.20115 -2.47778,-0.33015 -4.21202,0.0776 -5.79935,1.36352 -1.24548,1.00899 -2.66407,3.60695 -3.15242,5.77325 -0.48834,2.1663 -0.6363,5.3163 -0.3288,7 0.30751,1.6837 1.16402,4.03467 1.90337,5.22437 0.73935,1.18971 2.72259,2.46583 4.40719,2.83583 2.17339,0.47736 4.21617,0.0716 7.03389,-1.39705 C 283,231.60859 283,231.60859 283,233.92356 c 0,1.41073 -0.87886,2.74119 -2.25,3.40615 -1.2375,0.60015 -3.375,1.29396 -4.75,1.5418 -1.375,0.24784 -3.95973,0.11525 -5.74384,-0.29464 z m 45.16251,-0.10019 c -1.69474,-0.47848 -3.88546,-1.7585 -4.86827,-2.8445 -0.98281,-1.08599 -2.00883,-3.94322 -2.28004,-6.3494 -0.33374,-2.96093 0.0491,-5.42346 1.18468,-7.61935 1.00634,-1.94604 3.10448,-3.8406 5.24269,-4.734 2.54737,-1.06436 4.59776,-1.24637 7.18358,-0.63767 2.64345,0.62227 3.70481,1.44918 3.93824,3.06829 0.20925,1.4514 -0.20183,2.21644 -1.19098,2.21644 -0.8308,0 -1.78865,-0.45 -2.12857,-1 -0.33992,-0.55 -1.61635,-1 -2.83651,-1 -1.22016,0 -3.21861,0.70052 -4.44098,1.5567 C 313.452,222.3733 313,223.66372 313,227.47821 c 0,3.36884 0.54212,5.27892 1.82874,6.44329 1.00581,0.91025 3.00425,1.65499 4.44098,1.65499 1.43674,0 2.89036,-0.45 3.23028,-1 0.33992,-0.55 1.26648,-1 2.05902,-1 0.79254,0 1.44098,0.6199 1.44098,1.37755 0,0.75766 -0.5625,1.82061 -1.25,2.36212 -0.6875,0.5415 -2.375,1.21989 -3.75,1.50752 -1.375,0.28763 -3.8866,0.13148 -5.58133,-0.347 z M 343.5,238.73671 c -1.1,-0.36312 -2.72181,-1.11022 -3.60402,-1.66022 -0.8822,-0.55 -2.1197,-1.98292 -2.75,-3.18426 C 336.51569,232.69089 336,229.68792 336,227.21896 c 0,-3.34214 0.64562,-5.2563 2.52703,-7.49223 1.38987,-1.65176 3.78669,-3.27987 5.32628,-3.61802 1.53958,-0.33815 4.01049,-0.1543 5.4909,0.40855 2.21627,0.84263 3.04171,0.67331 4.67372,-0.9587 1.09014,-1.09014 1.98207,-2.25522 1.98207,-2.58906 0,-0.33384 -0.675,-0.34797 -1.5,-0.0314 -0.91371,0.35062 -1.5,0.002 -1.5,-0.89301 0,-1.01175 1.0888,-1.46861 3.5,-1.46861 3.41667,0 3.5,0.0952 3.5,4 0,2.2 -0.45,4 -1,4 -0.55,0 -1,-0.675 -1,-1.5 0,-0.825 -0.38026,-1.5 -0.84501,-1.5 -0.46476,0 -1.56699,0.79778 -2.44941,1.77284 -1.09767,1.21291 -1.30938,2.23938 -0.6703,3.25 0.51375,0.81244 0.94099,2.93966 0.94941,4.72716 0.0153,3.25 0.0153,3.25 -7.55208,3.25 -7.37903,0 -7.55075,0.056 -6.89902,2.25 0.3676,1.2375 1.41042,2.84195 2.31739,3.56543 0.92888,0.74098 2.95914,1.10402 4.64902,0.83131 1.65,-0.26627 3.85157,-0.63321 4.89237,-0.81543 1.04081,-0.18222 2.08065,0.20072 2.31077,0.85099 0.23011,0.65026 -0.39645,1.60952 -1.39237,2.13168 -0.99593,0.52217 -3.16077,1.18724 -4.81077,1.47793 -1.65,0.2907 -3.9,0.23144 -5,-0.13169 z m 7.5,-13.59512 c 0,-0.2392 -0.43886,-1.5892 -0.97525,-3 -0.73768,-1.94024 -1.68225,-2.5651 -3.87755,-2.5651 -1.59627,0 -3.33756,0.5625 -3.86952,1.25 -0.53197,0.6875 -1.24794,2.0375 -1.59106,3 -0.5452,1.52938 0.0656,1.75 4.84476,1.75 3.00774,0 5.46862,-0.19571 5.46862,-0.4349 z m -64,2.36158 c 0,-10.00705 0.16851,-11.04105 1.75,-10.73815 1.51545,0.29026 1.78804,1.77441 2.03383,11.07332 0.27024,10.22406 0.18646,10.73815 -1.75,10.73815 -1.92266,0 -2.03383,-0.60527 -2.03383,-11.07332 z m 9,0.0733 c 0,-10.17391 0.14394,-11 1.91667,-11 1.05416,0 2.07567,0.47701 2.27,1.06002 0.22941,0.68821 1.37343,0.53079 3.26164,-0.44882 1.59956,-0.82987 3.30297,-1.26492 3.78536,-0.96678 0.48239,0.29813 0.73965,1.22957 0.5717,2.06987 -0.16795,0.8403 -1.88037,2.03584 -3.80537,2.65676 -3.5,1.12895 -3.5,1.12895 -3.79044,9.37895 -0.2615,7.42776 -0.48574,8.25 -2.25,8.25 -1.82732,0 -1.95956,-0.74234 -1.95956,-11 z m 33,-4 c 0,-14.33333 0.0889,-15 2,-15 1.91111,0 2,0.66667 2,15 0,14.33333 -0.0889,15 -2,15 -1.91111,0 -2,-0.66667 -2,-15 z m -185.53425,8.77134 c -0.29442,-0.76724 0.6785,-3.56672 2.16205,-6.22107 2.48051,-4.43813 2.80436,-4.67975 4.0285,-3.00562 1.14349,1.5638 0.99567,2.38855 -1.04845,5.84987 -1.30879,2.21617 -2.88073,4.19644 -3.49321,4.4006 -0.61247,0.20416 -1.35448,-0.25654 -1.64889,-1.02378 z M 157.5,232.57649 c -0.34531,-0.55872 0.42295,-1 1.74098,-1 1.29746,0 2.89902,-0.54 3.55902,-1.2 0.66,-0.66 1.2,-1.81442 1.2,-2.56538 0,-0.75096 -2.21808,-5.38596 -4.92906,-10.3 -2.71098,-4.91404 -4.48139,-8.93462 -3.93425,-8.93462 0.54713,0 1.83288,0.44853 2.8572,0.99673 1.02432,0.5482 3.69474,4.3161 5.93426,8.37311 2.23952,4.05701 4.07185,8.48873 4.07185,9.84828 0,1.35955 -0.82293,3.21665 -1.82874,4.12689 -1.00581,0.91025 -3.22925,1.65499 -4.94098,1.65499 -1.71174,0 -3.39036,-0.45 -3.73028,-1 z m -22.14818,-3.52555 c -0.47801,-1.24568 0.56246,-4.2707 3.15821,-9.18205 2.1291,-4.02839 4.70286,-8.21716 5.71948,-9.30838 1.01662,-1.09121 3.11113,-1.98402 4.65446,-1.98402 1.54333,0 3.51018,0.7875 4.37079,1.75 0.8606,0.9625 1.65866,2.425 1.77347,3.25 0.1148,0.825 0.1374,2.175 0.0502,3 -0.0967,0.91524 -0.74013,0.42793 -1.65042,-1.25 -1.00076,-1.84468 -2.29772,-2.75 -3.93964,-2.75 -1.81457,0 -2.95304,0.97004 -4.40112,3.75 -1.07436,2.0625 -3.54395,6.18723 -5.48798,9.16608 -2.94878,4.51842 -3.65275,5.10818 -4.24747,3.55837 z m 15.6486,-1.47524 c 0.95706,-1.78827 1.8925,-2.05495 6.31158,-1.79932 3.81151,0.22048 5.188,0.69809 5.188,1.80011 0,1.14328 -1.50098,1.57118 -6.31158,1.79932 -6.13859,0.29111 -6.28078,0.24177 -5.188,-1.80011 z m -1.67379,-7.82188 c -1.37891,-2.41555 -1.8637,-4.30833 -1.32622,-5.178 0.63913,-1.03412 1.18114,-1.09354 2.20723,-0.24196 0.74804,0.62081 2.38613,2.95438 3.6402,5.18569 2.28013,4.05694 2.28013,4.05694 -0.0339,4.04924 -1.62877,-0.005 -2.95755,-1.1351 -4.48735,-3.81497 z M 288,214.07649 c 0,-0.825 -0.7875,-1.51431 -1.75,-1.5318 -1.56274,-0.0284 -1.53652,-0.19313 0.24513,-1.53949 1.71147,-1.29333 1.78256,-1.64206 0.5,-2.45288 -0.82232,-0.51986 -1.7604,-0.95209 -2.08461,-0.96052 -0.32422,-0.008 -1.11874,-1.17689 -1.76561,-2.59661 -0.91496,-2.00812 -0.89457,-3.16871 0.0918,-5.22673 0.69736,-1.45499 2.46951,-3.06802 3.93811,-3.58449 2.01964,-0.71027 3.29813,-0.5276 5.24767,0.74979 1.93454,1.26755 2.5775,2.53807 2.5775,5.0932 0,2.51107 -0.71149,3.96403 -2.71149,5.53723 -2.26111,1.77859 -2.46873,2.30159 -1.25,3.14871 1.10831,0.77036 1.15941,1.13842 0.21149,1.52305 -0.68749,0.27897 -1.24999,1.14471 -1.24999,1.92387 0,0.77917 -0.45,1.41667 -1,1.41667 -0.55,0 -1,-0.675 -1,-1.5 z m 3.8,-8.7 c 0.66,-0.66 1.2,-2.21917 1.2,-3.46482 0,-1.24564 -0.9,-2.74648 -2,-3.33518 -1.36123,-0.72851 -2.6012,-0.74862 -3.88235,-0.063 -1.03529,0.55407 -2.17114,1.75998 -2.52411,2.6798 -0.36725,0.95704 0.0765,2.46603 1.03734,3.52778 0.9235,1.02046 2.41935,1.85538 3.32411,1.85538 0.90475,0 2.18501,-0.54 2.84501,-1.2 z"
         id="path5275"
         inkscape:connector-curvature="0" />
      <path
         style="fill-opacity:1;fill:#ffffff"
         d="m 183.21818,237.97008 c -1.805,-0.92082 -4.23908,-3.01857 -5.40907,-4.66167 -1.18068,-1.65811 -2.33507,-5.1503 -2.5943,-7.8481 -0.26234,-2.73029 0.0805,-6.18262 0.7823,-7.87684 0.68714,-1.6589 2.7325,-4.31841 4.54524,-5.91002 1.8701,-1.64197 5.06214,-3.19224 7.37878,-3.58364 3.14071,-0.53061 5.06315,-0.20456 8.33087,1.41298 2.3364,1.15652 5.12594,3.31328 6.19899,4.7928 1.21348,1.67316 2.10925,4.87809 2.36967,8.47834 0.30457,4.21063 -0.0228,6.46208 -1.20098,8.26026 -0.89083,1.35956 -1.61968,2.66028 -1.61968,2.89048 0,0.23021 0.93914,0.66415 2.08697,0.96431 1.35843,0.35524 1.96074,1.18142 1.72535,2.36663 -0.26347,1.32668 -1.03345,1.70455 -2.83697,1.39225 -1.36144,-0.23575 -3.37535,-0.37726 -4.47535,-0.31447 -1.1,0.0628 -4.25,0.38342 -7,0.71253 -3.6485,0.43663 -5.88708,0.14583 -8.28182,-1.07584 z m 9.66371,-3.29943 c 1.08438,-0.68679 0.80731,-1.2517 -1.28694,-2.6239 -1.46786,-0.96178 -4.20953,-1.79854 -6.09262,-1.85947 -1.88308,-0.0609 -3.55396,0.28579 -3.71306,0.77051 -0.1591,0.48471 1.27871,1.72221 3.19513,2.75 1.91642,1.02778 4.16642,1.86181 5,1.85339 0.83358,-0.008 2.13745,-0.40916 2.89749,-0.89053 z m 6.9576,-5.64121 c 0.63828,-1.40088 1.16051,-4.14588 1.16051,-6.1 0,-2.70728 -0.80927,-4.36222 -3.4,-6.95295 -2.75671,-2.75671 -4.17275,-3.4 -7.48422,-3.4 -3.04279,0 -4.86897,0.70122 -7.16175,2.75 -2.17462,1.94319 -3.23985,3.96055 -3.63084,6.87618 -0.55331,4.12618 -0.55331,4.12618 5.88244,4.53597 4.58692,0.29208 7.27727,1.03673 9.36506,2.59215 1.61112,1.20029 3.19458,2.1966 3.51879,2.21402 0.32422,0.0174 1.11172,-1.11449 1.75,-2.51537 z m 8.91051,9.98563 C 208.3375,238.59052 208,231.56816 208,223.40982 l 0,-14.83333 5.77749,0 c 3.51921,0 6.61527,0.5868 7.92082,1.50124 1.17883,0.82569 2.44373,2.86897 2.81089,4.54064 0.45769,2.08385 0.14122,3.8427 -1.00661,5.59452 -1.59666,2.43681 -1.5776,2.62276 0.41161,4.01606 1.50617,1.05496 2.0858,2.54126 2.0858,5.34848 0,2.60448 -0.7426,4.73451 -2.25,6.45379 -1.78255,2.0331 -3.49653,2.68982 -8.25,3.16101 -3.3,0.32712 -6.3375,0.2474 -6.75,-0.17716 z m 11.02749,-4.99528 C 221.03317,233.14028 222,231.41023 222,230.04284 c 0,-1.46283 -0.96609,-3.05325 -2.44218,-4.02042 -1.34321,-0.8801 -3.48071,-1.45298 -4.75,-1.27306 -2.00827,0.28467 -2.31624,0.91122 -2.37269,4.82713 -0.0357,2.475 0.10339,4.8375 0.30902,5.25 0.20564,0.4125 1.3722,0.75 2.59236,0.75 1.22016,0 3.2186,-0.70052 4.44098,-1.5567 z m -0.67424,-14.32583 c 2.05187,-1.6615 2.1848,-2.18984 1.13223,-4.5 -0.90335,-1.98262 -1.92543,-2.61747 -4.21404,-2.61747 -2.9143,0 -3.02144,0.15957 -3.02144,4.5 0,3.74537 0.31681,4.5 1.88922,4.5 1.03907,0 2.93538,-0.84714 4.21403,-1.88253 z m 9.86949,19.63253 c -0.015,-0.1375 -0.12749,-7.11255 -0.25,-15.50011 l -0.22274,-15.2501 7.75,1e-4 c 7.0833,1e-4 7.75,0.17216 7.75,2.00011 0,1.75758 -0.66667,2 -5.5,2 -5.5,0 -5.5,0 -5.5,4.5 0,4.5 0,4.5 5.5,4.5 4.83333,0 5.5,0.24242 5.5,2 0,1.75758 -0.66667,2 -5.5,2 -5.5,0 -5.5,0 -5.5,5.09255 0,5.09255 0,5.09255 5.50136,4.75 5.14027,-0.32007 5.50128,-0.19487 5.5,1.90745 -0.001,2.13321 -0.39065,2.25 -7.50136,2.25 -4.125,0 -7.51227,-0.1125 -7.52726,-0.25 z m 37.78292,-2.50479 c -1.50938,-0.93586 -3.47161,-3.23419 -4.3605,-5.10738 -1.12412,-2.36891 -1.48668,-5.19581 -1.19088,-9.28526 0.27507,-3.80282 1.1408,-6.846 2.45109,-8.61601 1.1142,-1.50511 3.86483,-3.38642 6.11253,-4.18068 2.99756,-1.05925 5.07941,-1.1925 7.81145,-0.5 2.0486,0.51926 4.20289,1.71004 4.78732,2.64616 0.58442,0.93612 0.74033,2.02429 0.34645,2.41817 -0.39387,0.39387 -1.83851,0.11546 -3.2103,-0.6187 -1.3718,-0.73416 -3.87339,-1.33484 -5.5591,-1.33484 -1.96054,0 -3.99373,0.9288 -5.64256,2.57763 -1.86717,1.86716 -2.69261,3.91141 -2.99477,7.41666 -0.29107,3.37646 0.12852,5.89366 1.38823,8.32832 1.042,2.01389 2.98337,3.8979 4.59131,4.45568 1.8648,0.64687 3.68329,0.60843 5.5,-0.11627 1.49274,-0.59547 3.50157,-1.41117 4.46407,-1.81267 1.22804,-0.51227 1.75,-0.2676 1.75,0.82029 0,0.85265 -1.00013,2.2508 -2.22251,3.10699 -1.23713,0.86651 -4.22983,1.5449 -6.75,1.53009 -2.49012,-0.0146 -5.76244,-0.79232 -7.27183,-1.72818 z M 287,228.07649 c 0,-9.83333 0.12698,-10.5 2,-10.5 1.87302,0 2,0.66667 2,10.5 0,9.83333 -0.12698,10.5 -2,10.5 -1.87302,0 -2,-0.66667 -2,-10.5 z m 9,-0.5 c 0,-10.17391 0.14394,-11 1.91667,-11 1.05416,0 2.12291,0.5625 2.375,1.25 0.36666,1 0.72333,1 1.78333,0 0.72875,-0.6875 2.36,-1.25 3.625,-1.25 1.37778,0 2.3,0.60145 2.3,1.5 0,0.825 -0.79987,1.5 -1.77749,1.5 -0.97763,0 -2.77763,0.70052 -4,1.5567 -1.9795,1.38649 -2.22251,2.42524 -2.22251,9.5 0,7.27663 -0.16786,7.9433 -2,7.9433 -1.87879,0 -2,-0.66667 -2,-11 z m 16.29903,9.4969 c -1.18028,-0.82671 -2.67499,-3.10604 -3.32156,-5.06518 -0.64658,-1.95914 -0.89509,-5.05731 -0.55225,-6.88482 0.34285,-1.82751 1.79879,-4.49818 3.23543,-5.93482 2.0948,-2.0948 3.56827,-2.61208 7.44053,-2.61208 3.75463,0 5.05927,0.43129 5.86634,1.93931 0.57084,1.06662 0.67769,2.16193 0.23744,2.43402 -0.44025,0.27209 -1.45397,0.0813 -2.25271,-0.424 -0.79874,-0.50529 -2.62001,-0.9256 -4.04726,-0.93402 -1.42726,-0.008 -3.44203,0.92063 -4.47728,2.06456 -1.15518,1.27647 -1.88226,3.56328 -1.88226,5.92013 0,2.4088 0.72948,4.64631 1.957,6.00271 1.42209,1.57139 2.78254,2.04487 4.97728,1.73226 1.66115,-0.23661 3.80777,-0.77192 4.77027,-1.18958 1.2465,-0.54089 1.75,-0.30714 1.75,0.81244 0,0.86449 -0.87042,2.03763 -1.93426,2.60699 -1.06384,0.56935 -3.66371,1.03518 -5.77749,1.03518 -2.11378,0 -4.80893,-0.6764 -5.98922,-1.5031 z M 329,223.50317 c 0,-13.81684 0.14588,-15.04533 1.75,-14.73745 1.55699,0.29883 1.78052,1.96126 2.02673,15.07332 0.26714,14.22661 0.20648,14.73745 -1.75,14.73745 -1.946,0 -2.02673,-0.60039 -2.02673,-15.07332 z m 9.80284,12.03 c -2.82719,-2.82718 -3.01018,-3.44287 -2.57675,-8.66943 0.37747,-4.55186 0.9839,-6.07113 3.176,-7.95669 1.67581,-1.44148 3.99218,-2.33056 6.07189,-2.33056 1.84934,0 4.09089,0.27953 4.98122,0.62118 0.89032,0.34165 2.27713,1.8943 3.08179,3.45034 0.80465,1.55604 1.46301,3.97651 1.46301,5.37882 0,2.50624 -0.12771,2.54966 -7.5,2.54966 -5.41942,0 -7.5,0.35439 -7.5,1.27749 0,0.70262 0.70052,2.27762 1.5567,3.5 1.15434,1.64804 2.5607,2.22251 5.44099,2.22251 2.13635,0 4.16239,-0.45 4.50231,-1 0.33992,-0.55 1.04148,-1 1.55902,-1 0.51754,0 0.94098,0.84752 0.94098,1.88337 0,1.10779 -0.92655,2.13167 -2.25,2.48634 -1.2375,0.33164 -3.97212,0.60912 -6.07692,0.61663 -2.94161,0.0105 -4.53096,-0.69038 -6.87024,-3.02966 z M 351,224.07649 c 0,-0.825 -0.9,-2.4 -2,-3.5 -1.1,-1.1 -2.47045,-2 -3.04545,-2 -0.575,0 -2.15,1.10454 -3.5,2.45454 -1.35,1.35 -2.45455,2.92501 -2.45455,3.5 0,0.60056 2.34058,1.04546 5.5,1.04546 4.22222,0 5.5,-0.34849 5.5,-1.5 z m -188,12 c 0,-0.275 0.225,-0.5 0.5,-0.5 0.275,0 0.5,0.225 0.5,0.5 0,0.275 -0.225,0.5 -0.5,0.5 -0.275,0 -0.5,-0.225 -0.5,-0.5 z m -6,-4 c 0,-0.275 0.225,-0.5 0.5,-0.5 0.275,0 0.5,0.225 0.5,0.5 0,0.275 -0.225,0.5 -0.5,0.5 -0.275,0 -0.5,-0.225 -0.5,-0.5 z m -15,-5 c 0,-0.275 0.225,-0.5 0.5,-0.5 0.275,0 0.5,0.225 0.5,0.5 0,0.275 -0.225,0.5 -0.5,0.5 -0.275,0 -0.5,-0.225 -0.5,-0.5 z m 12,-11 c 0,-0.275 0.225,-0.5 0.5,-0.5 0.275,0 0.5,0.225 0.5,0.5 0,0.275 -0.225,0.5 -0.5,0.5 -0.275,0 -0.5,-0.225 -0.5,-0.5 z m 132,-4 c 0,-0.275 0.225,-0.5 0.5,-0.5 0.275,0 0.5,0.225 0.5,0.5 0,0.275 -0.225,0.5 -0.5,0.5 -0.275,0 -0.5,-0.225 -0.5,-0.5 z m 5,0 c 0,-0.275 0.225,-0.5 0.5,-0.5 0.275,0 0.5,0.225 0.5,0.5 0,0.275 -0.225,0.5 -0.5,0.5 -0.275,0 -0.5,-0.225 -0.5,-0.5 z m 63,0 c 0,-0.275 0.225,-0.5 0.5,-0.5 0.275,0 0.5,0.225 0.5,0.5 0,0.275 -0.225,0.5 -0.5,0.5 -0.275,0 -0.5,-0.225 -0.5,-0.5 z m -71,-10 c 0,-0.275 0.225,-0.5 0.5,-0.5 0.275,0 0.5,0.225 0.5,0.5 0,0.275 -0.225,0.5 -0.5,0.5 -0.275,0 -0.5,-0.225 -0.5,-0.5 z m 3,-5 c 0,-0.275 0.225,-0.5 0.5,-0.5 0.275,0 0.5,0.225 0.5,0.5 0,0.275 -0.225,0.5 -0.5,0.5 -0.275,0 -0.5,-0.225 -0.5,-0.5 z"
         id="path5273"
         inkscape:connector-curvature="0" />
      <path
         style="fill-opacity:1;fill:#ffffff"
         d="m 185.4687,238.51438 c -1.66721,-0.48495 -4.0793,-1.8581 -5.3602,-3.05143 -1.2809,-1.19334 -2.95431,-3.66652 -3.7187,-5.49596 -0.76439,-1.82945 -1.3891,-4.80322 -1.38825,-6.60838 8.6e-4,-1.80517 0.78836,-4.84815 1.75,-6.76219 0.96165,-1.91403 3.2775,-4.50153 5.14633,-5.75 2.33022,-1.55669 4.87602,-2.26993 8.10212,-2.26993 3.2261,0 5.77189,0.71324 8.10212,2.26993 1.86883,1.24847 4.18468,3.83597 5.14633,5.75 0.96164,1.91404 1.74914,5.18992 1.75,7.27973 8.5e-4,2.08981 -0.69184,5.14053 -1.53932,6.77937 -0.84747,1.63884 -1.27092,3.41649 -0.94098,3.95034 0.32994,0.53384 1.17333,0.97063 1.8742,0.97063 0.70087,0 1.27432,0.675 1.27432,1.5 0,0.85823 -0.89135,1.49345 -2.08334,1.48469 -1.14583,-0.008 -2.70663,-0.41006 -3.46844,-0.89252 -0.85093,-0.53891 -2.67043,-0.34017 -4.71788,0.51531 -1.83303,0.76589 -4.13473,1.35194 -5.11489,1.30233 -0.98017,-0.0496 -3.14621,-0.48697 -4.81342,-0.97192 z M 194,234.2617 c 0,-0.72313 -1.59027,-2.07313 -3.53393,-3 -1.94366,-0.92686 -4.86866,-1.68521 -6.5,-1.68521 -1.63134,0 -2.96607,0.45661 -2.96607,1.0147 0,0.55808 1.4625,1.9064 3.25,2.99626 1.7875,1.08986 4.7125,1.98325 6.5,1.9853 2.02064,0.002 3.25,-0.4936 3.25,-1.31105 z m 5.60795,-4.43521 c 0.73065,-0.9625 1.34276,-3.45985 1.36025,-5.54966 0.0175,-2.08981 -0.62338,-5.06663 -1.42415,-6.61516 -0.80077,-1.54852 -3.07186,-3.58229 -5.04687,-4.5195 -2.19675,-1.04242 -4.64042,-1.46466 -6.29405,-1.08754 -1.48672,0.33905 -3.39878,1.15767 -4.24902,1.81916 -0.85024,0.66149 -2.31274,2.31533 -3.25,3.67521 -0.93726,1.35987 -1.70439,4.05987 -1.70473,6 -6.2e-4,3.52749 -6.2e-4,3.52749 4.75,3.21131 3.60522,-0.23996 5.8356,0.28462 9.25062,2.1757 2.475,1.37053 4.67539,2.52532 4.88976,2.56618 0.21436,0.0409 0.98755,-0.7132 1.71819,-1.6757 z m 9.39205,-6.25 0,-15 4.56574,0 c 2.51116,0 5.54866,0.51737 6.75,1.1497 1.20134,0.63234 2.51487,1.64484 2.91895,2.25 0.40407,0.60517 0.74157,2.6978 0.75,4.6503 0.008,1.9525 -0.47969,4.045 -1.08469,4.65 -0.8,0.8 -0.52727,1.67273 1,3.2 1.34359,1.34359 2.1,3.37706 2.1,5.64545 0,2.43098 -0.77156,4.31702 -2.45455,6 -2.0647,2.06471 -3.4147,2.45455 -8.5,2.45455 l -6.04545,0 0,-15 z m 12.05115,9.94885 c 1.41391,-1.41392 1.84856,-2.73428 1.39903,-4.25 -0.35867,-1.20937 -1.3677,-2.76135 -2.24229,-3.44885 -0.87458,-0.6875 -3.07914,-1.25 -4.89902,-1.25 -3.30887,0 -3.30887,0 -3.30887,5.5 0,5.5 0,5.5 3.5,5.5 2.19576,0 4.26434,-0.76434 5.55115,-2.05115 z m -1.62258,-13.52028 c 0.86429,-0.86428 1.57143,-2.34928 1.57143,-3.3 0,-0.95071 -0.54,-2.26857 -1.2,-2.92857 -0.66,-0.66 -2.685,-1.2 -4.5,-1.2 -3.24444,0 -3.3,0.0758 -3.3,4.5 0,4.30894 0.12434,4.5 2.92857,4.5 1.61072,0 3.63572,-0.70714 4.5,-1.57143 z m 9.57143,3.57143 0,-15 7.5,0 c 6.47549,0 7.50025,0.23905 7.50183,1.75 0.002,1.46404 -0.93804,1.75 -5.75,1.75 -5.75183,0 -5.75183,0 -5.75183,5 0,5 0,5 5.75183,5 4.81196,0 5.75152,0.28596 5.75,1.75 -0.002,1.47378 -0.95752,1.75 -6.05662,1.75 -6.05479,0 -6.05479,0 -5.75,4.75 0.30479,4.75 0.30479,4.75 6.05479,5.0499 4.21862,0.22003 5.75,0.68611 5.75,1.75 0,1.1379 -1.61471,1.4501 -7.5,1.4501 l -7.5,0 0,-15 z m 39.0964,13.73526 c -1.32198,-0.67939 -3.28396,-2.42135 -4.35996,-3.87102 -1.076,-1.44967 -2.191,-4.71746 -2.47778,-7.26174 -0.347,-3.07859 0.0547,-6.13442 1.20081,-9.13553 1.12356,-2.94201 2.71619,-5.02357 4.58171,-5.98826 1.57273,-0.81329 4.87004,-1.47871 7.32737,-1.47871 2.45733,0 5.17968,0.27314 6.04966,0.60699 0.86999,0.33384 1.58179,1.4704 1.58179,2.52568 0,1.80278 -0.17823,1.82652 -2.95034,0.39301 -1.62269,-0.83912 -3.67003,-1.52568 -4.54966,-1.52568 -0.87963,0 -2.86359,0.65378 -4.40881,1.45284 -1.54521,0.79906 -3.37962,2.82927 -4.07645,4.51158 -0.73396,1.77193 -1.064,5.17109 -0.78451,8.07979 0.32654,3.39844 1.23154,5.81842 2.80043,7.48842 1.63972,1.74541 3.38145,2.46737 5.95252,2.46737 1.99901,0 4.50807,-0.66069 5.57569,-1.4682 1.06762,-0.8075 2.27863,-1.48251 2.69113,-1.5 0.4125,-0.0175 0.75,0.63164 0.75,1.44252 0,0.81088 -1.32765,2.16088 -2.95034,3 -1.62269,0.83912 -4.43519,1.51905 -6.25,1.51094 -1.81481,-0.008 -4.38128,-0.57061 -5.70326,-1.25 z M 287,228.07649 c 0,-9.83333 0.12698,-10.5 2,-10.5 1.87302,0 2,0.66667 2,10.5 0,9.83333 -0.12698,10.5 -2,10.5 -1.87302,0 -2,-0.66667 -2,-10.5 z m 9,-0.5 c 0,-9.21131 0.24902,-11 1.53138,-11 0.84227,0 1.78793,0.66853 2.10148,1.48563 0.50429,1.31417 0.81488,1.31417 2.69112,0 1.16657,-0.8171 2.6959,-1.48563 3.39853,-1.48563 0.70262,0 1.27749,0.58194 1.27749,1.2932 0,0.71127 -1.4625,1.72376 -3.25,2.25 -3.25,0.9568 -3.25,0.9568 -3.53893,9.7068 -0.26177,7.92721 -0.47334,8.75 -2.25,8.75 -1.82924,0 -1.96107,-0.73946 -1.96107,-11 z m 17.5,9.80827 c -1.1,-0.622 -2.45,-1.84582 -3,-2.71959 -0.55,-0.87377 -1.28941,-2.86896 -1.64314,-4.43375 -0.35373,-1.56478 -0.22573,-4.35681 0.28444,-6.20451 0.51017,-1.8477 2.09778,-4.27992 3.528,-5.40493 1.43023,-1.12502 4.07793,-2.04549 5.88377,-2.04549 1.80585,0 3.99516,0.27314 4.86514,0.60699 0.86999,0.33384 1.58179,1.16779 1.58179,1.85321 0,0.8899 -1.40466,1.11125 -4.91286,0.77415 -4.668,-0.44854 -4.99196,-0.3191 -6.5,2.59713 -0.87293,1.68806 -1.58714,4.34142 -1.58714,5.89635 0,1.55494 0.70052,3.82728 1.5567,5.04966 1.13723,1.62362 2.56541,2.22251 5.3,2.22251 2.05882,0 4.2833,-0.54 4.9433,-1.2 0.93333,-0.93333 1.2,-0.73703 1.2,0.88337 0,1.3152 -0.8296,2.30569 -2.25,2.68634 -1.2375,0.33164 -3.375,0.59544 -4.75,0.58623 -1.375,-0.009 -3.4,-0.52567 -4.5,-1.14767 z M 329,224.07649 c 0,-13.83333 0.0919,-14.5 2,-14.5 1.90805,0 2,0.66667 2,14.5 0,13.83333 -0.0919,14.5 -2,14.5 -1.90805,0 -2,-0.66667 -2,-14.5 z m 12.20557,13.4524 c -1.26194,-0.50645 -2.99353,-2.59402 -3.84799,-4.63903 -0.92539,-2.21475 -1.33025,-5.09435 -1.00128,-7.12156 0.30376,-1.87184 1.25355,-4.47361 2.11064,-5.7817 0.8571,-1.3081 2.68063,-2.66003 4.05228,-3.00429 1.37166,-0.34427 4.0605,-0.33205 5.9752,0.0272 1.9147,0.3592 3.8835,1.42123 4.37511,2.36006 0.49162,0.93883 1.20784,3.16946 1.59161,4.95696 0.69777,3.25 0.69777,3.25 -6.88168,3.25 -7.28451,0 -7.57946,0.0913 -7.57946,2.34501 0,1.28976 0.82293,3.08976 1.82874,4 1.00581,0.91025 3.28539,1.65499 5.06574,1.65499 1.78035,0 4.10742,-0.46583 5.17126,-1.03518 1.52811,-0.81782 1.93426,-0.70764 1.93426,0.52475 0,0.85796 -1.15429,1.99879 -2.5651,2.53518 -1.4108,0.53639 -3.7733,0.94673 -5.25,0.91186 -1.47669,-0.0349 -3.71739,-0.47775 -4.97933,-0.98421 z M 351,223.90523 c 0,-0.91919 -0.74474,-2.49419 -1.65499,-3.5 -0.91024,-1.00581 -2.48524,-1.82874 -3.5,-1.82874 -1.01475,0 -2.74501,0.9 -3.84501,2 -1.1,1.1 -2,2.675 -2,3.5 0,1.15151 1.27778,1.5 5.5,1.5 4.47271,0 5.5,-0.31216 5.5,-1.67126 z"
         id="path5271"
         inkscape:connector-curvature="0" />
    </g>
  </g>
</svg>
